<svg xmlns="http://www.w3.org/2000/svg" viewBox="0 0 39.663 28.5" style="enable-background:new 0 0 39.663052 28.500042" xml:space="preserve"><switch><g><path d="M33.955 7.444a.529.529 0 0 0-.427-.244c-.123 0-.245.06-.367.122l-4.273 3.296v.183c.122 1.832-.488 2.87-.977 3.419a3.187 3.187 0 0 1-2.38 1.038c-.977 0-1.832-.427-2.32-1.221-.733-1.099-.672-2.747.122-4.64l.06-.183-2.99-4.395a.555.555 0 0 0-.489-.244c-.183 0-.366.122-.488.244l-2.992 4.456.122.183c.794 1.893.855 3.541.122 4.64-.488.794-1.343 1.22-2.32 1.22-.915 0-1.77-.365-2.38-1.037-.55-.55-1.16-1.648-.977-3.419v-.183L6.728 7.383c-.122-.122-.245-.183-.367-.183-.183 0-.366.06-.427.244a.474.474 0 0 0-.122.488l3.602 12.21v3.052c0 .183.06.305.183.427a.554.554 0 0 0 .427.184h19.78a.554.554 0 0 0 .427-.184.554.554 0 0 0 .183-.427v-3.052l3.602-12.21c.061-.183.061-.366-.06-.488zM19.915 21.24a2.254 2.254 0 0 1-2.26-2.26c0-1.342 1.1-3.54 2.26-3.54s2.258 2.198 2.258 3.54c0 1.283-.977 2.26-2.259 2.26z" style="fill-rule:evenodd;clip-rule:evenodd;fill:#fff200"/><path d="M19.914 4.575c.183 0 .366.06.488.244l2.992 4.395-.06.183c-.795 1.893-.856 3.541-.123 4.64.488.794 1.343 1.22 2.32 1.22.915 0 1.77-.365 2.38-1.037.49-.55 1.1-1.587.977-3.419v-.183l4.273-3.296c.122-.061.244-.122.367-.122.122 0 .305.06.427.244.122.122.122.305.061.488l-3.602 12.21v3.052a.554.554 0 0 1-.183.427.554.554 0 0 1-.427.184h-19.78a.554.554 0 0 1-.427-.184.554.554 0 0 1-.183-.427v-3.052L5.812 7.932a.475.475 0 0 1 .122-.488c.061-.183.244-.244.427-.244.122 0 .245.06.367.183l4.273 3.296v.183c-.183 1.77.427 2.87.977 3.42a3.187 3.187 0 0 0 2.38 1.037c.977 0 1.832-.427 2.32-1.221.733-1.099.672-2.747-.122-4.64l-.122-.183 2.992-4.456c.122-.122.305-.244.488-.244m0 16.666c1.282 0 2.26-.977 2.26-2.26 0-1.342-1.1-3.54-2.26-3.54s-2.259 2.198-2.259 3.54a2.254 2.254 0 0 0 2.26 2.26m0-20.666c-1.227 0-2.404.502-3.317 1.415a4 4 0 0 0-.494.6l-2.99 4.456a4.015 4.015 0 0 0-.09.14L9.293 4.31A4.473 4.473 0 0 0 6.36 3.2c-1.616 0-3.026.794-3.81 2.087a4.443 4.443 0 0 0-.565 3.812l3.428 11.62v2.475c0 1.226.48 2.382 1.354 3.255a4.578 4.578 0 0 0 3.256 1.356h19.78a4.577 4.577 0 0 0 3.255-1.355 4.577 4.577 0 0 0 1.355-3.256v-2.475l3.427-11.615c.456-1.468.168-3.013-.755-4.152A4.504 4.504 0 0 0 33.528 3.2c-1.067 0-1.858.395-2.156.544a4 4 0 0 0-.654.41l-3.893 3.004a4.904 4.904 0 0 0-.124-.194L23.71 2.568C22.885 1.332 21.46.575 19.914.575z" style="fill:#ee2b2d"/></g></switch></svg>