<svg xmlns="http://www.w3.org/2000/svg" viewBox="0 0 18.703 34.574"><path d="M16.876 27.512c-1.219 1.391-2.86 2.306-4.923 2.744v1.793c0 .756-.214 1.366-.642 1.83s-.983.695-1.663.695-1.235-.232-1.663-.695-.642-1.074-.642-1.83v-1.646c-2.437-.341-4.522-1.134-6.256-2.379-.395-.268-.675-.572-.84-.914C.083 26.769 0 26.318 0 25.757c0-.732.192-1.366.577-1.903.383-.536.84-.805 1.366-.805.263 0 .527.05.79.146.264.098.604.281 1.02.55.966.584 1.867 1 2.701 1.243a9.456 9.456 0 0 0 2.667.366c1.163 0 2.047-.213 2.65-.64.605-.427.907-1.067.907-1.921 0-.512-.181-.933-.544-1.262-.362-.33-.813-.591-1.35-.787s-1.323-.439-2.354-.732c-1.646-.463-2.996-.932-4.05-1.408-1.054-.476-1.965-1.22-2.733-2.232C.877 15.36.494 14.001.494 12.293c0-1.952.614-3.646 1.844-5.086 1.23-1.439 2.854-2.39 4.874-2.853v-1.83c0-.732.219-1.335.658-1.81A2.147 2.147 0 0 1 9.516 0c.68 0 1.235.232 1.663.695s.642 1.073.642 1.83v1.72c1.822.316 3.6 1.084 5.334 2.304.396.292.675.616.84.969.165.354.247.787.247 1.3 0 .731-.198 1.366-.593 1.902s-.856.805-1.383.805a2 2 0 0 1-.757-.147c-.242-.097-.592-.28-1.053-.548a37.775 37.775 0 0 0-1.022-.604 8.013 8.013 0 0 0-1.695-.732 6.624 6.624 0 0 0-1.926-.274c-.988 0-1.79.238-2.404.713-.615.475-.922 1.116-.922 1.92 0 .782.35 1.367 1.054 1.757.702.39 1.81.781 3.325 1.17 1.625.416 2.958.855 4.001 1.318 1.042.463 1.943 1.207 2.7 2.232.757 1.024 1.136 2.402 1.136 4.134 0 1.976-.61 3.658-1.827 5.048Z" style="fill:#fff"/></svg>