<?xml version="1.0" encoding="utf-8"?>
<!-- Generator: Adobe Illustrator 28.2.0, SVG Export Plug-In . SVG Version: 6.00 Build 0)  -->
<svg version="1.1" id="Layer_1" xmlns="http://www.w3.org/2000/svg" xmlns:xlink="http://www.w3.org/1999/xlink" x="0px" y="0px"
	 viewBox="0 0 29.3 30.5" style="enable-background:new 0 0 29.3 30.5;" xml:space="preserve">
<style type="text/css">
	.st0{fill:#FAF179;}
	.st1{fill:#F79520;}
</style>
<g>
	<path class="st0" d="M12.2,29.3c-0.4,0-0.9-0.2-1.2-0.5c-0.3-0.3-0.5-0.6-0.5-1l-1.3-7.6l-7-3.2c-0.9-0.4-1.3-1.4-0.9-2.3
		c0.2-0.3,0.4-0.6,0.8-0.8l6.8-3.6c0.2-1.5,0.4-3.5,0.6-5.1c0.2-1.3,0.3-2.3,0.3-2.6c0.1-0.8,0.9-1.5,1.8-1.5c0.5,0,0.9,0.2,1.2,0.5
		C13.1,2,16.4,5.3,18.2,7l7.5-1.5c0.1,0,0.2,0,0.3,0c0.8,0,1.5,0.6,1.7,1.4c0.1,0.4,0,0.8-0.1,1.1l-3.4,6.9l3.8,6.7
		c0.5,0.8,0.2,1.9-0.7,2.4c-0.3,0.1-0.6,0.2-0.9,0.2c-0.1,0-0.2,0-0.2,0l-7.6-1.1l-5.2,5.6C13.1,29.1,12.7,29.3,12.2,29.3z"/>
	<path class="st1" d="M11.6,2.2c0.2,0,0.3,0.1,0.5,0.2c0.4,0.4,5.6,5.4,5.6,5.4C17.8,8,18,8,18.2,8c0,0,0.1,0,0.1,0L26,6.5
		c0,0,0.1,0,0.1,0c0.3,0,0.7,0.2,0.7,0.6c0,0.2,0,0.3-0.1,0.5l-3.4,7c-0.1,0.2-0.1,0.5,0,0.7l3.8,6.8c0.2,0.4,0.1,0.8-0.3,1
		c-0.1,0.1-0.2,0.1-0.4,0.1c0,0-0.1,0-0.1,0l-7.7-1.1c0,0-0.1,0-0.1,0c-0.2,0-0.4,0.1-0.5,0.2L12.7,28c-0.1,0.2-0.3,0.2-0.5,0.2
		c-0.2,0-0.4-0.1-0.5-0.2c-0.1-0.1-0.2-0.3-0.2-0.4l-1.3-7.7c0-0.2-0.2-0.4-0.4-0.5l-7.1-3.3c-0.4-0.2-0.5-0.6-0.4-1
		c0.1-0.1,0.2-0.3,0.3-0.3l6.9-3.6c0.2-0.1,0.4-0.3,0.4-0.6c0.3-2.7,0.8-7.3,0.9-7.8C10.8,2.5,11.2,2.2,11.6,2.2 M11.6,0.2L11.6,0.2
		c-1.4,0-2.6,1-2.8,2.4c0,0.3-0.2,1.3-0.3,2.6C8.3,6.6,8.1,8.3,8,9.7L1.6,13c-0.5,0.3-1,0.7-1.2,1.3c-0.6,1.4,0,3,1.3,3.6l6.5,3
		l1.2,7c0.1,0.6,0.4,1.1,0.8,1.6c0.5,0.5,1.2,0.7,1.9,0.7c0.8,0,1.5-0.3,2-0.9l4.8-5.2l7.1,1c0.1,0,0.3,0,0.4,0
		c0.5,0,0.9-0.1,1.3-0.4c0.6-0.4,1.1-0.9,1.3-1.7c0.2-0.7,0.1-1.4-0.2-2.1l-3.5-6.2l3.2-6.4c0.3-0.5,0.3-1.2,0.2-1.8
		c-0.3-1.3-1.4-2.2-2.7-2.2c-0.2,0-0.4,0-0.5,0.1l-7,1.4c-2.1-2-4.8-4.7-5.1-5C13,0.5,12.3,0.2,11.6,0.2L11.6,0.2z"/>
</g>
</svg>
