<svg xmlns="http://www.w3.org/2000/svg" id="Layer_2" viewBox="0 0 33.956 34.476"><defs><style>.cls-1{fill:#fff}</style></defs><g id="Layer_4"><path d="M30.273 25.1a1.613 1.613 0 0 0-1.47-.95h-5.872a82.739 82.739 0 0 1-4.097 4.926l-1.842 2.033-1.841-2.033a82.739 82.739 0 0 1-4.098-4.926h-5.9c-.635 0-1.21.372-1.47.951L.088 33.088a.984.984 0 0 0 .898 1.388H32.97a.984.984 0 0 0 .898-1.388L30.273 25.1Z" class="cls-1"/><path d="M16.992 27.408s1.185-1.308 2.75-3.258c3.057-3.806 7.569-10.062 7.569-13.831C27.31 4.619 22.69 0 16.992 0S6.673 4.62 6.673 10.319c0 3.769 4.512 10.025 7.569 13.831a79.831 79.831 0 0 0 2.75 3.258ZM14.11 16.122c-.199.2-.457.298-.776.298-.308 0-.562-.097-.762-.29s-.297-.46-.297-.796v-7.21c0-.353.107-.64.324-.861s.492-.331.828-.331c.24 0 .455.068.65.205s.358.334.49.59l2.438 4.585 2.426-4.585c.273-.53.644-.795 1.113-.795.336 0 .61.11.821.33s.319.509.319.862v7.21c0 .336-.098.6-.292.795s-.45.291-.769.291c-.31 0-.562-.097-.761-.29s-.298-.46-.298-.796v-3.896l-1.511 2.783c-.15.282-.31.483-.478.602s-.367.18-.596.18-.429-.06-.596-.18c-.168-.119-.327-.32-.478-.602l-1.497-2.704v3.817c0 .326-.1.59-.298.788Z" class="cls-1"/></g></svg>