<?xml version="1.0" encoding="utf-8"?><svg id="chickLoop_idle_borg" image-rendering="auto" baseProfile="basic" version="1.1" x="0px" y="0px" width="400" height="400" xmlns="http://www.w3.org/2000/svg" xmlns:xlink="http://www.w3.org/1999/xlink"><g id="Scene-1" overflow="visible"><g id="chick_shadow" transform="matrix(.901 0 0 .947 134 284.3)"><animateTransform attributeName="transform" additive="replace" type="translate" repeatCount="indefinite" dur="3.25s" keyTimes="0;.01299;.013;.02599;.026;.03799;.038;.05099;.051;.06399;.064;.07699;.077;.08999;.09;.10299;.103;.11499;.115;.12799;.128;.14099;.141;.15399;.154;.16699;.167;.17899;.179;.19199;.192;.20499;.205;.21799;.218;.23099;.231;.24399;.244;.25599;.256;.26899;.269;.28199;.282;.29499;.295;.30799;.308;.32099;.321;.34599;.346;.35899;.359;.37199;.372;.38499;.385;.39699;.397;.40999;.41;.42299;.423;.43599;.436;.44899;.449;.46199;.462;.47399;.474;.48699;.487;.49999;.5;.51299;.513;.52599;.526;.53799;.538;.55099;.551;.56399;.564;.57699;.577;.58999;.59;.60299;.603;.61499;.615;.62799;.628;.64099;.641;.65399;.654;.67899;.679;.69199;.692;.70499;.705;.71799;.718;.73099;.731;.74399;.744;.75599;.756;.76899;.769;.78199;.782;.79499;.795;.80799;.808;.82099;.821;.83299;.833;.84599;.846;.85899;.859;.87199;.872;.88499;.885;.89699;.897;.90999;.91;.92299;.923;.93599;.936;.94899;.949;.96199;.962;.97399;.974;.98699;.987;1" values="191.138,298.127;191.138,298.127;191.116,298.17;191.116,298.17;191.146,298.213;191.146,298.213;191.169,298.112;191.169,298.112;191.147,298.112;191.147,298.112;191.132,298.105;191.132,298.105;191.155,298.151;191.155,298.151;191.184,298.101;191.184,298.101;191.119,298.097;191.119,298.097;191.142,298.09;191.142,298.09;191.126,297.995;191.126,297.995;191.114,297.996;191.114,297.996;191.086,298.079;191.086,298.079;191.11,298.075;191.11,298.075;191.084,298.067;191.084,298.067;191.106,298.109;191.106,298.109;191.175,298.055;191.175,298.055;191.191,298.093;191.191,298.093;191.171,298.085;191.171,298.085;191.196,298.127;191.196,298.127;191.118,298.119;191.118,298.119;191.098,298.158;191.098,298.158;191.121,298.153;191.121,298.153;191.152,298.192;191.152,298.192;191.164,298.137;191.164,298.137;191.138,298.127;191.138,298.127;191.116,298.17;191.116,298.17;191.146,298.213;191.146,298.213;191.169,298.112;191.169,298.112;191.147,298.112;191.147,298.112;191.132,298.105;191.132,298.105;191.155,298.151;191.155,298.151;191.184,298.101;191.184,298.101;191.119,298.097;191.119,298.097;191.142,298.09;191.142,298.09;191.126,297.995;191.126,297.995;191.114,297.996;191.114,297.996;191.086,298.079;191.086,298.079;191.11,298.075;191.11,298.075;191.084,298.067;191.084,298.067;191.106,298.109;191.106,298.109;191.175,298.055;191.175,298.055;191.191,298.093;191.191,298.093;191.171,298.085;191.171,298.085;191.196,298.127;191.196,298.127;191.118,298.119;191.118,298.119;191.098,298.158;191.098,298.158;191.121,298.153;191.121,298.153;191.152,298.192;191.152,298.192;191.164,298.137;191.164,298.137;191.138,298.127;191.138,298.127;191.116,298.17;191.116,298.17;191.146,298.213;191.146,298.213;191.169,298.112;191.169,298.112;191.147,298.112;191.147,298.112;191.132,298.105;191.132,298.105;191.155,298.151;191.155,298.151;191.184,298.101;191.184,298.101;191.119,298.097;191.119,298.097;191.142,298.09;191.142,298.09;191.126,297.995;191.126,297.995;191.114,297.996;191.114,297.996;191.086,298.079;191.086,298.079;191.11,298.075;191.11,298.075;191.084,298.067;191.084,298.067;191.106,298.109;191.106,298.109;191.175,298.055;191.175,298.055;191.191,298.093;191.191,298.093;191.171,298.085;191.171,298.085;191.196,298.127;191.196,298.127;191.118,298.119;191.118,298.119;191.098,298.158;191.098,298.158;191.121,298.153;191.121,298.153;191.152,298.192;191.152,298.192;191.164,298.137;191.164,298.137;191.138,298.127;191.138,298.127" calcMode="discrete"/><animateTransform attributeName="transform" additive="sum" type="scale" repeatCount="indefinite" dur="3.25s" keyTimes="0;.01299;.013;.02599;.026;.03799;.038;.05099;.051;.06399;.064;.07699;.077;.08999;.09;.10299;.103;.11499;.115;.12799;.128;.14099;.141;.15399;.154;.16699;.167;.17899;.179;.19199;.192;.20499;.205;.21799;.218;.23099;.231;.24399;.244;.25599;.256;.26899;.269;.28199;.282;.29499;.295;.30799;.308;.32099;.321;.34599;.346;.35899;.359;.37199;.372;.38499;.385;.39699;.397;.40999;.41;.42299;.423;.43599;.436;.44899;.449;.46199;.462;.47399;.474;.48699;.487;.49999;.5;.51299;.513;.52599;.526;.53799;.538;.55099;.551;.56399;.564;.57699;.577;.58999;.59;.60299;.603;.61499;.615;.62799;.628;.64099;.641;.65399;.654;.67899;.679;.69199;.692;.70499;.705;.71799;.718;.73099;.731;.74399;.744;.75599;.756;.76899;.769;.78199;.782;.79499;.795;.80799;.808;.82099;.821;.83299;.833;.84599;.846;.85899;.859;.87199;.872;.88499;.885;.89699;.897;.90999;.91;.92299;.923;.93599;.936;.94899;.949;.96199;.962;.97399;.974;.98699;.987;1" values=".901,.947;.901,.947;.897,.944;.897,.944;.894,.94;.894,.94;.89,.936;.89,.936;.887,.933;.887,.933;.883,.929;.883,.929;.88,.925;.88,.925;.876,.922;.876,.922;.873,.918;.873,.918;.869,.914;.869,.914;.866,.911;.866,.911;.862,.907;.862,.907;.865,.91;.865,.91;.868,.913;.868,.913;.871,.916;.871,.916;.873,.918;.873,.918;.876,.921;.876,.921;.879,.924;.879,.924;.881,.927;.881,.927;.884,.93;.884,.93;.887,.933;.887,.933;.89,.936;.89,.936;.892,.939;.892,.939;.895,.941;.895,.941;.898,.944;.898,.944;.901,.947;.901,.947;.897,.944;.897,.944;.894,.94;.894,.94;.89,.936;.89,.936;.887,.933;.887,.933;.883,.929;.883,.929;.88,.925;.88,.925;.876,.922;.876,.922;.873,.918;.873,.918;.869,.914;.869,.914;.866,.911;.866,.911;.862,.907;.862,.907;.865,.91;.865,.91;.868,.913;.868,.913;.871,.916;.871,.916;.873,.918;.873,.918;.876,.921;.876,.921;.879,.924;.879,.924;.881,.927;.881,.927;.884,.93;.884,.93;.887,.933;.887,.933;.89,.936;.89,.936;.892,.939;.892,.939;.895,.941;.895,.941;.898,.944;.898,.944;.901,.947;.901,.947;.897,.944;.897,.944;.894,.94;.894,.94;.89,.936;.89,.936;.887,.933;.887,.933;.883,.929;.883,.929;.88,.925;.88,.925;.876,.922;.876,.922;.873,.918;.873,.918;.869,.914;.869,.914;.866,.911;.866,.911;.862,.907;.862,.907;.865,.91;.865,.91;.868,.913;.868,.913;.871,.916;.871,.916;.873,.918;.873,.918;.876,.921;.876,.921;.879,.924;.879,.924;.881,.927;.881,.927;.884,.93;.884,.93;.887,.933;.887,.933;.89,.936;.89,.936;.892,.939;.892,.939;.895,.941;.895,.941;.898,.944;.898,.944;.901,.947;.901,.947" calcMode="discrete"/><animateTransform attributeName="transform" additive="sum" type="translate" repeatCount="indefinite" dur="3.25s" keyTimes="0;.01299;.013;.02599;.026;.03799;.038;.05099;.051;.06399;.064;.07699;.077;.08999;.09;.10299;.103;.11499;.115;.12799;.128;.14099;.141;.15399;.154;.16699;.167;.20499;.205;.21799;.218;.23099;.231;.26899;.269;.28199;.282;.29499;.295;.30799;.308;.32099;.321;.34599;.346;.35899;.359;.37199;.372;.38499;.385;.39699;.397;.40999;.41;.42299;.423;.43599;.436;.44899;.449;.46199;.462;.47399;.474;.48699;.487;.49999;.5;.53799;.538;.55099;.551;.56399;.564;.60299;.603;.61499;.615;.62799;.628;.64099;.641;.65399;.654;.67899;.679;.69199;.692;.70499;.705;.71799;.718;.73099;.731;.74399;.744;.75599;.756;.76899;.769;.78199;.782;.79499;.795;.80799;.808;.82099;.821;.83299;.833;.87199;.872;.88499;.885;.89699;.897;.93599;.936;.94899;.949;.96199;.962;.97399;.974;.98699;.987;1" values="-63.5,-14.65;-63.5,-14.65;-63.5,-14.7;-63.5,-14.7;-63.5,-14.75;-63.5,-14.75;-63.55,-14.7;-63.55,-14.7;-63.55,-14.65;-63.55,-14.65;-63.5,-14.7;-63.5,-14.7;-63.55,-14.7;-63.55,-14.7;-63.55,-14.65;-63.55,-14.65;-63.5,-14.65;-63.5,-14.65;-63.55,-14.7;-63.55,-14.7;-63.5,-14.6;-63.5,-14.6;-63.45,-14.55;-63.45,-14.55;-63.45,-14.65;-63.45,-14.65;-63.45,-14.6;-63.45,-14.6;-63.5,-14.55;-63.5,-14.55;-63.55,-14.6;-63.55,-14.6;-63.5,-14.6;-63.5,-14.6;-63.45,-14.65;-63.45,-14.65;-63.45,-14.6;-63.45,-14.6;-63.4,-14.65;-63.4,-14.65;-63.5,-14.6;-63.5,-14.6;-63.5,-14.65;-63.5,-14.65;-63.5,-14.7;-63.5,-14.7;-63.5,-14.75;-63.5,-14.75;-63.55,-14.7;-63.55,-14.7;-63.55,-14.65;-63.55,-14.65;-63.5,-14.7;-63.5,-14.7;-63.55,-14.7;-63.55,-14.7;-63.55,-14.65;-63.55,-14.65;-63.5,-14.65;-63.5,-14.65;-63.55,-14.7;-63.55,-14.7;-63.5,-14.6;-63.5,-14.6;-63.45,-14.55;-63.45,-14.55;-63.45,-14.65;-63.45,-14.65;-63.45,-14.6;-63.45,-14.6;-63.5,-14.55;-63.5,-14.55;-63.55,-14.6;-63.55,-14.6;-63.5,-14.6;-63.5,-14.6;-63.45,-14.65;-63.45,-14.65;-63.45,-14.6;-63.45,-14.6;-63.4,-14.65;-63.4,-14.65;-63.5,-14.6;-63.5,-14.6;-63.5,-14.65;-63.5,-14.65;-63.5,-14.7;-63.5,-14.7;-63.5,-14.75;-63.5,-14.75;-63.55,-14.7;-63.55,-14.7;-63.55,-14.65;-63.55,-14.65;-63.5,-14.7;-63.5,-14.7;-63.55,-14.7;-63.55,-14.7;-63.55,-14.65;-63.55,-14.65;-63.5,-14.65;-63.5,-14.65;-63.55,-14.7;-63.55,-14.7;-63.5,-14.6;-63.5,-14.6;-63.45,-14.55;-63.45,-14.55;-63.45,-14.65;-63.45,-14.65;-63.45,-14.6;-63.45,-14.6;-63.5,-14.55;-63.5,-14.55;-63.55,-14.6;-63.55,-14.6;-63.5,-14.6;-63.5,-14.6;-63.45,-14.65;-63.45,-14.65;-63.45,-14.6;-63.45,-14.6;-63.4,-14.65;-63.4,-14.65;-63.5,-14.6;-63.5,-14.6;-63.5,-14.65;-63.5,-14.65" calcMode="discrete"/><path fill="#000" fill-opacity=".298" stroke="none" d="M126.4 14.4Q126.4 8.45 107.9 4.2 89.4 0 63.2 0 37 0 18.5 4.2 0 8.45 0 14.4 0 20.35 18.5 24.55 37 28.8 63.2 28.8 89.4 28.8 107.9 24.55 126.4 20.35 126.4 14.4Z"/></g><g id="chick_Legs" transform="matrix(-.298 0 0 .298 200.6 268.95)"><path id="Layer1_0_1_STROKES" stroke="#EE9300" stroke-width="17" stroke-linejoin="round" stroke-linecap="round" fill="none" d="M38.35 120.75L83.9 0"/><path id="Layer2_0_1_STROKES" stroke="#EE9300" stroke-width="17" stroke-linejoin="round" stroke-linecap="round" fill="none" d="M5.05 67.8L51.35 83.05"/><path id="Layer3_0_1_STROKES" stroke="#EE9300" stroke-width="17" stroke-linejoin="round" stroke-linecap="round" fill="none" d="M0 99.95L50.6 84.1"/><path id="Layer4_0_1_STROKES" stroke="#EE9300" stroke-width="17" stroke-linejoin="round" stroke-linecap="round" fill="none" d="M-37.8 108.3L7.75 -12.45"/><path id="Layer5_0_1_STROKES" stroke="#EE9300" stroke-width="17" stroke-linejoin="round" stroke-linecap="round" fill="none" d="M-71.15 55.35L-24.85 70.6"/><path id="Layer6_0_1_STROKES" stroke="#EE9300" stroke-width="17" stroke-linejoin="round" stroke-linecap="round" fill="none" d="M-76.2 87.5L-25.6 71.65"/></g><g id="chick_all" transform="matrix(-.349 0 0 .349 281.25 105.05)"><animateTransform attributeName="transform" additive="replace" type="translate" repeatCount="indefinite" dur="3.25s" keyTimes="0;.01299;.013;.02599;.026;.03799;.038;.05099;.051;.06399;.064;.07699;.077;.08999;.09;.10299;.103;.11499;.115;.12799;.128;.14099;.141;.15399;.154;.16699;.167;.17899;.179;.19199;.192;.20499;.205;.21799;.218;.23099;.231;.24399;.244;.25599;.256;.26899;.269;.28199;.282;.29499;.295;.30799;.308;.32099;.321;.34599;.346;.35899;.359;.37199;.372;.38499;.385;.39699;.397;.40999;.41;.42299;.423;.43599;.436;.44899;.449;.46199;.462;.47399;.474;.48699;.487;.49999;.5;.51299;.513;.52599;.526;.53799;.538;.55099;.551;.56399;.564;.57699;.577;.58999;.59;.60299;.603;.61499;.615;.62799;.628;.64099;.641;.65399;.654;.67899;.679;.69199;.692;.70499;.705;.71799;.718;.73099;.731;.74399;.744;.75599;.756;.76899;.769;.78199;.782;.79499;.795;.80799;.808;.82099;.821;.83299;.833;.84599;.846;.85899;.859;.87199;.872;.88499;.885;.89699;.897;.90999;.91;.92299;.923;.93599;.936;.94899;.949;.96199;.962;.97399;.974;.98699;.987;1" values="281.25,105.05;281.25,105.05;281.454,105.296;281.454,105.296;281.654,105.596;281.654,105.596;281.854,105.895;281.854,105.895;282.054,106.195;282.054,106.195;282.254,106.495;282.254,106.495;282.504,106.845;282.504,106.845;282.704,107.146;282.704,107.146;282.904,107.446;282.904,107.446;283.104,107.745;283.104,107.745;283.304,108.045;283.304,108.045;283.5,108.4;283.5,108.4;283.354,108.095;283.354,108.095;283.204,107.846;283.204,107.846;283.004,107.645;283.004,107.645;282.854,107.396;282.854,107.396;282.704,107.146;282.704,107.146;282.554,106.895;282.554,106.895;282.404,106.696;282.404,106.696;282.204,106.445;282.204,106.445;282.054,106.195;282.054,106.195;281.904,105.946;281.904,105.946;281.754,105.696;281.754,105.696;281.554,105.495;281.554,105.495;281.404,105.246;281.404,105.246;281.25,105.05;281.25,105.05;281.454,105.296;281.454,105.296;281.654,105.596;281.654,105.596;281.854,105.895;281.854,105.895;282.054,106.195;282.054,106.195;282.254,106.495;282.254,106.495;282.504,106.845;282.504,106.845;282.704,107.146;282.704,107.146;282.904,107.446;282.904,107.446;283.104,107.745;283.104,107.745;283.304,108.045;283.304,108.045;283.5,108.4;283.5,108.4;283.354,108.095;283.354,108.095;283.204,107.846;283.204,107.846;283.004,107.645;283.004,107.645;282.854,107.396;282.854,107.396;282.704,107.146;282.704,107.146;282.554,106.895;282.554,106.895;282.404,106.696;282.404,106.696;282.204,106.445;282.204,106.445;282.054,106.195;282.054,106.195;281.904,105.946;281.904,105.946;281.754,105.696;281.754,105.696;281.554,105.495;281.554,105.495;281.404,105.246;281.404,105.246;281.25,105.05;281.25,105.05;281.454,105.296;281.454,105.296;281.654,105.596;281.654,105.596;281.854,105.895;281.854,105.895;282.054,106.195;282.054,106.195;282.254,106.495;282.254,106.495;282.504,106.845;282.504,106.845;282.704,107.146;282.704,107.146;282.904,107.446;282.904,107.446;283.104,107.745;283.104,107.745;283.304,108.045;283.304,108.045;283.5,108.4;283.5,108.4;283.354,108.095;283.354,108.095;283.204,107.846;283.204,107.846;283.004,107.645;283.004,107.645;282.854,107.396;282.854,107.396;282.704,107.146;282.704,107.146;282.554,106.895;282.554,106.895;282.404,106.696;282.404,106.696;282.204,106.445;282.204,106.445;282.054,106.195;282.054,106.195;281.904,105.946;281.904,105.946;281.754,105.696;281.754,105.696;281.554,105.495;281.554,105.495;281.404,105.246;281.404,105.246;281.25,105.05;281.25,105.05" calcMode="discrete"/><animateTransform attributeName="transform" additive="sum" type="skewY" repeatCount="indefinite" dur="3.25s" keyTimes="0;1" values="180;180" calcMode="discrete"/><animateTransform attributeName="transform" additive="sum" type="scale" repeatCount="indefinite" dur="3.25s" keyTimes="0;1" values=".349,.349;.349,.349" calcMode="discrete"/><animateTransform attributeName="transform" additive="sum" type="scale" repeatCount="indefinite" dur="3.25s" keyTimes="0;1" values="-1,1;-1,1" calcMode="discrete"/><g id="chick_body" transform="translate(63.35 46.8)"><path fill="#EE9300" stroke="none" d="M412.45 266.05Q409.85 258.9 405.95 257.4 402.1 255.9 395.15 259.25 394.1 259.75 380.3 267.05 380.5 266.7 383.4 261.1 385.1 257.75 386.05 255.55 388.65 249.5 386.5 246.2 384.35 242.9 377.8 242.85 354.15 242.7 334.35 250.4 331.25 251.6 318.65 255.95 310.9 227.1 292.3 204.85 272.05 180.65 245.3 172.7 243.95 151.65 233.35 129.8 216.3 94.9 182.8 82.65 148.5 70.15 121.3 75.05 104.2 78.1 86.4 89.7 74.65 97.3 62.65 118.75 58.75 125.65 54.2 136.25 53.6 137.7 51.45 144.65 49.3 151.1 47.75 151.95 34.75 159.05 0 178.5L37.1 196.55Q36.95 199.75 36.3 214.05 35.8 224.35 35.6 230.85 35.05 254.15 37.4 273.8 40.15 296.15 46.85 315.85 60.55 355.95 87.9 383.9 114.4 410.95 154.75 427.7 183.6 439.65 222.3 439.55 241.65 439.5 255.25 437.05 261.8 435.4 274.25 432.45 285.15 429.75 292.3 427.35 309.6 421.55 326.75 413 388.85 381.9 411.4 315.45 420.7 288.4 412.45 266.05Z"/><path fill="#C47800" stroke="none" d="M402.85 287.55Q403.1 283.85 402.85 274.45 366.5 316.85 349.9 336.1 341.5 331 336.95 328.65 325 322.55 319.2 322.65L319.2 322.7 323.4 332.3Q327.45 342.8 326.95 347.15 320.35 349.5 311.65 349.15 311.1 349.15 296.05 347.65 296.95 349.4 303 358.75 307.15 365.1 308.25 369.95 300.65 372.45 289.75 370.95 283.75 370 280.75 369.55 275.35 368.7 271.65 368.6L292.65 386.2Q290.45 387.3 289.65 387.7 288.35 388.35 287.55 388.45 275.8 390.35 269.95 391.2 259.6 392.8 252.3 393.35 239.4 394.35 224.65 391.45 213.65 389.25 197.85 383.95 180 377.95 164.55 366.25 150.55 355.7 137.8 339.85 125.45 324.45 123.9 322.4 117 313.05 112.45 303.45 110.2 298.8 105.2 285 100.7 272.65 100.6 272.7 97.8 281.55 97 287.25 96.1 293.85 97.25 300.4 84.75 287.45 75.55 265.45 74.8 275.1 75.05 282.45 75.35 291.9 77.2 301.2 67.5 292.55 58.95 274.65 55 266.3 48.9 249.5 48.9 266.35 54.7 290.5 61.95 320.8 74.65 342.75 86.5 360.35 108.75 379.5 125.5 393.9 136.55 400.3 156.05 411.65 179.65 417.1 200.4 421.95 225.7 422.5 254.2 423.15 283.95 414.55 312.1 406.45 333.15 393.95 356.85 379.8 373.6 358.9 386.7 342.6 393.9 325.45 401.55 307.3 402.85 287.55Z"/><path fill="#C47800" stroke="none" d="M32.65 179.75Q19.2 179.95 12.1 179.95L46.6 195.15Q47 198.35 46.95 209.95 46.9 219.05 48.5 224.55 55.35 214.25 58.85 207.2 63.65 197.35 65.4 187.45 61.05 184.45 58.9 183.05 55.05 180.45 52.35 180.25 44.35 179.65 32.65 179.75Z"/><path fill="#C47800" stroke="none" d="M352 275.85Q346.9 284.5 344.25 288.75 348.1 286.7 355.8 282.6 362.35 278.95 366.6 275.65 377.9 266.75 381 253.45 366.65 255.4 360.35 263.4 356.65 268.2 352 275.85Z"/><path fill="#F3B000" stroke="none" d="M140.05 225.7Q133.55 227.95 129 232 121.4 238.75 119 249.05 117.3 256.5 118 268.6 118.75 280.5 124.25 293.2 128.2 302.3 136.55 315.5 142.05 324.05 151.4 333.85 156.85 339.55 168.15 350.5 169.15 351.5 170.85 352.6 171.85 353.2 173.85 354.45 169.45 343.75 167.35 338.5 163.55 329.2 161.25 322.75 157.05 310.7 156 307 153.55 297.9 153.7 290.1 156.85 293.95 162.65 301.3 167.8 307.75 171.4 311.85 181.2 322.95 194.1 326.1 184.45 311.35 180.2 293.4 176.55 277.9 176.65 258.45L178 257.8 211.3 287.8 212.4 287.05Q208 275.15 205.9 269.1 202.15 258.35 201.8 250.05 205.45 253.15 212.3 259.15 218.35 264.35 222.6 267.75 235.45 278.05 250.2 288.85 252.9 290.8 257.2 293.4 259.6 294.85 264.4 297.7 261.4 290.05 259.5 286.45 257.6 282.9 254.45 277.55 249.8 269.7 249.25 268.75L250.8 267.1Q255.25 269.6 264.3 274.35 272.3 278.7 277.2 282.4 288.4 290.85 313.55 312.85 308.6 305.45 302.35 296.45 289.85 278.4 283.3 270.45 277.5 263.3 267.75 255.85 259.5 249.45 255.65 246.75 248.75 241.85 242.9 238.85 237.2 235.95 228.05 232.75 217.85 229.3 212.8 227.4 198.8 222.15 182.8 221.25 168.9 220.5 152.3 223 144.65 224.15 140.05 225.7Z"/><path fill="#F3B000" stroke="none" d="M299.55 228Q292.9 216.85 286.05 209.25 278.85 201.3 274.05 200.3 268.9 214.3 276.05 223.8 281.15 230.5 289.55 240.35 302.05 254.9 303.45 256.55 305.75 259.3 309 263.5 310.85 265.9 314.8 271 315.15 254.2 299.55 228Z"/><path fill="#F3B000" stroke="none" d="M110.3 182.05Q112.25 185.15 114.8 187.3 119.6 191.35 127.25 193.05 134.6 194.7 142.35 193.75 150.35 192.8 156.35 189.35 162.85 185.7 165.4 179.9 165.4 173.2 160 170.35 158.3 169.5 156.3 169.1L154.6 168.9Q148.7 167.7 140.65 166.8 124.65 164.95 114.25 166.3 111 166.7 109 169.3 107 171.95 107.5 175.1 108.05 178.55 110.3 182.05Z"/><path fill="#F3B000" stroke="none" d="M239.9 373.6Q227.4 370.35 218.6 369.75 214.2 369.45 207.6 369.85 200.3 370.4 196.65 370.55 204.65 377.35 229.25 381.8 254.15 386.3 260.2 381.55 256.1 378.6 250.25 376.55 248.1 375.8 239.9 373.6Z"/><path fill="#F3B000" stroke="none" d="M357.4 289.1Q354 291.65 353.05 295.4 352.15 299.15 353.95 303.45 355.75 302.95 359.75 302.3 363.25 301.55 364.85 300.1 370.45 295.2 377 287.75 385.3 278.4 388.75 274.95 390.85 272.85 397.65 264.55 383.6 271.6 376.95 275.65 369.25 280.3 357.4 289.1Z"/><path fill="#F3B000" stroke="none" d="M34.45 164.55Q22.05 170.2 17.05 175 19.95 177 40.2 176.05 60.45 175.1 64.7 172.85 63.4 170.9 62.75 169.95 61.65 168.3 60.65 167.35 58.85 165.6 56.05 163.25 52.9 160.6 51.3 159.25 46.8 158.9 34.45 164.55Z"/><path fill="#F3B000" stroke="none" d="M59.45 143.55Q58.8 144.85 59.3 147.4 59.6 148.85 60.2 151.75L67.1 151.75Q73.4 146.5 76.8 134 80.15 121.55 78.2 110.55 77.8 110.9 76.95 111.5 76.25 112.05 75.95 112.5 73.15 117.65 67.5 127.95 62.65 136.9 59.45 143.55Z"/><path fill="#F3B000" stroke="none" d="M337.65 266.75Q344.7 261.35 350.8 258.25 357.05 255.1 365.4 252.75 368.8 251.8 377.65 247.5 371.25 245.9 358.35 247.85 349.7 249.2 343.45 251.3 335.7 253.85 329.75 258.1 326.9 260.15 326.05 261.5 324.55 263.85 325.9 266.85 332 271.05 337.65 266.75Z"/><path fill="#F7D57B" stroke="none" d="M129.8 240.5Q127.9 243.05 126.6 246.1 122.25 256.35 124.45 268.35 125.85 276.05 131.55 289.65 131.9 290.45 133.45 291.45 136.45 293.35 136.75 293.6L136.15 288.65Q135.55 282.75 135.25 279.8 134.75 274.55 134.85 270.95 135 266.1 138.05 260.85 140.7 256.45 145.1 255.7 149 255.1 154.75 257.25 156.7 251.35 157.65 248.5 159.35 243.4 161.4 240.7 163.55 237.85 167.95 234.55 173.1 231 175.55 229 174.55 228.05 174.45 228.05 151.6 225.75 134.35 236.2 131.95 237.65 129.8 240.5Z"/><path fill="#F7D57B" stroke="none" d="M229.05 240.6Q222.7 234.1 207.4 230.9 192 227.7 184.55 231.45 188.7 235.85 207.65 239.7 226.5 243.5 229.05 240.6Z"/><path fill="#F7D57B" stroke="none" d="M250.5 252.3Q248.55 250.25 247.65 249.35 246.15 247.8 244.9 247.3 243.8 246.8 241.85 246.9 239.5 247.1 238.3 247.1 239.5 251.45 242.45 252.7 245.4 254 250.5 252.3Z"/><path fill="#F7D57B" stroke="none" d="M298.3 238.75Q296.7 229.45 289.7 219.5 282.6 209.4 277.45 209.35 277.55 210.45 277.45 212.65 277.45 214.55 278 215.55 285.6 230.05 298.3 238.75Z"/><path fill="#F7D57B" stroke="none" d="M155.8 176.15L140.05 187.4Q145.75 190.05 152 187 158.25 183.95 159.55 177.9L155.8 176.15Z"/><path fill="#F7D57B" stroke="none" d="M364.2 290.1Q364 291.1 363.6 293.15L365.65 294.2 376.65 284.8Q373.55 283 370.45 283.75 367.35 284.45 365.2 287.35 364.55 288.25 364.2 290.1Z"/><path fill="#F7D57B" stroke="none" d="M385.05 274.4L378.45 277.2 381 281.35 385.95 275.7 385.05 274.4Z"/><path fill="#F7D57B" stroke="none" d="M35.55 166.65Q29.3 169.8 26.15 171.35 35.25 172.95 42.25 170.65 49.25 168.35 50.7 163.45 48.7 162.75 47.7 162.45 45.95 161.85 45.05 162.25 41 163.95 35.55 166.65Z"/><path fill="#F7D57B" stroke="none" d="M66.05 134.4Q63.7 139.95 64.7 143.55 68.7 142.75 71.1 137.05 73.55 131.3 71.95 126.3 68.4 128.8 66.05 134.4Z"/><path fill="#F7D57B" stroke="none" d="M335.5 264.15L356 251.9Q348.9 251.75 341.4 254.9 333.7 258.1 333.1 261.8L335.5 264.15Z"/><g id="chick_feather1" transform="translate(149.55 44.95)"><path fill="#EE9300" stroke="none" d="M72.8 16.2Q71.4 10.15 64.95 5.55 58.25 .75 49.45 .1 39.5 -.7 30.05 4.2 17.95 10.5 7.75 23.45 4.55 27.55 1.95 31.75L0 35.2 10.6 31Q23.8 26.65 36.5 25.95 43.1 25.6 48.9 27 51.25 27.55 57.05 29.65 60.95 31.1 63.1 30.85 66.1 30.55 69.3 27.45 74.35 22.6 72.8 16.2Z"/></g><g id="chick_feather2" transform="translate(138.55 0)"><path fill="#EE9300" stroke="none" d="M52.25 13.7Q51.85 5.55 45.1 2.05 38.75 -1.3 29.85 .8 20.55 2.95 13.2 10.1 4.9 18.2 1.95 30.2 -1.85 45.6 1.75 64.4 3.5 73.85 6.05 80.15 7.35 75.05 10.5 67.65 16.8 52.85 25.9 41.2 30.6 35.15 36.25 31.15 38.55 29.5 44.8 26.1 49 23.75 50.5 21.7 52.5 18.9 52.25 13.7Z"/></g><g id="chick_eye" transform="translate(108.95 139.95)"><g id="chick_eye_g"><animateTransform attributeName="transform" additive="replace" type="translate" repeatCount="indefinite" dur="16.292s" keyTimes="0;.10199;.102;.10499;.105;.30899;.309;.31199;.312;.31999;.32;.32199;.322;1" values="21.85,21.85;21.85,21.85;21.85,21.904;21.85,21.904;21.85,21.85;21.85,21.85;21.85,21.904;21.85,21.904;21.85,21.85;21.85,21.85;21.85,21.904;21.85,21.904;21.85,21.85;21.85,21.85" calcMode="discrete"/><animateTransform attributeName="transform" additive="sum" type="scale" repeatCount="indefinite" dur="16.292s" keyTimes="0;.10199;.102;.10499;.105;.30899;.309;.31199;.312;.31999;.32;.32199;.322;1" values="1,1;1,1;1,.183;1,.183;1,1;1,1;1,.183;1,.183;1,1;1,1;1,.183;1,.183;1,1;1,1" calcMode="discrete"/><animateTransform attributeName="transform" additive="sum" type="translate" repeatCount="indefinite" dur="16.292s" keyTimes="0;.10199;.102;.10499;.105;.30899;.309;.31199;.312;.31999;.32;.32199;.322;1" values="-21.85,-21.85;-21.85,-21.85;-21.85,-22.15;-21.85,-22.15;-21.85,-21.85;-21.85,-21.85;-21.85,-22.15;-21.85,-22.15;-21.85,-21.85;-21.85,-21.85;-21.85,-22.15;-21.85,-22.15;-21.85,-21.85;-21.85,-21.85" calcMode="discrete"/><path fill="#FEFEFD" stroke="none" d="M6.4 6.4Q0 12.8 0 21.85 0 30.95 6.4 37.3 12.8 43.7 21.85 43.7 30.9 43.7 37.3 37.3 43.7 30.9 43.7 21.85 43.7 12.8 37.3 6.4 30.9 0 21.85 0 12.8 0 6.4 6.4Z"/></g></g></g></g><g id="borg_hat" transform="matrix(.342 .033 -.033 .342 162.8 112.4)"><animateTransform attributeName="transform" additive="replace" type="translate" repeatCount="indefinite" dur="3.25s" keyTimes="0;.01299;.013;.02599;.026;.03799;.038;.05099;.051;.06399;.064;.07699;.077;.08999;.09;.10299;.103;.11499;.115;.12799;.128;.14099;.141;.15399;.154;.16699;.167;.17899;.179;.19199;.192;.20499;.205;.21799;.218;.23099;.231;.24399;.244;.25599;.256;.26899;.269;.28199;.282;.29499;.295;.30799;.308;.32099;.321;.34599;.346;.35899;.359;.37199;.372;.38499;.385;.39699;.397;.40999;.41;.42299;.423;.43599;.436;.44899;.449;.46199;.462;.47399;.474;.48699;.487;.49999;.5;.51299;.513;.52599;.526;.53799;.538;.55099;.551;.56399;.564;.57699;.577;.58999;.59;.60299;.603;.61499;.615;.62799;.628;.64099;.641;.65399;.654;.67899;.679;.69199;.692;.70499;.705;.71799;.718;.73099;.731;.74399;.744;.75599;.756;.76899;.769;.78199;.782;.79499;.795;.80799;.808;.82099;.821;.83299;.833;.84599;.846;.85899;.859;.87199;.872;.88499;.885;.89699;.897;.90999;.91;.92299;.923;.93599;.936;.94899;.949;.96199;.962;.97399;.974;.98699;.987;1" values="162.767,112.406;162.767,112.406;162.967,112.755;162.967,112.755;163.117,113.155;163.117,113.155;163.267,113.505;163.267,113.505;163.416,113.855;163.416,113.855;163.566,114.205;163.566,114.205;163.667,114.605;163.667,114.605;163.817,114.955;163.817,114.955;163.966,115.305;163.966,115.305;164.116,115.655;164.116,115.655;164.266,116.056;164.266,116.056;164.367,116.355;164.367,116.355;164.316,116.105;164.316,116.105;164.167,115.855;164.167,115.855;164.067,115.555;164.067,115.555;163.966,115.255;163.966,115.255;163.867,114.955;163.867,114.955;163.717,114.705;163.717,114.705;163.616,114.405;163.616,114.405;163.516,114.106;163.516,114.106;163.366,113.855;163.366,113.855;163.267,113.556;163.267,113.556;163.167,113.255;163.167,113.255;163.066,112.955;163.066,112.955;162.917,112.756;162.917,112.756;162.767,112.406;162.767,112.406;162.967,112.755;162.967,112.755;163.117,113.155;163.117,113.155;163.267,113.505;163.267,113.505;163.416,113.855;163.416,113.855;163.566,114.205;163.566,114.205;163.667,114.605;163.667,114.605;163.817,114.955;163.817,114.955;163.966,115.305;163.966,115.305;164.116,115.655;164.116,115.655;164.266,116.056;164.266,116.056;164.367,116.355;164.367,116.355;164.316,116.105;164.316,116.105;164.167,115.855;164.167,115.855;164.067,115.555;164.067,115.555;163.966,115.255;163.966,115.255;163.867,114.955;163.867,114.955;163.717,114.705;163.717,114.705;163.616,114.405;163.616,114.405;163.516,114.106;163.516,114.106;163.366,113.855;163.366,113.855;163.267,113.556;163.267,113.556;163.167,113.255;163.167,113.255;163.066,112.955;163.066,112.955;162.917,112.756;162.917,112.756;162.767,112.406;162.767,112.406;162.967,112.755;162.967,112.755;163.117,113.155;163.117,113.155;163.267,113.505;163.267,113.505;163.416,113.855;163.416,113.855;163.566,114.205;163.566,114.205;163.667,114.605;163.667,114.605;163.817,114.955;163.817,114.955;163.966,115.305;163.966,115.305;164.116,115.655;164.116,115.655;164.266,116.056;164.266,116.056;164.367,116.355;164.367,116.355;164.316,116.105;164.316,116.105;164.167,115.855;164.167,115.855;164.067,115.555;164.067,115.555;163.966,115.255;163.966,115.255;163.867,114.955;163.867,114.955;163.717,114.705;163.717,114.705;163.616,114.405;163.616,114.405;163.516,114.106;163.516,114.106;163.366,113.855;163.366,113.855;163.267,113.556;163.267,113.556;163.167,113.255;163.167,113.255;163.066,112.955;163.066,112.955;162.917,112.756;162.917,112.756;162.767,112.406;162.767,112.406" calcMode="discrete"/><animateTransform attributeName="transform" additive="sum" type="rotate" repeatCount="indefinite" dur="3.25s" keyTimes="0;1" values="5.551,0,0;5.551,0,0" calcMode="discrete"/><animateTransform attributeName="transform" additive="sum" type="scale" repeatCount="indefinite" dur="3.25s" keyTimes="0;1" values=".344,.344;.344,.344" calcMode="discrete"/><g id="flash0.ai-Assets_Layer-1_.__3CClip-Group.__3E" transform="translate(-6.95 -.5)"><g mask="url(#mask_)" id="Layer9_0_FILL"><path fill="#4D4D4D" stroke="none" d="M220.1 193.05Q220.85 179.8 215 168 209.4 156.65 199.05 149.35 217.15 138.4 230.4 128.3 243.05 118.7 258.85 104.1L272.2 89.4 43.75 212.4 66.4 208.85Q72.7 207 83.25 204.15 92.15 201.6 98.7 198.95 101.65 197.8 108.7 195.25 115.45 192.7 120.35 190.15 120.35 211.35 135.65 226.05 150.95 240.8 172.25 240 191.35 239.25 205.2 225.7 219 212.15 220.1 193.05Z"/><path fill="#B3B3B3" stroke="none" d="M201.75 53.15Q214.65 58.85 224.3 63.85 202.05 43.2 176.55 31.05 158.25 22.3 140.3 18.75 131 16.35 121 16.8 105.3 17.5 92.45 25.55 54.8 49 49.8 128.15 59.15 128.6 63.85 131.65 69.15 135.1 73.25 144.4 72.95 119.1 76.35 97.45 79.2 79.1 83.25 71 96.9 43.65 114.45 37.05 123.05 33.8 134.6 34.3 144.7 34.65 160 38.1 176 41.75 201.75 53.15Z"/><path fill="#808080" stroke="none" d="M224.15 181.1Q224.15 168.7 218.4 157.8 212.8 147.3 203.05 140.35 243.75 115.65 272.2 89.4 235.65 48.7 198.3 25.05 140.15 -11.75 96.35 5.35 69.5 15.8 53.7 42.45 40 65.5 35.35 99.3 31.4 128.1 34.4 160.9 36.95 189.4 43.75 212.4 82.95 199.65 124.35 181.15 124.35 201.8 138.95 216.4 153.6 231 174.25 231 194.9 231 209.55 216.4 224.15 201.8 224.15 181.1Z"/><path fill="#333" stroke="none" d="M62.4 177.3Q58 183.8 56.9 191.85 55.45 202.45 60 214.8 63 222.8 69.05 227.85 75.1 232.85 83.8 234.55 87.75 235.35 92.35 235.35 108.55 235.35 127.1 226.15 145.9 216.85 159.55 201.8L149.2 192.4Q137.7 205.05 121.5 213.25 105.5 221.35 92.4 221.35 89.15 221.35 86.5 220.85 76.5 218.85 73.15 209.9 67.5 194.75 74 185.15L62.4 177.3Z"/><path fill="#333" stroke="none" d="M9.55 108.35Q0 117.05 0 132.9 0 146.1 9 154.65 16.4 161.7 29.45 164.7 37.6 166.55 46.25 166.55L48.5 166.5 47.75 152.5Q41.35 152.8 34.05 151.35 23.65 149.3 18.6 144.45 13.95 140.05 13.95 132.9 13.95 123.35 18.9 118.8 22.35 115.6 28.2 114.65 31.15 114.2 33.4 114.35L34.75 100.4Q30.7 100.05 25.75 100.9 15.95 102.55 9.55 108.35Z"/><path fill="#333" stroke="none" d="M55.9 166.7Q59.05 163.5 59.05 159.05 59.05 154.55 55.9 151.4 52.7 148.25 48.25 148.25 43.8 148.25 40.6 151.4 37.45 154.55 37.45 159.05 37.45 163.5 40.6 166.7 43.8 169.85 48.25 169.85 52.7 169.85 55.9 166.7Z"/><path fill="#333" stroke="none" d="M70.75 189.65Q75.25 189.65 78.4 186.5 81.55 183.3 81.55 178.85 81.55 174.4 78.4 171.2 75.25 168.05 70.75 168.05 66.3 168.05 63.1 171.2 59.95 174.4 59.95 178.85 59.95 183.3 63.1 186.5 66.3 189.65 70.75 189.65Z"/><path fill="#333" stroke="none" d="M151.95 81.45Q155.1 78.25 155.1 73.8 155.1 69.3 151.95 66.15 148.75 63 144.3 63 139.85 63 136.65 66.15 133.5 69.3 133.5 73.8 133.5 78.25 136.65 81.45 139.85 84.6 144.3 84.6 148.75 84.6 151.95 81.45Z"/><path fill="#4D4D4D" stroke="none" d="M182.45 75.25Q172.65 75.25 165.7 82.2 158.75 89.15 158.75 98.95 158.75 108.75 165.7 115.65 172.65 122.6 182.45 122.6 192.25 122.6 199.2 115.65 206.15 108.75 206.15 98.95 206.15 89.15 199.2 82.2 192.25 75.25 182.45 75.25M168.55 85Q174.3 79.25 182.45 79.25 190.6 79.25 196.35 85 202.15 90.8 202.15 98.95 202.15 107.1 196.35 112.85 190.6 118.6 182.45 118.6 174.3 118.6 168.55 112.85 162.75 107.1 162.75 98.95 162.75 90.8 168.55 85Z"/><path fill="#333" stroke="none" d="M183.75 145.85Q183.85 145.15 183.45 144.55 183 144 182.25 143.9L174 142.8Q173.3 142.7 172.75 143.15 172.2 143.55 172.1 144.25L169.55 152.15Q169.4 153.15 168.45 153.7 165.5 154.3 162.8 155.5 162.4 155.25 162.2 154.95L156.05 149.4Q155.65 148.85 154.95 148.75 154.2 148.65 153.65 149.1L147 154.15Q146.45 154.55 146.35 155.3 146.25 156 146.7 156.55L150.45 163.9Q151.05 164.75 150.8 165.75 149.2 168.15 148.1 171.05 147.7 171.2 147.25 171.1L139 171.5Q138.3 171.45 137.75 171.85 137.15 172.3 137.05 173L135.95 181.25Q135.85 181.95 136.3 182.55 136.75 183.15 137.45 183.2L145.3 185.75Q146.35 185.9 146.85 186.8 147.45 189.7 148.65 192.45 148.5 192.85 148.15 193.1L142.55 199.2Q142 199.65 141.9 200.35 141.8 201.05 142.25 201.65L147.3 208.25Q147.7 208.8 148.45 208.9 149.15 209 149.75 208.6L157.1 204.8Q157.9 204.15 158.9 204.5 161.6 206.2 164.2 207.2 164.3 207.45 164.3 208L164.65 216.25Q164.6 216.95 165 217.55 165.45 218.15 166.15 218.2L174.4 219.35Q175.1 219.45 175.7 219 176.3 218.55 176.35 217.85L178.9 210Q179.05 208.95 179.95 208.45 182.65 207.9 185.6 206.6 186.1 206.9 186.25 207.15L192.35 212.7Q192.8 213.25 193.5 213.35 194.25 213.45 194.8 213.05L201.4 208Q201.95 207.55 202.05 206.85 202.15 206.1 201.75 205.55L198 198.2Q197.3 197.35 197.65 196.35 199.45 193.55 200.35 191.05 200.85 190.95 201.2 191L209.45 190.6Q210.15 190.7 210.75 190.25 211.3 189.8 211.4 189.1L212.5 180.85Q212.6 180.15 212.15 179.6 211.7 179 211 178.9L203.15 176.4Q202.1 176.25 201.6 175.3 201.05 172.55 199.75 169.65 200 169.25 200.3 169L205.85 162.9Q206.45 162.5 206.55 161.8 206.6 161.1 206.2 160.5L201.15 153.85Q200.7 153.3 200 153.2 199.25 153.1 198.7 153.55L191.35 157.3Q190.55 157.9 189.5 157.65 187 156 184.2 154.95 184.1 154.4 184.15 154.1L183.75 145.85Z"/><path fill="#4D4D4D" stroke="none" d="M180.3 89.05Q176.85 89.5 174.45 92.05 171.7 95 171.8 99.05 171.95 103.15 174.9 105.9 177.8 108.65 181.9 108.55 185.9 108.4 188.7 105.45 191.1 102.9 191.35 99.35 191.55 95.9 189.55 93.1L236.5 54Q236.5 53.9 233.85 51.65L186.7 90.4Q183.75 88.6 180.3 89.05Z"/><path fill="#4D4D4D" stroke="none" d="M163.6 143Q163.3 142.2 162.6 141.9L141.65 129.7Q141 129.35 140.15 129.6L106.4 143.75Q104.6 140.8 101.35 139.6 98.05 138.35 94.75 139.55 90.95 140.9 89.2 144.55 87.45 148.2 88.75 152.05 90.1 155.85 93.75 157.6 97.45 159.35 101.25 158 104.55 156.85 106.4 153.85 108.2 150.85 107.7 147.45L140.7 133.55 160.15 145.05 166.25 162.35Q163.3 164.15 162.1 167.4 160.9 170.7 162.05 174 163.4 177.8 167.05 179.55 170.7 181.3 174.55 180 178.4 178.65 180.15 175 181.9 171.3 180.55 167.5 179.35 164.2 176.35 162.35 173.35 160.55 169.95 161.05L163.6 143Z"/><path fill="#4D4D4D" stroke="none" d="M98.3 127Q89.4 127 83.05 133.35 76.75 139.65 76.75 148.6 76.75 157.5 83.05 163.8 89.4 170.15 98.3 170.15 107.2 170.15 113.55 163.8 119.85 157.5 119.85 148.6 119.85 139.65 113.55 133.35 107.2 127 98.3 127M85.9 136.15Q91.05 131 98.3 131 105.55 131 110.7 136.15 115.85 141.3 115.85 148.6 115.85 155.85 110.7 161 105.55 166.15 98.3 166.15 91.05 166.15 85.9 161 80.75 155.85 80.75 148.6 80.75 141.3 85.9 136.15Z"/><path fill="#4D4D4D" stroke="none" d="M129.2 97.95Q125.6 96 121.75 97.2 118.4 98.2 116.45 101.15 114.5 104 114.85 107.45L97.3 112.75 76.5 103.85 71.6 86.8Q74.65 85.2 76 82 77.35 78.75 76.35 75.35 75.2 71.5 71.6 69.55 68 67.65 64.15 68.85 60.3 70 58.35 73.6 56.45 77.15 57.6 81.05 58.6 84.4 61.55 86.35 64.45 88.25 67.85 87.95L73 105.75Q73.25 106.5 73.95 106.9L96.15 116.55Q96.85 116.95 97.65 116.7L115.95 111.2Q117.6 114.25 120.8 115.6 124.05 116.95 127.4 115.9 131.3 114.75 133.2 111.2 135.1 107.6 133.95 103.75 132.8 99.85 129.2 97.95Z"/><path fill="#4D4D4D" stroke="none" d="M232.15 90.85Q215.6 71.45 194.1 54.9 173.1 38.7 150.2 27.3 157.5 18.6 164.15 7.7L160.3 6.3Q153.9 16.75 146.5 25.45 116.65 11.25 90 8.1 87 9.6 83.95 11.4L83.9 11.55Q111.6 13.4 143.8 28.6 130.05 44 112.7 54.85 98.85 63.45 83.5 68.8 76.3 71.3 68.65 73.1 63.5 48.15 62.35 30.05 60.35 32.5 58.7 34.8 60.25 52 64.75 73.95 51.1 76.8 39.75 76.8L38.8 80.8 40.1 80.8Q51.5 80.8 65.6 77.9L66.45 81.9 70.35 81.05 69.5 77Q77.45 75.15 84.65 72.65 100.75 67.1 115.15 58.05 133.3 46.65 147.55 30.4 170.3 41.6 191.2 57.7 212.6 74.15 229.1 93.45 236.8 102.45 244.15 112.7L247.3 110.25Q240.4 100.6 232.15 90.85Z"/><path fill="#333" stroke="none" d="M244 40.75Q248.55 30.4 245.35 23.35 243.75 19.75 240.35 17.55 235.95 14.65 228.9 14.4 205.1 13.5 170.8 39.6 159.9 47.9 149.1 58.05 143.4 63.5 139.65 67.5L149.85 77.05Q165.05 60.9 184.2 47.15 211.3 27.75 228.35 28.4 231.75 28.5 232.65 29.25 233.1 30.85 231 35.35 228.75 40.1 225.4 44.3L236.3 53.05Q241.15 47.05 244 40.75Z"/><path fill="#FFF" stroke="none" d="M189.75 196.55Q196.15 190.15 196.15 181.1 196.15 172.05 189.75 165.65 183.35 159.25 174.3 159.25 165.25 159.25 158.85 165.65 152.45 172.05 152.45 181.1 152.45 190.15 158.85 196.55 165.25 202.95 174.3 202.95 183.35 202.95 189.75 196.55Z"/><path fill="#F00" stroke="none" d="M164.85 181.1Q164.85 185.05 167.6 187.8 170.35 190.6 174.3 190.6 178.2 190.6 181 187.8 183.75 185.05 183.75 181.1 183.75 177.2 181 174.45 178.2 171.65 174.3 171.65 170.35 171.65 167.6 174.45 164.85 177.2 164.85 181.1Z"/></g><mask id="mask_"><g><g><g id="Layer8_0_FILL"><path fill="#FFF" stroke="none" d="M272.25 0L0 0 0 240 272.25 240 272.25 0Z" fill-opacity="1"/></g></g></g></mask></g></g></g></svg>