<?xml version="1.0" encoding="utf-8"?><svg id="chickLoop_speech_borg" image-rendering="auto" baseProfile="basic" version="1.1" x="0px" y="0px" width="400" height="400" xmlns="http://www.w3.org/2000/svg" xmlns:xlink="http://www.w3.org/1999/xlink"><defs><g id="chick_all" overflow="visible"><g id="chick_body" transform="translate(63.35 46.8)"><path fill="#EE9300" stroke="none" d="M412.45 266.05Q409.85 258.9 405.95 257.4 402.1 255.9 395.15 259.25 394.1 259.75 380.3 267.05 380.5 266.7 383.4 261.1 385.1 257.75 386.05 255.55 388.65 249.5 386.5 246.2 384.35 242.9 377.8 242.85 354.15 242.7 334.35 250.4 331.25 251.6 318.65 255.95 310.9 227.1 292.3 204.85 272.05 180.65 245.3 172.7 243.95 151.65 233.35 129.8 216.3 94.9 182.8 82.65 148.5 70.15 121.3 75.05 104.2 78.1 86.4 89.7 74.65 97.3 62.65 118.75 58.75 125.65 54.2 136.25 53.6 137.7 51.45 144.65 49.3 151.1 47.75 151.95 34.75 159.05 0 178.5L37.1 196.55Q36.95 199.75 36.3 214.05 35.8 224.35 35.6 230.85 35.05 254.15 37.4 273.8 40.15 296.15 46.85 315.85 60.55 355.95 87.9 383.9 114.4 410.95 154.75 427.7 183.6 439.65 222.3 439.55 241.65 439.5 255.25 437.05 261.8 435.4 274.25 432.45 285.15 429.75 292.3 427.35 309.6 421.55 326.75 413 388.85 381.9 411.4 315.45 420.7 288.4 412.45 266.05Z"/><path fill="#C47800" stroke="none" d="M402.85 287.55Q403.1 283.85 402.85 274.45 366.5 316.85 349.9 336.1 341.5 331 336.95 328.65 325 322.55 319.2 322.65L319.2 322.7 323.4 332.3Q327.45 342.8 326.95 347.15 320.35 349.5 311.65 349.15 311.1 349.15 296.05 347.65 296.95 349.4 303 358.75 307.15 365.1 308.25 369.95 300.65 372.45 289.75 370.95 283.75 370 280.75 369.55 275.35 368.7 271.65 368.6L292.65 386.2Q290.45 387.3 289.65 387.7 288.35 388.35 287.55 388.45 275.8 390.35 269.95 391.2 259.6 392.8 252.3 393.35 239.4 394.35 224.65 391.45 213.65 389.25 197.85 383.95 180 377.95 164.55 366.25 150.55 355.7 137.8 339.85 125.45 324.45 123.9 322.4 117 313.05 112.45 303.45 110.2 298.8 105.2 285 100.7 272.65 100.6 272.7 97.8 281.55 97 287.25 96.1 293.85 97.25 300.4 84.75 287.45 75.55 265.45 74.8 275.1 75.05 282.45 75.35 291.9 77.2 301.2 67.5 292.55 58.95 274.65 55 266.3 48.9 249.5 48.9 266.35 54.7 290.5 61.95 320.8 74.65 342.75 86.5 360.35 108.75 379.5 125.5 393.9 136.55 400.3 156.05 411.65 179.65 417.1 200.4 421.95 225.7 422.5 254.2 423.15 283.95 414.55 312.1 406.45 333.15 393.95 356.85 379.8 373.6 358.9 386.7 342.6 393.9 325.45 401.55 307.3 402.85 287.55Z"/><path fill="#C47800" stroke="none" d="M32.65 179.7Q19.2 179.9 12.1 179.9L46.6 195.1Q47 198.3 46.95 209.9 46.9 219 48.5 224.5 55.35 214.2 58.85 207.15 63.65 197.3 65.4 187.4 61.05 184.4 58.9 183 55.05 180.4 52.35 180.2 44.35 179.6 32.65 179.7Z"/><path fill="#C47800" stroke="none" d="M352 275.85Q346.9 284.5 344.25 288.75 348.1 286.7 355.8 282.6 362.35 278.95 366.6 275.65 377.9 266.75 381 253.45 366.65 255.4 360.35 263.4 356.65 268.2 352 275.85Z"/><path fill="#F3B000" stroke="none" d="M140.05 225.65Q133.55 227.9 129 231.95 121.4 238.7 119 249 117.3 256.45 118 268.55 118.75 280.45 124.25 293.15 128.2 302.25 136.55 315.45 142.05 324 151.4 333.8 156.85 339.5 168.15 350.45 169.15 351.45 170.85 352.55 171.85 353.15 173.85 354.4 169.45 343.7 167.35 338.45 163.55 329.15 161.25 322.7 157.05 310.65 156 306.95 153.55 297.85 153.7 290.05 156.85 293.9 162.65 301.25 167.8 307.7 171.4 311.8 181.2 322.9 194.1 326.05 184.45 311.3 180.2 293.35 176.55 277.85 176.65 258.4L178 257.75 211.3 287.75 212.4 287Q208 275.1 205.9 269.05 202.15 258.3 201.8 250 205.45 253.1 212.3 259.1 218.35 264.3 222.6 267.7 235.45 278 250.2 288.8 252.9 290.75 257.2 293.35 259.6 294.8 264.4 297.65 261.4 290 259.5 286.4 257.6 282.85 254.45 277.5 249.8 269.65 249.25 268.7L250.8 267.05Q255.25 269.55 264.3 274.3 272.3 278.65 277.2 282.35 288.4 290.8 313.55 312.8 308.6 305.4 302.35 296.4 289.85 278.35 283.3 270.4 277.5 263.25 267.75 255.8 259.5 249.4 255.65 246.7 248.75 241.8 242.9 238.8 237.2 235.9 228.05 232.7 217.85 229.25 212.8 227.35 198.8 222.1 182.8 221.2 168.9 220.45 152.3 222.95 144.65 224.1 140.05 225.65Z"/><path fill="#F3B000" stroke="none" d="M299.55 227.95Q292.9 216.8 286.05 209.2 278.85 201.25 274.05 200.25 268.9 214.25 276.05 223.75 281.15 230.45 289.55 240.3 302.05 254.85 303.45 256.5 305.75 259.25 309 263.45 310.85 265.85 314.8 270.95 315.15 254.15 299.55 227.95Z"/><path fill="#F3B000" stroke="none" d="M110.3 182.05Q112.25 185.15 114.8 187.3 119.6 191.35 127.25 193.05 134.6 194.7 142.35 193.75 150.35 192.8 156.35 189.35 162.85 185.7 165.4 179.9 165.4 173.2 160 170.35 158.3 169.5 156.3 169.1L154.6 168.9Q148.7 167.7 140.65 166.8 124.65 164.95 114.25 166.3 111 166.7 109 169.3 107 171.95 107.5 175.1 108.05 178.55 110.3 182.05Z"/><path fill="#F3B000" stroke="none" d="M239.9 373.6Q227.4 370.35 218.6 369.75 214.2 369.45 207.6 369.85 200.3 370.4 196.65 370.55 204.65 377.35 229.25 381.8 254.15 386.3 260.2 381.55 256.1 378.6 250.25 376.55 248.1 375.8 239.9 373.6Z"/><path fill="#F3B000" stroke="none" d="M357.35 289.05Q353.95 291.6 353 295.35 352.1 299.1 353.9 303.4 355.7 302.9 359.7 302.25 363.2 301.5 364.8 300.05 370.4 295.15 376.95 287.7 385.25 278.35 388.7 274.9 390.8 272.8 397.6 264.5 383.55 271.55 376.9 275.6 369.2 280.25 357.35 289.05Z"/><path fill="#F3B000" stroke="none" d="M34.45 164.55Q22.05 170.2 17.05 175 19.95 177 40.2 176.05 60.45 175.1 64.7 172.85 63.4 170.9 62.75 169.95 61.65 168.3 60.65 167.35 58.85 165.6 56.05 163.25 52.9 160.6 51.3 159.25 46.8 158.9 34.45 164.55Z"/><path fill="#F3B000" stroke="none" d="M59.45 143.55Q58.8 144.85 59.3 147.4 59.6 148.85 60.2 151.75L67.1 151.75Q73.4 146.5 76.8 134 80.15 121.55 78.2 110.55 77.8 110.9 76.95 111.5 76.25 112.05 75.95 112.5 73.15 117.65 67.5 127.95 62.65 136.9 59.45 143.55Z"/><path fill="#F3B000" stroke="none" d="M337.6 266.75Q344.65 261.35 350.75 258.25 357 255.1 365.35 252.75 368.75 251.8 377.6 247.5 371.2 245.9 358.3 247.85 349.65 249.2 343.4 251.3 335.65 253.85 329.7 258.1 326.85 260.15 326 261.5 324.5 263.85 325.85 266.85 331.95 271.05 337.6 266.75Z"/><path fill="#F7D57B" stroke="none" d="M129.75 240.5Q127.85 243.05 126.55 246.1 122.2 256.35 124.4 268.35 125.8 276.05 131.5 289.65 131.85 290.45 133.4 291.45 136.4 293.35 136.7 293.6L136.1 288.65Q135.5 282.75 135.2 279.8 134.7 274.55 134.8 270.95 134.95 266.1 138 260.85 140.65 256.45 145.05 255.7 148.95 255.1 154.7 257.25 156.65 251.35 157.6 248.5 159.3 243.4 161.35 240.7 163.5 237.85 167.9 234.55 173.05 231 175.5 229 174.5 228.05 174.4 228.05 151.55 225.75 134.3 236.2 131.9 237.65 129.75 240.5Z"/><path fill="#F7D57B" stroke="none" d="M229.05 240.55Q222.7 234.05 207.4 230.85 192 227.65 184.55 231.4 188.7 235.8 207.65 239.65 226.5 243.45 229.05 240.55Z"/><path fill="#F7D57B" stroke="none" d="M250.5 252.3Q248.55 250.25 247.65 249.35 246.15 247.8 244.9 247.3 243.8 246.8 241.85 246.9 239.5 247.1 238.3 247.1 239.5 251.45 242.45 252.7 245.4 254 250.5 252.3Z"/><path fill="#F7D57B" stroke="none" d="M298.3 238.75Q296.7 229.45 289.7 219.5 282.6 209.4 277.45 209.35 277.55 210.45 277.45 212.65 277.45 214.55 278 215.55 285.6 230.05 298.3 238.75Z"/><path fill="#F7D57B" stroke="none" d="M155.8 176.1L140.05 187.35Q145.75 190 152 186.95 158.25 183.9 159.55 177.85L155.8 176.1Z"/><path fill="#F7D57B" stroke="none" d="M364.2 290.1Q364 291.1 363.6 293.15L365.65 294.2 376.65 284.8Q373.55 283 370.45 283.75 367.35 284.45 365.2 287.35 364.55 288.25 364.2 290.1Z"/><path fill="#F7D57B" stroke="none" d="M385 274.4L378.4 277.2 380.95 281.35 385.9 275.7 385 274.4Z"/><path fill="#F7D57B" stroke="none" d="M35.55 166.65Q29.3 169.8 26.15 171.35 35.25 172.95 42.25 170.65 49.25 168.35 50.7 163.45 48.7 162.75 47.7 162.45 45.95 161.85 45.05 162.25 41 163.95 35.55 166.65Z"/><path fill="#F7D57B" stroke="none" d="M66.05 134.4Q63.7 139.95 64.7 143.55 68.7 142.75 71.1 137.05 73.55 131.3 71.95 126.3 68.4 128.8 66.05 134.4Z"/><path fill="#F7D57B" stroke="none" d="M335.5 264.1L356 251.85Q348.9 251.7 341.4 254.85 333.7 258.05 333.1 261.75L335.5 264.1Z"/><g id="chick_feather1" transform="translate(149.55 44.95)"><path fill="#EE9300" stroke="none" d="M72.8 16.2Q71.4 10.15 64.95 5.55 58.25 .75 49.45 .1 39.5 -.7 30.05 4.2 17.95 10.5 7.75 23.45 4.55 27.55 1.95 31.75L0 35.2 10.6 31Q23.8 26.65 36.5 25.95 43.1 25.6 48.9 27 51.25 27.55 57.05 29.65 60.95 31.1 63.1 30.85 66.1 30.55 69.3 27.45 74.35 22.6 72.8 16.2Z"/></g><g id="chick_feather2" transform="translate(138.55 0)"><path fill="#EE9300" stroke="none" d="M52.25 13.7Q51.85 5.55 45.1 2.05 38.75 -1.3 29.85 .8 20.55 2.95 13.2 10.1 4.9 18.2 1.95 30.2 -1.85 45.6 1.75 64.4 3.5 73.85 6.05 80.15 7.35 75.05 10.5 67.65 16.8 52.85 25.9 41.2 30.6 35.15 36.25 31.15 38.55 29.5 44.8 26.1 49 23.75 50.5 21.7 52.5 18.9 52.25 13.7Z"/></g><g id="chick_eye" transform="translate(108.95 139.95)"><g id="chick_eye_g"><animateTransform attributeName="transform" additive="replace" type="translate" repeatCount="indefinite" dur="16.292s" keyTimes="0;.10199;.102;.10499;.105;.30899;.309;.31199;.312;.31999;.32;.32199;.322;1" values="21.85,21.85;21.85,21.85;21.85,21.904;21.85,21.904;21.85,21.85;21.85,21.85;21.85,21.904;21.85,21.904;21.85,21.85;21.85,21.85;21.85,21.904;21.85,21.904;21.85,21.85;21.85,21.85" calcMode="discrete"/><animateTransform attributeName="transform" additive="sum" type="scale" repeatCount="indefinite" dur="16.292s" keyTimes="0;.10199;.102;.10499;.105;.30899;.309;.31199;.312;.31999;.32;.32199;.322;1" values="1,1;1,1;1,.183;1,.183;1,1;1,1;1,.183;1,.183;1,1;1,1;1,.183;1,.183;1,1;1,1" calcMode="discrete"/><animateTransform attributeName="transform" additive="sum" type="translate" repeatCount="indefinite" dur="16.292s" keyTimes="0;.10199;.102;.10499;.105;.30899;.309;.31199;.312;.31999;.32;.32199;.322;1" values="-21.85,-21.85;-21.85,-21.85;-21.85,-22.15;-21.85,-22.15;-21.85,-21.85;-21.85,-21.85;-21.85,-22.15;-21.85,-22.15;-21.85,-21.85;-21.85,-21.85;-21.85,-22.15;-21.85,-22.15;-21.85,-21.85;-21.85,-21.85" calcMode="discrete"/><path fill="#FEFEFD" stroke="none" d="M6.4 6.4Q0 12.8 0 21.85 0 30.95 6.4 37.3 12.8 43.7 21.85 43.7 30.9 43.7 37.3 37.3 43.7 30.9 43.7 21.85 43.7 12.8 37.3 6.4 30.9 0 21.85 0 12.8 0 6.4 6.4Z"/></g></g></g></g></defs><g id="Scene-1" overflow="visible"><g id="chick_shadow" transform="matrix(.901 0 0 .947 133.95 284.25)"><animateTransform attributeName="transform" additive="replace" type="translate" repeatCount="indefinite" dur="1.667s" keyTimes="0;.02499;.025;.04999;.05;.07499;.075;.09999;.1;.12499;.125;.19999;.2;.22499;.225;.24999;.25;.27499;.275;.29999;.3;.39999;.4;.42499;.425;.44999;.45;.47499;.475;.49999;.5;1" values="191.132,298.124;191.132,298.124;191.144,298.171;191.144,298.171;191.116,298.171;191.116,298.171;191.184,298.221;191.184,298.221;191.246,298.221;191.246,298.221;191.165,298.171;191.165,298.171;189.216,298.249;189.216,298.249;187.223,298.29;187.223,298.29;185.28,298.277;185.28,298.277;183.32,298.236;183.32,298.236;181.297,298.272;181.297,298.272;183.269,298.228;183.269,298.228;185.212,298.208;185.212,298.208;187.217,298.176;187.217,298.176;189.199,298.15;189.199,298.15;191.132,298.124;191.132,298.124" calcMode="discrete"/><animateTransform attributeName="transform" additive="sum" type="scale" repeatCount="indefinite" dur="1.667s" keyTimes="0;.02499;.025;.04999;.05;.07499;.075;.09999;.1;.12499;.125;.19999;.2;.22499;.225;.24999;.25;.27499;.275;.29999;.3;.39999;.4;.42499;.425;.44999;.45;.47499;.475;.49999;.5;1" values=".901,.947;.901,.947;.896,.947;.896,.947;.892,.947;.892,.947;.887,.947;.887,.947;.883,.947;.883,.947;.878,.947;.878,.947;.824,.902;.824,.902;.769,.857;.769,.857;.714,.813;.714,.813;.659,.768;.659,.768;.604,.723;.604,.723;.663,.768;.663,.768;.723,.813;.723,.813;.782,.857;.782,.857;.841,.902;.841,.902;.901,.947;.901,.947" calcMode="discrete"/><animateTransform attributeName="transform" additive="sum" type="translate" repeatCount="indefinite" dur="1.667s" keyTimes="0;.02499;.025;.04999;.05;.09999;.1;.19999;.2;.22499;.225;.27499;.275;.29999;.3;.39999;.4;.42499;.425;.44999;.45;.47499;.475;.49999;.5;1" values="-63.55,-14.7;-63.55,-14.7;-63.6,-14.75;-63.6,-14.75;-63.55,-14.75;-63.55,-14.75;-63.6,-14.75;-63.6,-14.75;-63.65,-14.85;-63.65,-14.85;-63.65,-14.8;-63.65,-14.8;-63.7,-14.7;-63.7,-14.7;-63.9,-14.9;-63.9,-14.9;-63.95,-14.95;-63.95,-14.95;-63.95,-14.9;-63.95,-14.9;-63.9,-14.9;-63.9,-14.9;-63.95,-14.85;-63.95,-14.85;-63.55,-14.7;-63.55,-14.7" calcMode="discrete"/><path fill="#000" fill-opacity=".298" stroke="none" d="M126.4 14.4Q126.4 8.45 107.9 4.2 89.4 0 63.2 0 37 0 18.5 4.2 0 8.45 0 14.4 0 20.35 18.5 24.55 37 28.8 63.2 28.8 89.4 28.8 107.9 24.55 126.4 20.35 126.4 14.4Z"/></g><g id="chick_Legs" transform="matrix(-.298 0 0 .298 200.55 268.9)"><animateTransform attributeName="transform" additive="replace" type="translate" repeatCount="indefinite" dur="1.667s" keyTimes="0;.19999;.2;.22499;.225;.24999;.25;.27499;.275;.29999;.3;.39999;.4;.42499;.425;.44999;.45;.47499;.475;.49999;.5;1" values="200.55,268.9;200.55,268.9;199.25,265.85;199.25,265.85;197.95,262.85;197.95,262.85;196.65,259.849;196.65,259.849;195.35,256.849;195.35,256.849;194.05,253.9;194.05,253.9;195.3,256.9;195.3,256.9;196.6,259.9;196.6,259.9;197.9,262.9;197.9,262.9;199.2,265.9;199.2,265.9;200.55,268.9;200.55,268.9" calcMode="discrete"/><animateTransform attributeName="transform" additive="sum" type="skewY" repeatCount="indefinite" dur="1.667s" keyTimes="0;1" values="180;180" calcMode="discrete"/><animateTransform attributeName="transform" additive="sum" type="scale" repeatCount="indefinite" dur="1.667s" keyTimes="0;1" values=".298,.298;.298,.298" calcMode="discrete"/><animateTransform attributeName="transform" additive="sum" type="scale" repeatCount="indefinite" dur="1.667s" keyTimes="0;1" values="-1,1;-1,1" calcMode="discrete"/><path id="Layer4_0_1_STROKES" stroke="#EE9300" stroke-width="17" stroke-linejoin="round" stroke-linecap="round" fill="none" d="M5.05 67.8L51.35 83.05M38.4 120.75L83.95 0M0 100L50.6 84.15M-71.15 55.3L-24.85 70.55M-76.2 87.5L-25.6 71.65M-37.8 108.25L7.75 -12.5"/></g><g display="none"><use xlink:href="#chick_all" transform="matrix(-.349 0 0 .349 281.2 105)"/><animate attributeName="display" repeatCount="indefinite" dur="1.667s" keyTimes="0;.5;1" values="none;inline;inline"/></g><g display="none"><use xlink:href="#chick_all" transform="matrix(-.349 0 0 .349 283.45 108.35)"><animateTransform attributeName="transform" additive="replace" type="translate" repeatCount="indefinite" dur="1.667s" keyTimes="0;.19999;.2;.22499;.225;.24999;.25;.27499;.275;.29999;.3;.39999;.4;.42499;.425;.44999;.45;.47499;.475;1" values="283.45,108.35;283.45,108.35;279.854,104.995;279.854,104.995;276.254,101.695;276.254,101.695;272.654,98.395;272.654,98.395;269.054,95.095;269.054,95.095;265.45,91.85;265.45,91.85;268.554,94.495;268.554,94.495;271.704,97.095;271.704,97.095;274.854,99.746;274.854,99.746;278.004,102.346;278.004,102.346" calcMode="discrete"/><animateTransform attributeName="transform" additive="sum" type="skewY" repeatCount="indefinite" dur="1.667s" keyTimes="0;1" values="180;180" calcMode="discrete"/><animateTransform attributeName="transform" additive="sum" type="scale" repeatCount="indefinite" dur="1.667s" keyTimes="0;1" values=".349,.349;.349,.349" calcMode="discrete"/><animateTransform attributeName="transform" additive="sum" type="scale" repeatCount="indefinite" dur="1.667s" keyTimes="0;1" values="-1,1;-1,1" calcMode="discrete"/></use><animate attributeName="display" repeatCount="indefinite" dur="1.667s" keyTimes="0;.125;.5;1" values="none;inline;none;none"/></g><g><use xlink:href="#chick_all" transform="matrix(-.349 0 0 .349 281.2 105)"><animateTransform attributeName="transform" additive="replace" type="translate" repeatCount="indefinite" dur="1.667s" keyTimes="0;.02499;.025;.04999;.05;.07499;.075;.09999;.1;1" values="281.2,105;281.2,105;281.604,105.646;281.604,105.646;282.054,106.346;282.054,106.346;282.504,106.995;282.504,106.995;282.954,107.695;282.954,107.695" calcMode="discrete"/><animateTransform attributeName="transform" additive="sum" type="skewY" repeatCount="indefinite" dur="1.667s" keyTimes="0;1" values="180;180" calcMode="discrete"/><animateTransform attributeName="transform" additive="sum" type="scale" repeatCount="indefinite" dur="1.667s" keyTimes="0;1" values=".349,.349;.349,.349" calcMode="discrete"/><animateTransform attributeName="transform" additive="sum" type="scale" repeatCount="indefinite" dur="1.667s" keyTimes="0;1" values="-1,1;-1,1" calcMode="discrete"/></use><animate attributeName="display" repeatCount="indefinite" dur="1.667s" keyTimes="0;.125;1" values="inline;none;none"/></g><g display="none"><g id="chick_beak" transform="matrix(1 -.027 .027 1 223.1 154.4)"><animateTransform attributeName="transform" additive="replace" type="translate" repeatCount="indefinite" dur="1.667s" keyTimes="0;.39999;.4;.42499;.425;.44999;.45;.47499;.475;.49999;.5;1" values="222.943,167.405;222.943,167.405;225.028,170.47;225.028,170.47;227.112,173.383;227.112,173.383;229.002,176.334;229.002,176.334;231.097,179.271;231.097,179.271;233.117,182.13;233.117,182.13" calcMode="discrete"/><animateTransform attributeName="transform" additive="sum" type="rotate" repeatCount="indefinite" dur="1.667s" keyTimes="0;.39999;.4;.42499;.425;.44999;.45;.47499;.475;.49999;.5;1" values="-1.541,0,0;-1.541,0,0;6.009,0,0;6.009,0,0;13.56,0,0;13.56,0,0;21.113,0,0;21.113,0,0;28.664,0,0;28.664,0,0;36.216,0,0;36.216,0,0" calcMode="discrete"/><animateTransform attributeName="transform" additive="sum" type="scale" repeatCount="indefinite" dur="1.667s" keyTimes="0;.42499;.425;.47499;.475;1" values="1,1;1,1;1,.999;1,.999;.998,.998;.998,.998" calcMode="discrete"/><animateTransform attributeName="transform" additive="sum" type="translate" repeatCount="indefinite" dur="1.667s" keyTimes="0;.39999;.4;.42499;.425;.44999;.45;.47499;.475;.49999;.5;1" values=".45,-13;.45,-13;.5,-13.15;.5,-13.15;.4,-13.05;.4,-13.05;.5,-13.05;.5,-13.05;.45,-13.1;.45,-13.1;.5,-13.05;.5,-13.05" calcMode="discrete"/><animate attributeName="opacity" repeatCount="indefinite" dur="1.667s" keyTimes="0;.39999;.4;.42499;.425;.44999;.45;.47499;.475;.49999;.5;1" values="1;1;.8;.8;.6;.6;.4;.4;.2;.2;0;0" calcMode="discrete"/><path fill="#EE9300" stroke="none" d="M0 1.5L.4 7.75 -4 16.5 15.65 15.9 7.6 10.95 19.6 0 0 1.5Z"/><path id="Layer3_0_1_STROKES" stroke="#FFF" stroke-opacity="0" stroke-width="1" stroke-linejoin="round" stroke-linecap="round" fill="none" d="M7.6 10.95L15.65 15.9"/><g transform="matrix(-.272 .212 .212 .272 0 0)" id="Layer1_0_FILL"><path fill="#F3B000" stroke="none" d="M15.05 1.1Q12.65 .85 8.1 2 3.6 3.05 2.4 4.1 2.3 4.8 2 6.2 1.7 7.4 1.6 8.3 1.5 8.75 1.55 9.45 1.6 9.85 1.7 10.65 3.3 10.35 9 6.3 14.7 2.25 15.05 1.1Z"/></g><g transform="matrix(-.272 .212 .212 .272 0 0)" id="Layer2_0_FILL"><path fill="#F7D57B" stroke="none" d="M11.85 2.15Q10.65 2.35 8.3 2.8 6.2 3.3 4.75 3.65 4.4 3.75 4.1 4.3 3.9 4.55 3.5 5.2 4.95 6.25 7.35 5.35 9.7 4.5 11.85 2.15Z"/></g></g><animate attributeName="display" repeatCount="indefinite" dur="1.667s" keyTimes="0;.3;1" values="none;inline;inline"/></g><g id="borg_hat" transform="matrix(.342 .033 -.033 .342 158.85 110.9)"><animateTransform attributeName="transform" additive="replace" type="translate" repeatCount="indefinite" dur="1.667s" keyTimes="0;.02499;.025;.04999;.05;.07499;.075;.09999;.1;.12499;.125;.19999;.2;.22499;.225;.24999;.25;.27499;.275;.29999;.3;.39999;.4;.42499;.425;.44999;.45;.47499;.475;.49999;.5;1" values="203.649,159.849;203.649,159.849;204.412,161.152;204.412,161.152;205.093,162.418;205.093,162.418;205.862,163.602;205.862,163.602;206.562,164.852;206.562,164.852;207.199,166.049;207.199,166.049;203.543,161.018;203.543,161.018;199.862,155.902;199.862,155.902;196.143,150.818;196.143,150.818;192.462,145.702;192.462,145.702;188.713,140.563;188.713,140.563;191.792,144.463;191.792,144.463;194.793,148.318;194.793,148.318;197.743,152.218;197.743,152.218;200.76,156.07;200.76,156.07;203.649,159.849;203.649,159.849" calcMode="discrete"/><animateTransform attributeName="transform" additive="sum" type="rotate" repeatCount="indefinite" dur="1.667s" keyTimes="0;.02499;.025;.12499;.125;.19999;.2;.29999;.3;.39999;.4;.49999;.5;1" values="5.503,0,0;5.503,0,0;5.501,0,0;5.501,0,0;5.503,0,0;5.503,0,0;5.501,0,0;5.501,0,0;5.503,0,0;5.503,0,0;5.501,0,0;5.501,0,0;5.503,0,0;5.503,0,0" calcMode="discrete"/><animateTransform attributeName="transform" additive="sum" type="scale" repeatCount="indefinite" dur="1.667s" keyTimes="0;1" values=".344,.344;.344,.344" calcMode="discrete"/><animateTransform attributeName="transform" additive="sum" type="translate" repeatCount="indefinite" dur="1.667s" keyTimes="0;.02499;.025;.04999;.05;.07499;.075;.12499;.125;.19999;.2;.22499;.225;.24999;.25;.27499;.275;.29999;.3;.39999;.4;.42499;.425;.47499;.475;.49999;.5;1" values="-143.6,-129.3;-143.6,-129.3;-143.8,-129.45;-143.8,-129.45;-143.75,-129.5;-143.75,-129.5;-143.8,-129.45;-143.8,-129.45;-143.6,-129.3;-143.6,-129.3;-143.75,-129.5;-143.75,-129.5;-143.8,-129.45;-143.8,-129.45;-143.75,-129.5;-143.75,-129.5;-143.8,-129.45;-143.8,-129.45;-143.5,-129.35;-143.5,-129.35;-143.6,-129.5;-143.6,-129.5;-143.75,-129.5;-143.75,-129.5;-143.8,-129.5;-143.8,-129.5;-143.6,-129.3;-143.6,-129.3" calcMode="discrete"/><g id="flash0.ai-Assets_Layer-1_.__3CClip-Group.__3E" transform="translate(-6.95 -.5)"><g mask="url(#mask_)" id="Layer7_0_FILL"><path fill="#4D4D4D" stroke="none" d="M220.1 193.05Q220.85 179.8 215 168 209.4 156.65 199.05 149.35 217.15 138.4 230.4 128.3 243.05 118.7 258.85 104.1L272.2 89.4 43.75 212.4 66.4 208.85Q72.7 207 83.25 204.15 92.15 201.6 98.7 198.95 101.65 197.8 108.7 195.25 115.45 192.7 120.35 190.15 120.35 211.35 135.65 226.05 150.95 240.8 172.25 240 191.35 239.25 205.2 225.7 219 212.15 220.1 193.05Z"/><path fill="#B3B3B3" stroke="none" d="M201.75 53.15Q214.65 58.85 224.3 63.85 202.05 43.2 176.55 31.05 158.25 22.3 140.3 18.75 131 16.35 121 16.8 105.3 17.5 92.45 25.55 54.8 49 49.8 128.15 59.15 128.6 63.85 131.65 69.15 135.1 73.25 144.4 72.95 119.1 76.35 97.45 79.2 79.1 83.25 71 96.9 43.65 114.45 37.05 123.05 33.8 134.6 34.3 144.7 34.65 160 38.1 176 41.75 201.75 53.15Z"/><path fill="#808080" stroke="none" d="M224.15 181.1Q224.15 168.7 218.4 157.8 212.8 147.3 203.05 140.35 243.75 115.65 272.2 89.4 235.65 48.7 198.3 25.05 140.15 -11.75 96.35 5.35 69.5 15.8 53.7 42.45 40 65.5 35.35 99.3 31.4 128.1 34.4 160.9 36.95 189.4 43.75 212.4 82.95 199.65 124.35 181.15 124.35 201.8 138.95 216.4 153.6 231 174.25 231 194.9 231 209.55 216.4 224.15 201.8 224.15 181.1Z"/><path fill="#333" stroke="none" d="M62.4 177.3Q58 183.8 56.9 191.85 55.45 202.45 60 214.8 63 222.8 69.05 227.85 75.1 232.85 83.8 234.55 87.75 235.35 92.35 235.35 108.55 235.35 127.1 226.15 145.9 216.85 159.55 201.8L149.2 192.4Q137.7 205.05 121.5 213.25 105.5 221.35 92.4 221.35 89.15 221.35 86.5 220.85 76.5 218.85 73.15 209.9 67.5 194.75 74 185.15L62.4 177.3Z"/><path fill="#333" stroke="none" d="M9.55 108.35Q0 117.05 0 132.9 0 146.1 9 154.65 16.4 161.7 29.45 164.7 37.6 166.55 46.25 166.55L48.5 166.5 47.75 152.5Q41.35 152.8 34.05 151.35 23.65 149.3 18.6 144.45 13.95 140.05 13.95 132.9 13.95 123.35 18.9 118.8 22.35 115.6 28.2 114.65 31.15 114.2 33.4 114.35L34.75 100.4Q30.7 100.05 25.75 100.9 15.95 102.55 9.55 108.35Z"/><path fill="#333" stroke="none" d="M55.9 166.7Q59.05 163.5 59.05 159.05 59.05 154.55 55.9 151.4 52.7 148.25 48.25 148.25 43.8 148.25 40.6 151.4 37.45 154.55 37.45 159.05 37.45 163.5 40.6 166.7 43.8 169.85 48.25 169.85 52.7 169.85 55.9 166.7Z"/><path fill="#333" stroke="none" d="M70.75 189.65Q75.25 189.65 78.4 186.5 81.55 183.3 81.55 178.85 81.55 174.4 78.4 171.2 75.25 168.05 70.75 168.05 66.3 168.05 63.1 171.2 59.95 174.4 59.95 178.85 59.95 183.3 63.1 186.5 66.3 189.65 70.75 189.65Z"/><path fill="#333" stroke="none" d="M151.95 81.5Q155.1 78.3 155.1 73.85 155.1 69.35 151.95 66.2 148.75 63.05 144.3 63.05 139.85 63.05 136.65 66.2 133.5 69.35 133.5 73.85 133.5 78.3 136.65 81.5 139.85 84.65 144.3 84.65 148.75 84.65 151.95 81.5Z"/><path fill="#4D4D4D" stroke="none" d="M182.45 75.25Q172.65 75.25 165.7 82.2 158.75 89.15 158.75 98.95 158.75 108.75 165.7 115.65 172.65 122.6 182.45 122.6 192.25 122.6 199.2 115.65 206.15 108.75 206.15 98.95 206.15 89.15 199.2 82.2 192.25 75.25 182.45 75.25M168.55 85Q174.3 79.25 182.45 79.25 190.6 79.25 196.35 85 202.15 90.8 202.15 98.95 202.15 107.1 196.35 112.85 190.6 118.6 182.45 118.6 174.3 118.6 168.55 112.85 162.75 107.1 162.75 98.95 162.75 90.8 168.55 85Z"/><path fill="#333" stroke="none" d="M183.75 145.85Q183.85 145.15 183.45 144.55 183 144 182.25 143.9L174 142.8Q173.3 142.7 172.75 143.15 172.2 143.55 172.1 144.25L169.55 152.15Q169.4 153.15 168.45 153.7 165.5 154.3 162.8 155.5 162.4 155.25 162.2 154.95L156.05 149.4Q155.65 148.85 154.95 148.75 154.2 148.65 153.65 149.1L147 154.15Q146.45 154.55 146.35 155.3 146.25 156 146.7 156.55L150.45 163.9Q151.05 164.75 150.8 165.75 149.2 168.15 148.1 171.05 147.7 171.2 147.25 171.1L139 171.5Q138.3 171.45 137.75 171.85 137.15 172.3 137.05 173L135.95 181.25Q135.85 181.95 136.3 182.55 136.75 183.15 137.45 183.2L145.3 185.75Q146.35 185.9 146.85 186.8 147.45 189.7 148.65 192.45 148.5 192.85 148.15 193.1L142.55 199.2Q142 199.65 141.9 200.35 141.8 201.05 142.25 201.65L147.3 208.25Q147.7 208.8 148.45 208.9 149.15 209 149.75 208.6L157.1 204.8Q157.9 204.15 158.9 204.5 161.6 206.2 164.2 207.2 164.3 207.45 164.3 208L164.65 216.25Q164.6 216.95 165 217.55 165.45 218.15 166.15 218.2L174.4 219.35Q175.1 219.45 175.7 219 176.3 218.55 176.35 217.85L178.9 210Q179.05 208.95 179.95 208.45 182.65 207.9 185.6 206.6 186.1 206.9 186.25 207.15L192.35 212.7Q192.8 213.25 193.5 213.35 194.25 213.45 194.8 213.05L201.4 208Q201.95 207.55 202.05 206.85 202.15 206.1 201.75 205.55L198 198.2Q197.3 197.35 197.65 196.35 199.45 193.55 200.35 191.05 200.85 190.95 201.2 191L209.45 190.6Q210.15 190.7 210.75 190.25 211.3 189.8 211.4 189.1L212.5 180.85Q212.6 180.15 212.15 179.6 211.7 179 211 178.9L203.15 176.4Q202.1 176.25 201.6 175.3 201.05 172.55 199.75 169.65 200 169.25 200.3 169L205.85 162.9Q206.45 162.5 206.55 161.8 206.6 161.1 206.2 160.5L201.15 153.85Q200.7 153.3 200 153.2 199.25 153.1 198.7 153.55L191.35 157.3Q190.55 157.9 189.5 157.65 187 156 184.2 154.95 184.1 154.4 184.15 154.1L183.75 145.85Z"/><path fill="#4D4D4D" stroke="none" d="M180.3 89.05Q176.85 89.5 174.45 92.05 171.7 95 171.8 99.05 171.95 103.15 174.9 105.9 177.8 108.65 181.9 108.55 185.9 108.4 188.7 105.45 191.1 102.9 191.35 99.35 191.55 95.9 189.55 93.1L236.5 54Q236.5 53.9 233.85 51.65L186.7 90.4Q183.75 88.6 180.3 89.05Z"/><path fill="#4D4D4D" stroke="none" d="M163.6 143Q163.3 142.2 162.6 141.9L141.65 129.7Q141 129.35 140.15 129.6L106.4 143.75Q104.6 140.8 101.35 139.6 98.05 138.35 94.75 139.55 90.95 140.9 89.2 144.55 87.45 148.2 88.75 152.05 90.1 155.85 93.75 157.6 97.45 159.35 101.25 158 104.55 156.85 106.4 153.85 108.2 150.85 107.7 147.45L140.7 133.55 160.15 145.05 166.25 162.35Q163.3 164.15 162.1 167.4 160.9 170.7 162.05 174 163.4 177.8 167.05 179.55 170.7 181.3 174.55 180 178.4 178.65 180.15 175 181.9 171.3 180.55 167.5 179.35 164.2 176.35 162.35 173.35 160.55 169.95 161.05L163.6 143Z"/><path fill="#4D4D4D" stroke="none" d="M98.3 127Q89.4 127 83.05 133.35 76.75 139.65 76.75 148.6 76.75 157.5 83.05 163.8 89.4 170.15 98.3 170.15 107.2 170.15 113.55 163.8 119.85 157.5 119.85 148.6 119.85 139.65 113.55 133.35 107.2 127 98.3 127M85.9 136.15Q91.05 131 98.3 131 105.55 131 110.7 136.15 115.85 141.3 115.85 148.6 115.85 155.85 110.7 161 105.55 166.15 98.3 166.15 91.05 166.15 85.9 161 80.75 155.85 80.75 148.6 80.75 141.3 85.9 136.15Z"/><path fill="#4D4D4D" stroke="none" d="M129.2 97.95Q125.6 96 121.75 97.2 118.4 98.2 116.45 101.15 114.5 104 114.85 107.45L97.3 112.75 76.5 103.85 71.6 86.8Q74.65 85.2 76 82 77.35 78.75 76.35 75.35 75.2 71.5 71.6 69.55 68 67.65 64.15 68.85 60.3 70 58.35 73.6 56.45 77.15 57.6 81.05 58.6 84.4 61.55 86.35 64.45 88.25 67.85 87.95L73 105.75Q73.25 106.5 73.95 106.9L96.15 116.55Q96.85 116.95 97.65 116.7L115.95 111.2Q117.6 114.25 120.8 115.6 124.05 116.95 127.4 115.9 131.3 114.75 133.2 111.2 135.1 107.6 133.95 103.75 132.8 99.85 129.2 97.95Z"/><path fill="#4D4D4D" stroke="none" d="M232.15 90.85Q215.6 71.45 194.1 54.9 173.1 38.7 150.2 27.3 157.5 18.6 164.15 7.7L160.3 6.3Q153.9 16.75 146.5 25.45 116.65 11.25 90 8.1 87 9.6 83.95 11.4L83.9 11.55Q111.6 13.4 143.8 28.6 130.05 44 112.7 54.85 98.85 63.45 83.5 68.8 76.3 71.3 68.65 73.1 63.5 48.15 62.35 30.05 60.35 32.5 58.7 34.8 60.25 52 64.75 73.95 51.1 76.8 39.75 76.8L38.8 80.8 40.1 80.8Q51.5 80.8 65.6 77.9L66.45 81.9 70.35 81.05 69.5 77Q77.45 75.15 84.65 72.65 100.75 67.1 115.15 58.05 133.3 46.65 147.55 30.4 170.3 41.6 191.2 57.7 212.6 74.15 229.1 93.45 236.8 102.45 244.15 112.7L247.3 110.25Q240.4 100.6 232.15 90.85Z"/><path fill="#333" stroke="none" d="M244 40.75Q248.55 30.4 245.35 23.35 243.75 19.75 240.35 17.55 235.95 14.65 228.9 14.4 205.1 13.5 170.8 39.6 159.9 47.9 149.1 58.05 143.4 63.5 139.65 67.5L149.85 77.05Q165.05 60.9 184.2 47.15 211.3 27.75 228.35 28.4 231.75 28.5 232.65 29.25 233.1 30.85 231 35.35 228.75 40.1 225.4 44.3L236.3 53.05Q241.15 47.05 244 40.75Z"/><path fill="#FFF" stroke="none" d="M189.75 196.55Q196.15 190.15 196.15 181.1 196.15 172.05 189.75 165.65 183.35 159.25 174.3 159.25 165.25 159.25 158.85 165.65 152.45 172.05 152.45 181.1 152.45 190.15 158.85 196.55 165.25 202.95 174.3 202.95 183.35 202.95 189.75 196.55Z"/><path fill="#F00" stroke="none" d="M164.85 181.1Q164.85 185.05 167.6 187.8 170.35 190.6 174.3 190.6 178.2 190.6 181 187.8 183.75 185.05 183.75 181.1 183.75 177.2 181 174.45 178.2 171.65 174.3 171.65 170.35 171.65 167.6 174.45 164.85 177.2 164.85 181.1Z"/></g><mask id="mask_"><g><g><g id="Layer6_0_FILL"><path fill="#FFF" stroke="none" d="M272.25 0L0 0 0 240 272.25 240 272.25 0Z" fill-opacity="1"/></g></g></g></mask></g></g></g></svg>