<svg xmlns="http://www.w3.org/2000/svg" viewBox="0 0 35.313 35.313"><path d="M31.243 0h-19.91a4.074 4.074 0 0 0-4.07 4.07V17.28H4.07A4.074 4.074 0 0 0 0 21.351v9.892a4.074 4.074 0 0 0 4.07 4.07h9.892a4.074 4.074 0 0 0 4.07-4.07V28.05h13.211a4.074 4.074 0 0 0 4.07-4.07V4.07A4.074 4.074 0 0 0 31.243 0ZM14.526 31.244c0 .31-.253.563-.564.563H4.07a.564.564 0 0 1-.564-.563V21.35c0-.31.253-.564.564-.564h3.193v3.194a4.074 4.074 0 0 0 4.07 4.07h3.193v3.193Zm17.28-7.263c0 .31-.252.563-.563.563h-19.91a.564.564 0 0 1-.564-.563V4.07c0-.31.253-.564.564-.564h19.91c.31 0 .564.253.564.564v19.91Z"/></svg>