<svg xmlns="http://www.w3.org/2000/svg" id="Layer_2" viewBox="0 0 33.956 34.476"><g id="Layer_4"><path d="M30.273 25.1a1.613 1.613 0 0 0-1.47-.95h-5.872a82.739 82.739 0 0 1-4.097 4.926l-1.842 2.033-1.841-2.033a82.739 82.739 0 0 1-4.098-4.926h-5.9c-.635 0-1.21.372-1.47.951L.088 33.088a.984.984 0 0 0 .898 1.388H32.97a.984.984 0 0 0 .898-1.388L30.273 25.1Z" class="cls-1"/><path d="M16.992 27.408s1.185-1.308 2.75-3.258c3.057-3.806 7.569-10.062 7.569-13.831C27.31 4.619 22.69 0 16.992 0S6.673 4.62 6.673 10.319c0 3.769 4.512 10.025 7.569 13.831a79.831 79.831 0 0 0 2.75 3.258ZM13.48 15.585c-.15-.114-.26-.233-.326-.357s-.098-.282-.098-.477c0-.265.079-.495.238-.69s.345-.291.557-.291c.114 0 .225.017.33.053.107.036.24.102.398.199.363.203.723.35 1.08.437.359.088.763.133 1.213.133.522 0 .916-.077 1.187-.232a.743.743 0 0 0 .403-.683c0-.203-.125-.378-.377-.523s-.731-.29-1.438-.431c-.874-.186-1.56-.406-2.054-.662-.495-.257-.842-.559-1.041-.908-.198-.349-.298-.77-.298-1.266 0-.565.168-1.078.504-1.537.336-.46.797-.82 1.385-1.08s1.248-.392 1.981-.392c.645 0 1.219.071 1.723.213.504.14.963.362 1.378.662.159.115.272.237.338.364.066.13.1.286.1.471 0 .265-.078.495-.232.69-.155.194-.338.29-.55.29-.115 0-.222-.014-.318-.045a2.16 2.16 0 0 1-.411-.206c-.044-.027-.17-.095-.378-.205-.207-.11-.45-.199-.729-.265s-.581-.1-.908-.1c-.45 0-.813.086-1.086.26-.274.171-.411.399-.411.68 0 .169.048.306.145.412.098.106.279.21.544.311.265.102.658.205 1.179.312.849.185 1.516.41 2.002.669.485.26.83.563 1.033.908s.305.751.305 1.219c0 .584-.163 1.098-.49 1.544-.328.446-.785.79-1.372 1.034-.587.243-1.27.364-2.047.364a7.943 7.943 0 0 1-1.968-.231c-.606-.156-1.103-.37-1.491-.644Z" class="cls-1"/></g></svg>