<svg xmlns="http://www.w3.org/2000/svg" xml:space="preserve" style="enable-background:new 0 0 24 19.9" viewBox="0 0 24 19.9"><path d="M10 18.2c-.2 0-.4-.1-.6-.2l-6.7-4.5c-.5-.3-.6-.9-.3-1.4l2.5-3.8c.2-.2.4-.4.7-.4h.1c.3 0 .6.1.8.3l3.4 3.1 6.8-9.1c.2-.2.5-.4.8-.4.3 0 .6.1.8.4l3.3 4c.3.4.3 1-.1 1.3L10.7 17.9c-.2.2-.5.3-.7.3z" style="fill:#f7ef1d"/><path d="m17.4 2.7 3.3 4L10 17.2l-6.7-4.5 2.5-3.8 4.2 3.8 7.4-10m0-2c-.7 0-1.2.3-1.6.8L9.7 9.8 7.1 7.4c-.3-.3-.8-.5-1.3-.5h-.2c-.6.1-1.2.4-1.5.9l-2.5 3.8c-.6.9-.4 2.2.5 2.8l6.7 4.5c.3.2.7.3 1.1.3.5 0 1-.2 1.4-.6L22.1 8.1c.7-.7.8-1.9.1-2.7l-3.3-4c-.3-.4-.9-.7-1.5-.7z" style="fill:#0c576f"/></svg>