<svg xmlns="http://www.w3.org/2000/svg" viewBox="0 0 33.956 34.086"><path d="m32.988 14.471-2.331-.412c-.48-.068-.892-.48-1.03-.891a17.065 17.065 0 0 0-.754-1.989c-.205-.411-.205-.96.138-1.372l1.44-1.92a1.245 1.245 0 0 0-.137-1.577l-1.098-1.166-1.097-1.166a1.245 1.245 0 0 0-1.577-.137l-1.92 1.371c-.412.275-.96.343-1.372.069a9.532 9.532 0 0 0-1.92-.823 1.254 1.254 0 0 1-.892-1.029l-.343-2.4C20.026.41 19.478 0 18.929 0h-3.155c-.617 0-1.097.411-1.234 1.029l-.412 2.332c-.069.48-.48.891-.96 1.028-.686.206-1.372.48-2.058.823-.411.206-.96.206-1.371-.137l-1.92-1.44a1.245 1.245 0 0 0-1.578.137L5.075 4.869 3.91 5.967a1.245 1.245 0 0 0-.137 1.577l1.372 1.989c.274.412.274.96.068 1.372a10.125 10.125 0 0 0-.823 1.989c-.137.48-.548.823-1.028.891l-2.332.343C.48 14.197 0 14.745 0 15.294v3.155c0 .617.412 1.097 1.029 1.234l2.332.412c.48.068.891.411 1.028.891.206.686.48 1.372.755 1.99.205.41.205.96-.137 1.371l-1.44 1.92a1.245 1.245 0 0 0 .136 1.578l1.098 1.166 1.097 1.166c.412.411 1.097.48 1.578.137l1.988-1.372c.412-.274.96-.274 1.372-.069.617.343 1.303.618 1.989.823.48.138.823.55.892 1.03l.343 2.331c.068.617.617 1.029 1.165 1.029h3.155c.617 0 1.098-.412 1.235-1.029l.411-2.332c.069-.48.48-.891.892-1.029.617-.205 1.303-.48 1.852-.754.411-.206.96-.206 1.371.137l1.92 1.44c.48.343 1.166.275 1.578-.137l1.166-1.097 1.166-1.097c.411-.412.48-1.098.137-1.578l-1.372-1.92c-.274-.412-.274-.96-.068-1.372a9.533 9.533 0 0 0 .823-1.92c.137-.48.548-.823 1.028-.892l2.4-.343c.618-.068 1.03-.617 1.03-1.166v-3.154c.068-.755-.343-1.303-.96-1.372ZM16.94 23.935c-3.84 0-6.995-3.154-6.995-6.995s3.154-6.995 6.995-6.995 6.995 3.154 6.995 6.995-3.154 6.995-6.995 6.995Z"/></svg>