<svg xmlns="http://www.w3.org/2000/svg" id="Layer_2" viewBox="0 0 43.927 30.364"><g id="Layer_4"><path d="m38.849 15.363-.008-.002a6.921 6.921 0 0 0-.34-.086l-.034-.008a6.956 6.956 0 0 0-.32-.063l-.056-.01a6.98 6.98 0 0 0-.308-.043l-.069-.008a7.047 7.047 0 0 0-.312-.026l-.067-.005a7.063 7.063 0 0 0-.378-.011h-.08a6.26 6.26 0 0 0-4.893-11.438 10.81 10.81 0 0 1 .933 4.402c0 1.95-.527 3.832-1.48 5.468 3.902 1.977 6.478 6.035 6.478 10.524v2.91h6.012v-4.896a6.972 6.972 0 0 0-5.078-6.708ZM5.079 15.363l.007-.002c.112-.032.226-.06.34-.086l.035-.008c.105-.024.212-.044.32-.063l.055-.01a6.98 6.98 0 0 1 .308-.043l.07-.008c.103-.012.207-.02.311-.026l.067-.005c.125-.007.251-.011.379-.011h.08a6.26 6.26 0 0 1 4.893-11.438 10.81 10.81 0 0 0-.934 4.402c0 1.95.527 3.832 1.48 5.468-3.902 1.977-6.478 6.035-6.478 10.524v2.91H0v-4.896a6.972 6.972 0 0 1 5.079-6.708Z" class="cls-1"/><path d="m28.483 15.415-.01-.003a8.895 8.895 0 0 0-.438-.11l-.044-.01a8.93 8.93 0 0 0-.412-.081c-.024-.005-.048-.01-.071-.013a8.975 8.975 0 0 0-.397-.055l-.09-.012a9.02 9.02 0 0 0-.401-.033l-.086-.007a9.11 9.11 0 0 0-.488-.013h-.103a8.064 8.064 0 1 0-7.96 0h-.102a8.98 8.98 0 0 0-8.98 8.98v6.306h26.125v-6.307c0-4.114-2.768-7.58-6.543-8.642Z" class="cls-1"/></g></svg>