<svg xmlns="http://www.w3.org/2000/svg" viewBox="0 0 38.919 34.476"><defs><style>.cls-1{fill:#fff}</style></defs><g><path class="cls-1" d="M0 12.44v17.55a4.487 4.487 0 0 0 4.487 4.486h29.945a4.487 4.487 0 0 0 4.487-4.487V12.44H0Zm25.075 11.533-7.18 4.788a1.313 1.313 0 0 1-2.042-1.093v-9.575c0-1.049 1.169-1.675 2.042-1.093l7.18 4.788c.78.52.78 1.666 0 2.185ZM5.933 9.774h6.368L22.075 0h-6.368L5.933 9.774zM34.316 0h-6.368l-9.774 9.774h6.368L34.316 0zM9.834 0H4.487A4.487 4.487 0 0 0 0 4.487v5.287h.06L9.834 0ZM30.415 9.774h8.504V4.487c0-.914-.275-1.763-.744-2.473l-7.76 7.76Z"/></g></svg>