<svg id="Layer_2" data-name="Layer 2" viewBox="0 0 73.59 154.88" class="icon-spatula">
  <path d="M63.08 0H10.51C4.73 0 0 5.15 0 11.44V57.2c0 6.29 4.73 11.44 10.51 11.44h21.03v21.92c0 2.59-.95 5.07-2.63 6.9s-2.63 4.31-2.63 6.9v40.76c0 5.39 4.02 9.76 8.97 9.76h3.09c4.95 0 8.97-4.37 8.97-9.76v-40.76c0-2.59-.95-5.07-2.63-6.9s-2.63-4.31-2.63-6.9V68.64h21.03c5.78 0 10.51-5.15 10.51-11.44V11.44C73.59 5.15 68.86 0 63.08 0ZM42.05 17.16v34.32c0 3.16-2.35 5.72-5.26 5.72-2.9 0-5.26-2.56-5.26-5.72V17.16c0-3.16 2.35-5.72 5.26-5.72 2.9 0 5.26 2.56 5.26 5.72ZM57.82 57.2c-2.9 0-5.26-2.56-5.26-5.72V17.16c0-3.16 2.35-5.72 5.26-5.72 2.9 0 5.26 2.56 5.26 5.72v34.32c0 3.16-2.35 5.72-5.26 5.72ZM21.03 17.16v34.32c0 3.16-2.35 5.72-5.26 5.72-2.9 0-5.26-2.56-5.26-5.72V17.16c0-3.16 2.35-5.72 5.26-5.72 2.9 0 5.26 2.56 5.26 5.72Z" style="stroke-width:0" id="Layer_1-2" data-name="Layer 1"/>
</svg>