<svg xmlns="http://www.w3.org/2000/svg" viewBox="0 0 256 256"><defs><style>.cls-3{fill:#0c576f;stroke-width:0}</style></defs><g id="Layer_13" data-name="Layer 13"><path d="M230.43 94.37 170.8 85.7l-26.67-54.03a18.001 18.001 0 0 0-32.28 0L85.18 85.7l-59.63 8.67c-6.78.99-12.41 5.73-14.53 12.25a17.999 17.999 0 0 0 4.55 18.45l43.15 42.06-10.19 59.38a17.99 17.99 0 0 0 7.16 17.6 17.996 17.996 0 0 0 18.96 1.37l53.33-28.04 53.33 28.04a17.968 17.968 0 0 0 18.95-1.37 17.998 17.998 0 0 0 7.16-17.6l-10.19-59.38 43.15-42.06a17.984 17.984 0 0 0 4.55-18.45 17.988 17.988 0 0 0-14.53-12.25Z" class="cls-3"/><path d="m227.84 99.18-68.99-10.02L128 26.64 97.15 89.16 28.16 99.18l49.92 48.66-11.79 68.71L128 184.11l61.71 32.44-11.79-68.71 49.92-48.66z" style="fill:#fff100;stroke:#fff100;stroke-linecap:round;stroke-linejoin:round;stroke-width:36px"/></g><g id="Layer_4" data-name="Layer 4"><path d="M98.87 205.53c-2.3 0-4.24-1.49-4.88-3.62-.23.02-.46.04-.7.04-3.08 0-5.76-2.09-6.5-5.08l-10.27-41.41-7.49-2.57c-.85-.29-1.53-.95-1.84-1.8l-9.02-24.52c-1.04-2.83.18-6.03 2.84-7.44l1.25-.66-.58-2.19c-.37-1.39.3-2.85 1.6-3.47l6.45-3.11c.42-.2.86-.3 1.3-.3.88 0 1.74.39 2.32 1.1l1.18 1.44L103 96.78c.44-.23.92-.35 1.41-.35.13 0 .26 0 .39.03l4.92.65 38.26-20.35-.61-5.59c-.14-1.27.54-2.49 1.69-3.04l7.36-3.5c.41-.2.85-.29 1.29-.29.67 0 1.34.23 1.88.67l4.17 3.36 7.22-3.84a3.034 3.034 0 0 1 2.29-.22c.76.23 1.4.76 1.77 1.47l8.36 15.83c.38.72.45 1.56.2 2.34s-.81 1.41-1.55 1.76l-1.21.58 1.59 3.84a3 3 0 0 1-1.44 3.83l-.51.25c.4 1.34-.19 2.8-1.44 3.48l-25.14 13.69.34 1.84c.24 1.3-.4 2.6-1.57 3.21l-12.12 6.28 6.53 12.7c.71 1.38.25 3.08-1.07 3.91l-22.53 14.17 5.2 22.23c.63 2.69-.46 5.47-2.71 7.03l.39 2.11c.37 2.02-.5 4.05-2.22 5.18l-22.46 14.69c-.83.54-1.79.83-2.78.83Zm28.91-72.14c.61.53.98 1.27 1.03 2.07l3.28-2.06-4.48-8.71-.05-.04-5.97 3.4 6.18 5.35Z" class="cls-3"/><path d="m172.37 67.13 8.36 15.83-3.77 1.81 2.67 6.46-3.03 1.5.97 2.29-27.05 14.73.74 3.98-14.77 7.66 7.89 15.36-24.34 15.31 5.69 24.31a3.69 3.69 0 0 1-1.64 3.97l-1.47.92.76 4.11c.15.83-.21 1.66-.91 2.12l-22.46 14.69a2.089 2.089 0 0 1-3.21-1.44l-.45-3.06-1.11.69c-.62.38-1.29.56-1.95.56-1.62 0-3.16-1.07-3.59-2.8l-10.66-43-9.04-3.1-9.02-24.52c-.53-1.44.08-3.04 1.43-3.76l3.34-1.78-1.19-4.49 6.45-3.11 2.73 3.34 30.64-16.32 5.87.77 40.91-21.76-.84-7.61 7.36-3.5 5.71 4.61 8.97-4.77m-53.88 78.36L136 134.47l-6.02-11.71-2.12-1.75-11.46 6.52 9.39 8.12-7.95 7.15.63 2.69m53.88-84.36c-.97 0-1.94.24-2.82.7l-5.47 2.91-2.63-2.12a5.985 5.985 0 0 0-3.77-1.33c-.88 0-1.76.19-2.58.58l-7.36 3.5a6.007 6.007 0 0 0-3.39 6.07l.39 3.57-35.62 18.95-3.96-.52a6.039 6.039 0 0 0-3.6.65l-26.33 14.02a5.981 5.981 0 0 0-4.23-1.75c-.88 0-1.77.19-2.6.6l-6.45 3.11a6.004 6.004 0 0 0-3.21 6.88c-3.39 2.31-4.85 6.7-3.41 10.62l9.02 24.52a5.995 5.995 0 0 0 3.68 3.6l5.95 2.04 9.88 39.83a9.667 9.667 0 0 0 8.23 7.29c1.46 2.21 3.98 3.66 6.76 3.66 1.57 0 3.1-.46 4.42-1.32l22.46-14.69a8.047 8.047 0 0 0 3.52-8.24l-.08-.43a9.696 9.696 0 0 0 2.37-8.84l-4.71-20.15 20.72-13.03c2.63-1.66 3.57-5.05 2.14-7.82l-5.16-10.04 9.47-4.91a6 6 0 0 0 3.19-6.12l23.23-12.65a5.986 5.986 0 0 0 3.08-4.49 6.007 6.007 0 0 0 1.66-6.86l-.58-1.4a6.006 6.006 0 0 0 1.44-7.39l-8.36-15.83a5.957 5.957 0 0 0-5.3-3.19Z" style="stroke-width:0;fill:#fff100"/></g></svg>