<svg xmlns="http://www.w3.org/2000/svg" viewBox="0 0 256 256"><defs><style>.cls-2{fill:#0c576f;stroke-width:0}</style></defs><g id="Layer_13" data-name="Layer 13"><path d="M230.43 94.37 170.8 85.7l-26.67-54.03a18.001 18.001 0 0 0-32.28 0L85.18 85.7l-59.63 8.67c-6.78.99-12.41 5.73-14.53 12.25a17.999 17.999 0 0 0 4.55 18.45l43.15 42.06-10.19 59.38a18.014 18.014 0 0 0 7.16 17.61 17.996 17.996 0 0 0 18.96 1.37l53.33-28.04 53.33 28.04a17.968 17.968 0 0 0 18.95-1.37 18.006 18.006 0 0 0 7.16-17.61l-10.19-59.38 43.15-42.06a17.984 17.984 0 0 0 4.55-18.45 18.004 18.004 0 0 0-14.53-12.25Z" class="cls-2"/><path d="m227.84 99.18-68.99-10.02L128 26.64 97.15 89.16 28.16 99.18l49.92 48.66-11.79 68.71L128 184.11l61.71 32.44-11.79-68.71 49.92-48.66z" style="fill:#fff100;stroke:#fff100;stroke-linecap:round;stroke-linejoin:round;stroke-width:36px"/></g><g id="Layer_4" data-name="Layer 4"><path d="m71.15 127.23.39.39 2.51-.48 38.02-39.1 1.01-3.22 7.8-8.87-.08-2.07 10.2-10.2c3.73-3.73 7.25-15.89 7.25-15.89l-.53-.53-.29-.29-.53-.53s-12.16 3.52-15.89 7.25l-10.2 10.2-2.07-.08-8.87 7.8-3.22 1.01-39.1 38.02-.48 2.51.39.39-.89.89-1.55-.93-4.23 4.23c.78 2.34 3.29 5.91 6.77 9.39s7.05 5.99 9.39 6.77l4.23-4.23-.93-1.55.89-.89ZM93.04 149.11l.39.39 2.51-.48 38.02-39.1 1.01-3.22 7.8-8.87-.08-2.07 10.2-10.2c3.73-3.73 7.25-15.89 7.25-15.89l-.53-.53-.29-.29-.53-.53s-12.16 3.52-15.89 7.25l-10.2 10.2-2.07-.08-8.87 7.8-3.22 1.01-39.1 38.02-.48 2.51.39.39-.89.89-1.55-.93-4.23 4.23c.78 2.34 3.29 5.91 6.77 9.39s7.05 5.99 9.39 6.77l4.23-4.23-.93-1.55.89-.89ZM114.92 170.99l.39.39 2.51-.48 38.02-39.1 1.01-3.22 7.8-8.87-.08-2.07 10.2-10.2c3.73-3.73 7.25-15.89 7.25-15.89l-.53-.53-.29-.29-.53-.53s-12.16 3.52-15.89 7.25l-10.2 10.2-2.07-.08-8.87 7.8-3.22 1.01-39.1 38.02-.48 2.51.39.39-.89.89-1.55-.93-4.23 4.23c.78 2.34 3.29 5.91 6.77 9.39s7.05 5.99 9.39 6.77l4.23-4.23-.93-1.55.89-.89ZM136.8 192.87l.39.39 2.51-.48 38.02-39.1 1.01-3.22 7.8-8.87-.08-2.07 10.2-10.2c3.73-3.73 7.25-15.89 7.25-15.89l-.53-.53-.29-.29-.53-.53s-12.16 3.52-15.89 7.25l-10.2 10.2-2.07-.08-8.87 7.8-3.22 1.01-39.1 38.02-.48 2.51.39.39-.89.89-1.55-.93-4.23 4.23c.78 2.34 3.29 5.91 6.77 9.39s7.05 5.99 9.39 6.77l4.23-4.23-.93-1.55.89-.89Z" class="cls-2"/></g></svg>