<svg xmlns="http://www.w3.org/2000/svg" viewBox="0 0 256 256"><defs><style>.cls-3{fill:#0c576f;stroke-width:0}</style></defs><g id="Layer_13" data-name="Layer 13"><path d="M230.43 94.37 170.8 85.7l-26.67-54.03a18.001 18.001 0 0 0-32.28 0L85.18 85.7l-59.63 8.67c-6.78.99-12.41 5.73-14.53 12.25a17.999 17.999 0 0 0 4.55 18.45l43.14 42.06-10.18 59.38a17.99 17.99 0 0 0 7.16 17.6 17.996 17.996 0 0 0 18.96 1.37l53.33-28.04 53.33 28.04a17.968 17.968 0 0 0 18.95-1.37 17.998 17.998 0 0 0 7.16-17.6l-10.18-59.38 43.14-42.06a17.984 17.984 0 0 0 4.55-18.45 17.988 17.988 0 0 0-14.53-12.25Z" class="cls-3"/><path d="m227.84 99.18-68.99-10.02L128 26.64 97.15 89.16 28.16 99.18l49.92 48.66-11.79 68.71L128 184.11l61.71 32.44-11.79-68.71 49.92-48.66z" style="fill:#fff100;stroke:#fff100;stroke-linecap:round;stroke-linejoin:round;stroke-width:36px"/></g><g id="Layer_4" data-name="Layer 4"><path d="M53.86 211.51a2.99 2.99 0 0 1-2.09-1.05l-29.12-34.37c-.55-.65-.8-1.51-.68-2.36.12-.85.6-1.6 1.31-2.08l9.79-6.52c.51-.34 1.09-.5 1.66-.5.17 0 .34.01.51.04 0-.12.02-.24.05-.37.17-.86.71-1.6 1.47-2.04l40.16-22.57c.45-.25.96-.38 1.47-.38h.21l6.57.46 6.93-8.53-3.59-5.63-2.84 1.65c-.47.28-.99.41-1.51.41-.99 0-1.96-.49-2.53-1.39l-8.71-13.64c-.86-1.34-.52-3.12.78-4.05l4.36-3.13c.27-.19.56-.34.87-.43l11.89-3.64.06-.26c.22-.78.74-1.44 1.45-1.83l4.47-2.45a2.998 2.998 0 0 1 3.02.08l18.87-10.9a3.003 3.003 0 0 1 1.47-2.42l4.39-2.58c.48-.28 1-.41 1.52-.41.18 0 .35.02.52.05l7.86-7.62c.21-.2.45-.37.71-.51l8.38-4.35a2.995 2.995 0 0 1 3.95 1.11l7.6 12.61 64.93-39.3c.19-.11.38-.2.59-.27l8.15-2.78c.32-.11.64-.16.97-.16.96 0 1.89.46 2.46 1.28l5.25 7.52c.87 1.24.67 2.94-.46 3.95l-7.83 7.02c-.16.14-.33.26-.51.37l-37.41 21.45 3.57 6.73c.75 1.42.26 3.17-1.12 3.99l-49.66 29.42 3.63 6.05c.46.77.55 1.71.25 2.55l-4.06 11.36c-.24.66-.69 1.21-1.29 1.57l-8.8 5.22c-.47.28-1 .42-1.53.42-.18 0-.35-.02-.53-.05l-12.9-2.3c-.8-.14-1.51-.61-1.97-1.29l-1.95-2.91-4.86 4.35-.04 3.43 8.99 13.73c.89 1.36.54 3.18-.79 4.1l-9.61 6.7c-.51.36-1.12.54-1.72.54-.55 0-1.1-.15-1.58-.45l-9.46-5.89-29.77 31.06c-.25.26-.53.46-.84.62.41 1.12.13 2.42-.8 3.26l-8.31 7.51c-.55.5-1.27.77-2.01.77h-.2Zm78.84-78.01a3 3 0 0 1 1.59 1.71l.39-.25 1.4-4.78-1.9-3.2-6.44 3.81.36.64 4.59 2.07Z" class="cls-3"/><path d="m229.72 42.43 5.25 7.52-7.84 7.02-39.93 22.89 4.93 9.29-52.25 30.96 5.18 8.64-4.06 11.36-8.8 5.22-12.9-2.3-3.86-5.79-8.43 7.53-.06 5.66 9.49 14.49-9.61 6.7-11.53-7.17-31.45 32.81-2.6-3.29-2.84 2.24 3.96 4.77-8.31 7.51-29.12-34.37 9.79-6.52 3.94 4.75 3.65-2.33-4.09-5.16 40.16-22.57 8.12.57 9.28-11.42-4.84-7.58 4.58-2.89-.86-2.1 3.71-1.99 1.92 2.11 1.68-3.03-2.47-4.21-10.36 10-5 2.91-8.71-13.64 4.36-3.13 14.8-4.53-.84-1.44 4.47-2.45.83 1.35 23.31-13.46-.69-1.17 4.39-2.58.65 1.1 9.82-9.52 8.38-4.35 8.07 13.39-8.66 4.43-9.41 2.53-3.24 1.87 2.32 3.91 1.63.21 85.95-52.01 8.15-2.78m-124 69.32 23.23-13.15-1.73-2.94-23.17 13.37 1.67 2.72m23.66 25.75-6.97-1.24-2.16-3.31-1.77 1.59 3.19 5.13 9.57 1.16 6-3.96 2.08-7.09-4.09-6.9-10.98 6.51-.51.45 2.24 3.94 5.49 2.47-2.08 1.26m-82.59 44.72 3.38-2.21-5.27-6.66-3.62 2.23 5.51 6.65m7.98 9.64 3.01-2.24-3.92-4.96-3.2 2.23 4.11 4.96m174.93-155.4c-.65 0-1.3.1-1.93.32l-8.15 2.78c-.41.14-.8.32-1.17.55l-62.36 37.74-6.05-10.03a5.99 5.99 0 0 0-7.9-2.22l-8.38 4.35a5.9 5.9 0 0 0-1.41 1.02l-6.98 6.77c-.81.09-1.6.35-2.35.79l-4.39 2.58c-1.19.7-2.09 1.78-2.58 3.06l-16.53 9.54c-.43-.1-.87-.15-1.31-.15-.98 0-1.97.24-2.88.74l-4.47 2.45c-.97.53-1.77 1.32-2.32 2.27l-10.51 3.22c-.62.19-1.21.48-1.74.86l-4.36 3.13a6.002 6.002 0 0 0-1.56 8.1l8.71 13.64a5.99 5.99 0 0 0 5.06 2.77c1.03 0 2.07-.26 3.02-.82l.35-.2.88 1.38-4.58 5.64-5.01-.35c-.14 0-.28-.01-.42-.01-1.03 0-2.04.26-2.94.77L35.3 159.69c-.94.53-1.72 1.3-2.25 2.22-.57.17-1.12.42-1.64.76l-9.79 6.52a6.024 6.024 0 0 0-2.62 4.16c-.24 1.69.26 3.41 1.36 4.72l29.12 34.37c1.05 1.24 2.56 2 4.18 2.11.13 0 .27.01.4.01 1.48 0 2.92-.55 4.02-1.55l8.31-7.51a5.971 5.971 0 0 0 1.97-4.21l27.91-29.12 7.39 4.6a5.98 5.98 0 0 0 6.6-.17l9.61-6.7a6.012 6.012 0 0 0 1.59-8.21l-8.49-12.97v-1.19l1.31-1.16.03.04a6.022 6.022 0 0 0 3.94 2.58l12.9 2.3a6.021 6.021 0 0 0 4.11-.75l8.8-5.22c1.2-.71 2.12-1.82 2.59-3.14l4.06-11.36c.6-1.69.42-3.56-.5-5.1l-2.08-3.47 47.06-27.88a5.992 5.992 0 0 0 2.24-7.97l-2.21-4.16 34.89-20c.36-.21.71-.46 1.02-.74l7.84-7.02a6.002 6.002 0 0 0 .92-7.9l-5.25-7.52c-1.15-1.64-3-2.57-4.92-2.57Z" style="stroke-width:0;fill:#fff100"/></g></svg>