<svg xmlns="http://www.w3.org/2000/svg" viewBox="0 0 256 256"><defs><style>.cls-3{fill:#0c576f;stroke-width:0}</style></defs><g id="Layer_13" data-name="Layer 13"><path d="M230.43 94.37 170.8 85.7l-26.67-54.03a18.001 18.001 0 0 0-32.28 0L85.18 85.7l-59.63 8.67c-6.78.99-12.41 5.73-14.53 12.25a17.999 17.999 0 0 0 4.55 18.45l43.15 42.06-10.19 59.38a18.014 18.014 0 0 0 7.16 17.61 17.996 17.996 0 0 0 18.96 1.37l53.33-28.04 53.33 28.04a17.968 17.968 0 0 0 18.95-1.37 18.006 18.006 0 0 0 7.16-17.61l-10.19-59.38 43.15-42.06a17.984 17.984 0 0 0 4.55-18.45 18.004 18.004 0 0 0-14.53-12.25Z" class="cls-3"/><path d="m227.84 99.18-68.99-10.02L128 26.64 97.15 89.16 28.16 99.18l49.92 48.66-11.79 68.71L128 184.11l61.71 32.44-11.79-68.71 49.92-48.66z" style="fill:#fff100;stroke:#fff100;stroke-linecap:round;stroke-linejoin:round;stroke-width:36px"/></g><g id="Layer_4" data-name="Layer 4"><path d="M43.03 209.94c-4.25 0-8.18-1.94-10.76-5.33-4.36-5.71-3.28-14.01 2.46-18.89l77.59-65.91 1.15-8.57a75.695 75.695 0 0 1 26.07-47.7l32.43-27.55c1.3-1.1 2.88-1.69 4.57-1.69 2.45 0 4.98 1.25 6.77 3.36l39.06 45.99c3.21 3.77 2.97 7.86-.64 10.92l-32.88 27.93a75.97 75.97 0 0 1-49.11 18.04h-1.11l-8.79-.13-78.06 66.31a13.5 13.5 0 0 1-8.75 3.22Z" class="cls-3"/><path d="M176.54 37.31c1.64 0 3.32.93 4.49 2.3l39.06 45.99c2.27 2.67 1.92 4.81-.3 6.69l-32.88 27.93a72.882 72.882 0 0 1-47.16 17.33h-1.07l-9.92-.15-78.92 67.04c-1.98 1.68-4.4 2.51-6.81 2.51-3.15 0-6.29-1.41-8.38-4.15-3.46-4.53-2.33-11.09 2.01-14.78l78.47-66.65 1.31-9.71a72.837 72.837 0 0 1 25.04-45.81l32.43-27.55c.8-.68 1.71-.97 2.63-.97m-34.53 50.21c.64 0 1.29-.22 1.81-.67l34.76-29.53c1.18-1 1.33-2.77.33-3.95a2.81 2.81 0 0 0-3.96-.32L140.19 82.6c-1.19 1-1.33 2.77-.32 3.95.55.65 1.34.99 2.14.99m3.74 15.24c.64 0 1.29-.22 1.81-.67l40.11-34.07a2.798 2.798 0 0 0 .32-3.96c-.55-.65-1.35-.99-2.14-.99-.64 0-1.29.22-1.82.66l-40.1 34.07c-1.18 1-1.32 2.78-.32 3.96.55.65 1.35.99 2.14.99m9.08 10.69c.64 0 1.29-.22 1.81-.67l40.11-34.07a2.798 2.798 0 0 0 .32-3.96 2.81 2.81 0 0 0-3.96-.32L153 108.51a2.804 2.804 0 0 0 1.82 4.94m14.43 6.15c.64 0 1.29-.22 1.81-.66l34.76-29.53c1.18-1 1.33-2.77.32-3.95-.55-.66-1.34-1-2.14-1-.64 0-1.29.22-1.81.67l-34.76 29.52c-1.18 1-1.33 2.78-.32 3.95.56.65 1.35.99 2.14.99m7.28-88.3c-2.42 0-4.67.83-6.52 2.4l-32.43 27.55a78.767 78.767 0 0 0-27.1 49.59l-1 7.43-76.71 65.16c-6.96 5.91-8.23 16.01-2.9 23 3.16 4.14 7.95 6.51 13.15 6.51 3.91 0 7.71-1.4 10.7-3.93l77.2-65.58 7.66.11h1.16c18.68 0 36.81-6.66 51.05-18.75l32.88-27.93c4.89-4.16 5.27-10.11.98-15.15l-39.06-45.99c-2.35-2.77-5.74-4.41-9.06-4.41Z" style="stroke-width:0;fill:#fff100"/></g></svg>