<svg xmlns="http://www.w3.org/2000/svg" viewBox="0 0 256 256"><defs><style>.cls-3{fill:#0c576f;stroke-width:0}</style></defs><g id="Layer_13" data-name="Layer 13"><path d="M230.43 94.37 170.8 85.7l-26.67-54.03a18.001 18.001 0 0 0-32.28 0L85.18 85.7l-59.63 8.67c-6.78.99-12.41 5.73-14.53 12.25a17.999 17.999 0 0 0 4.55 18.45l43.14 42.06-10.18 59.38c-1.16 6.75 1.62 13.58 7.16 17.61s12.89 4.56 18.96 1.37l53.33-28.04 53.33 28.04a17.968 17.968 0 0 0 18.95-1.37 18.006 18.006 0 0 0 7.16-17.61l-10.18-59.38 43.14-42.06a17.984 17.984 0 0 0 4.55-18.45 18.004 18.004 0 0 0-14.53-12.25Z" class="cls-3"/><path d="m227.84 99.18-68.99-10.02L128 26.64 97.15 89.16 28.16 99.18l49.92 48.66-11.79 68.71L128 184.11l61.71 32.44-11.79-68.71 49.92-48.66z" style="fill:#fff100;stroke:#fff100;stroke-linecap:round;stroke-linejoin:round;stroke-width:36px"/></g><g id="Layer_4" data-name="Layer 4"><path d="M143.29 209.75c-.43 0-.85-.05-1.27-.15-1.23-.29-2.32-1.02-3.13-2.05-1.17 1.86-2.72 2.21-3.72 2.21h-3.35c-1.27 0-2.4-.8-2.82-1.99l-.36-1.01-.36 1.01a3.009 3.009 0 0 1-2.82 1.99h-3.35c-1.55 0-2.82-.78-3.72-2.19l-.15.18c-.71.83-1.63 1.44-2.67 1.76-.54.17-1.06.25-1.58.25H112c-1.61 0-3.1-.72-4.16-1.91-.51.37-1.13.57-1.76.57-.12 0-.24 0-.37-.02-.45-.05-.99-.06-1.56-.08-.79-.01-1.61-.03-2.44-.16-2.88-.45-4.14-2.13-4.69-3.46-.73-1.77-1.17-3.86-1.33-6.38-.12-1.86-.08-3.93.1-6.16.24-2.96.72-5.92 1.05-7.88.14-.82.28-1.62.42-2.39l.14-.81c.27-1.47.51-2.81.67-3.94.12-.82.19-1.46.21-1.92V174.32c-.01-.21-.03-.4-.06-.59l-.03-.14c-.03-.14-.05-.26-.07-.36 0-.02-.01-.04-.02-.06-.04-.13-.07-.23-.11-.32-.03-.06-.08-.18-.08-.18s-.02-.04-.05-.08c-.03-.04-.12-.18-.15-.22-.02-.02-.14-.15-.17-.18-.04-.03-.17-.14-.22-.17-.04-.02-.23-.14-.3-.17-.05-.02-.12-.05-.13-.05-.14-.06-.2-.09-.26-.11l-.16-.04c-.17-.05-.25-.08-.33-.1l-.32-.06c-.08-.02-.15-.03-.23-.05l-.62-.08-.73-.06-.76-.03h-.8c-.93 0-1.88.02-2.85.05-1 .03-2.02.07-3.03.07h-.29c-.29 0-.56 0-.84-.01h-.42c-.26-.02-.52-.04-.78-.05-.15 0-.3-.02-.44-.03-.28-.02-.57-.05-.87-.09l-.28-.03a18.3 18.3 0 0 1-1.22-.2c-.07-.01-.15-.03-.24-.05-.35-.08-.66-.15-.96-.24-.08-.02-.4-.12-.41-.13-.26-.08-.52-.18-.78-.28-.15-.06-.29-.12-.43-.18-.26-.11-.52-.24-.78-.38-.16-.08-.26-.14-.36-.2-.38-.22-.72-.45-1.04-.69-.01 0-.03-.02-.04-.03-2.06-1.59-3.86-3.95-5.53-7.23-1.31-2.57-2.56-5.76-3.83-9.74-1.32-4.15-2.48-8.61-3.61-12.91-.33-1.25-.65-2.49-.97-3.71-.42-1.59-.85-3.15-1.28-4.63-1-3.45-1.61-6.99-1.82-10.52-.28-4.55.12-9.16 1.17-13.72a2.992 2.992 0 0 1 2.93-2.32c.77 0 1.52.3 2.09.85l2.95 2.87 8.32-5.06a2.998 2.998 0 0 1 3.67.42l1.87 1.85-2.14-5.57-7.5 4.44a2.995 2.995 0 0 1-3.99-.86l-3.71-5.31c-.63-.9-.71-2.06-.23-3.04l.13-.28c.11-.22.21-.44.33-.66 2.25-4.31 5.16-8.48 8.64-12.41 5.86-6.61 13.2-12.23 21.23-16.27 5.56-2.8 11.29-4.78 17.02-5.88 3.52-.68 6.98-1.02 10.28-1.03h11.99c.39 0 .78.01 1.17.03h.35c1.06.05 2.02.63 2.53 1.56.51.92.5 2.05-.03 2.96l-9.02 15.47 7.03 3.61c.72.37 1.26 1.02 1.5 1.8s.15 1.62-.25 2.33l-1.72 3.1 8.51-7.3-5.52-2.35a2.96 2.96 0 0 1-1.72-1.99c-.24-.89-.05-1.84.5-2.58l9.81-13.02a3.017 3.017 0 0 1 3.27-1.06c3.7 1.11 7.37 2.58 10.91 4.36 3.47 1.74 6.77 3.75 9.82 5.95 1.84 1.33 3.63 2.76 5.33 4.25 1.71 1.5 3.35 3.1 4.89 4.74.28.3.55.61.82.92l.36.41c4.52 5.09 8.06 10.63 10.54 16.48 3.1 7.31 4.44 14.82 3.99 22.32-.21 3.53-.83 7.07-1.82 10.52-.43 1.49-.85 3.04-1.28 4.63-.32 1.22-.65 2.46-.97 3.71-.41 1.58-.83 3.19-1.26 4.79-1.69 6.3-3.61 12.83-6.18 17.87-1.67 3.29-3.47 5.64-5.5 7.21-.02.02-.05.04-.07.05-.31.23-.65.46-1.03.68-.11.06-.21.12-.31.17-.32.17-.58.3-.84.41-.15.07-.29.12-.44.18-.26.1-.52.19-.78.28-.2.06-.31.1-.42.13-.29.08-.59.16-.9.22-.12.03-.2.05-.29.06-.39.08-.78.14-1.18.2l-.26.03c-.35.04-.64.07-.94.09l-.42.03c-.26.02-.52.03-.78.04h-.43c-.26.02-.54.03-.81.03h-.3c-1.01 0-2.03-.03-3.04-.07-.96-.03-1.92-.06-2.84-.06h-.93l-.17.02c-.22 0-.35.01-.47.02l-.71.06-.62.08-.56.11-.48.14s-.33.13-.36.14l-.27.15-.24.17-.18.17-.15.2-.16.29-.05.16-.08.2-.11.5c-.02.08-.02.16-.03.24l-.04.4a5.9 5.9 0 0 0-.01.73v.17c.02.47.09 1.09.21 1.92.17 1.12.4 2.45.67 3.9l.15.86c.14.77.28 1.57.42 2.39.33 1.96.81 4.92 1.05 7.88.18 2.24.22 4.31.1 6.16-.16 2.52-.6 4.61-1.33 6.39-.47 1.14-1.5 2.62-3.73 3.26-.29.08-.6.14-.92.19-.88.14-1.7.15-2.49.17-.57.01-1.11.02-1.56.08-.12.01-.25.02-.37.02-.63 0-1.25-.2-1.76-.57-.77.86-1.77 1.49-2.9 1.76-.41.1-.83.15-1.26.15h-1.99Zm-10.03-52.64c.03.88.09 1.83.17 2.74.08.86.17 1.66.26 2.31.06.38.11.75.17 1.13l.06.33c.04.24.08.48.13.72l.08.34c.04.17.08.35.13.53l.09.27c.04.11.08.23.13.34l.04.07c.16-.04.33-.1.5-.18.12-.05.24-.12.36-.18.38-.22.75-.5 1.06-.82 1.41-1.44.76-2.23.52-2.53a61.405 61.405 0 0 1-3.72-5.08Zm-9.39.22c-.42.63-.88 1.31-1.42 2.06-.72.99-1.44 1.94-2.15 2.81-.14.18-.25.35-.3.51-.04.12-.06.24-.06.36 0 .05 0 .12.02.19.06.35.27.76.58 1.15.36.44.83.85 1.34 1.14.12.07.24.13.37.19.18.08.35.14.5.18l.06-.1c.04-.08.08-.2.11-.31l.1-.29c.05-.16.09-.33.13-.51l.08-.34c.05-.25.09-.5.14-.74l.05-.29c.06-.39.12-.77.17-1.14.1-.66.19-1.46.27-2.32.08-.92.14-1.86.17-2.74-.05.07-.1.15-.15.22Zm11.3-28.9c-.09.35-.16.74-.22 1.21l-.04.35c-.06.57-.08 1.06-.08 1.55 0 .57.05 1.17.14 1.79 1.52 10.05 14.43 21.94 23.83 21.94 5.67 0 9.52-3.9 11.45-11.6a39 39 0 0 0 .76-3.98c.27-1.99.41-4.1.41-6.26 0-2.03-.37-3.5-1.1-4.36-.3-.35-.67-.64-1.16-.9-.42-.21-.97-.41-1.68-.6-.59-.15-1.14-.27-1.68-.35-.55-.09-1.13-.16-1.72-.22a3.006 3.006 0 0 1-2.47-1.89c-.41-1.04-.2-2.22.53-3.06l4.98-5.73-1.33-2.98c-.08.14-.18.28-.28.41l-8.99 10.97c-.58.7-1.43 1.1-2.32 1.1-.19 0-.38-.02-.57-.06l-.11-.02c-.43-.08-.86-.17-1.3-.27-.84-.19-1.61-.36-2.38-.52l-.72-.14c-.55-.11-1.09-.2-1.63-.28-.25-.04-.5-.08-.74-.11-.59-.08-1.18-.15-1.76-.21l-.37-.04c-.64-.05-1.29-.08-1.92-.09h-.21c-.35 0-.69.01-1.03.03l-.21.02c-.34.02-.68.06-1.01.11l-.29.04c-.37.06-.7.14-1 .22-.04.02-.12.04-.17.06-.22.07-.46.16-.7.26l-.19.08c-.25.12-.46.23-.63.34-.05.04-.09.07-.14.1-.16.11-.32.25-.49.41l-.14.14c-.17.18-.31.34-.43.51-.03.04-.05.09-.08.13-.12.18-.24.41-.36.67l-.09.21c-.14.34-.24.63-.32.92 0 .04-.02.07-.02.09Zm-20.55-4.35c-.67 0-1.31.03-1.95.09l-.35.04c-.59.06-1.18.13-1.79.21-.22.03-.45.07-.67.1-.59.09-1.14.19-1.69.29l-.71.13c-.77.16-1.55.32-2.33.51-.03 0-.08.02-.1.02-2.86.67-5.64.95-8.25 1.18l-.82.07c-8.3.72-10.08 1.38-10.08 6.69 0 7.04 1.47 13.27 4.05 17.1 2.14 3.18 4.94 4.73 8.56 4.73 5.77 0 13.49-4.72 18.78-11.47 3.33-4.25 5.17-8.58 5.19-12.2v-.07c0-.49-.03-.97-.08-1.52-.01-.13-.03-.25-.04-.37-.06-.46-.13-.85-.21-1.17 0-.03-.02-.08-.03-.12-.07-.27-.18-.57-.32-.92l-.09-.2c-.13-.29-.26-.52-.38-.7-.02-.03-.04-.07-.07-.11-.13-.19-.27-.34-.44-.53l-.12-.11c-.18-.18-.35-.31-.51-.43-.03-.02-.08-.06-.13-.09-.17-.11-.38-.23-.63-.34l-.17-.08c-.26-.11-.51-.21-.77-.28-.04-.01-.15-.05-.18-.06-.24-.07-.57-.14-.96-.21l-.19-.03c-.42-.06-.76-.1-1.11-.12-.02 0-.14-.01-.16-.01-.38-.02-.72-.04-1.08-.04h-.18Z" class="cls-3"/><path d="M131.41 61.06H134.63c.47 0 .95.02 1.42.04l-10.61 18.2 9.84 5.05-9.84 17.74 24.87-21.35-9.97-4.24 9.81-13.02c3.55 1.07 7.04 2.47 10.43 4.17 3.26 1.64 6.43 3.54 9.42 5.7 1.76 1.28 3.47 2.64 5.11 4.07a64.73 64.73 0 0 1 4.68 4.54c.39.41.75.85 1.13 1.27 4.17 4.71 7.61 9.98 10.02 15.66 2.78 6.55 4.2 13.63 3.75 20.97-.2 3.25-.75 6.54-1.71 9.87-.43 1.5-.86 3.08-1.29 4.7-.73 2.76-1.47 5.63-2.23 8.49-1.7 6.35-3.57 12.61-5.95 17.29-1.36 2.67-2.89 4.83-4.66 6.19h-.01c-.25.19-.5.36-.77.51-.09.05-.18.1-.27.14-.19.1-.38.2-.58.28-.11.05-.22.09-.33.13-.2.08-.39.15-.6.21-.11.03-.22.07-.33.1-.24.07-.48.13-.72.18-.08.02-.15.04-.23.05-.32.07-.65.12-.99.16l-.28.03a19.576 19.576 0 0 1-1.14.11c-.23.01-.47.03-.7.04-.13 0-.26 0-.39.01-.25 0-.5.01-.75.01h-.29c-.98 0-1.96-.03-2.94-.06-1-.03-1.99-.07-2.94-.07H163.71c-.11 0-.21 0-.32.01-.19 0-.37.01-.56.02-.12 0-.24.02-.37.03-.16.01-.32.02-.48.04-.13.01-.26.04-.39.05-.14.02-.28.03-.42.06-.11.02-.22.05-.34.07-.14.03-.29.05-.43.09-.11.03-.21.06-.31.09-.14.04-.28.07-.41.12-.1.03-.19.08-.29.12-.13.05-.26.1-.38.15-.09.04-.18.1-.27.14-.12.06-.24.12-.35.19-.09.05-.16.12-.24.18-.11.08-.22.15-.32.23-.08.07-.15.15-.22.22-.09.09-.19.17-.27.27-.07.08-.14.18-.2.27-.07.1-.16.19-.22.3-.07.11-.12.23-.18.34-.06.11-.12.21-.17.32-.06.13-.1.27-.15.4-.04.12-.09.23-.13.36-.04.15-.08.33-.11.49-.03.12-.06.24-.08.37-.03.19-.05.41-.07.61-.01.12-.03.23-.04.36-.02.3-.02.61-.01.94v.15c.02.62.11 1.41.24 2.32.2 1.37.51 3.02.84 4.84.14.76.28 1.55.41 2.36.41 2.43.81 5.05 1.02 7.63.16 1.96.21 3.9.1 5.72-.13 2-.46 3.86-1.11 5.43-.36.86-.99 1.3-1.77 1.52-.19.05-.4.09-.6.12-1.2.19-2.63.06-3.91.22v-15.52c0-1.02-.71-1.85-1.57-1.85h-.03c-.85.02-1.54.84-1.54 1.84v13.6c0 .23-.02.44-.06.66-.22 1.27-1.08 2.28-2.16 2.54-.18.04-.37.07-.56.07h-1.99c-.19 0-.38-.02-.56-.07-.7-.17-1.29-.64-1.69-1.3-.33-.54-.53-1.19-.53-1.9v-13.6c0-1.02-.71-1.85-1.57-1.85s-1.57.83-1.57 1.85v12.18s0 .07-.02.2c-.01.13-.03.31-.06.53-.03.22-.07.47-.12.75-.03.14-.05.28-.09.42-.29 1.29-.85 2.77-1.91 2.77h-3.35l-.84-2.34-.84-2.34v-6.15l.03-6.15-1.54-1.39-1.54 1.39.03 12.3-1.68 4.68h-3.35c-1.89 0-2.2-4.68-2.2-4.68v-12.18c0-1.02-.71-1.85-1.57-1.85-.43 0-.82.21-1.11.54-.06.07-.09.17-.14.25-.19.3-.32.65-.32 1.05v13.6a3.6 3.6 0 0 1-.34 1.53c-.06.13-.12.25-.19.37-.09.14-.18.28-.29.41-.34.4-.78.69-1.26.84-.22.07-.46.12-.7.12h-1.99c-1.34 0-2.46-1.12-2.72-2.6-.04-.21-.06-.43-.06-.66v-13.6c0-1-.69-1.82-1.54-1.84h-.03c-.86 0-1.57.83-1.57 1.85v15.52c-1.28-.16-2.7-.03-3.91-.22-1.05-.16-1.93-.57-2.38-1.64-.65-1.57-.98-3.43-1.11-5.43-.12-1.82-.07-3.75.1-5.72.21-2.58.61-5.2 1.02-7.63.14-.81.28-1.6.41-2.36.33-1.82.63-3.48.84-4.84.13-.91.22-1.7.24-2.32v-.15c0-.33 0-.64-.01-.94v-.02c-.02-.33-.05-.65-.1-.95-.01-.07-.03-.14-.05-.21-.04-.23-.09-.45-.15-.66 0-.02-.02-.04-.02-.06a6.37 6.37 0 0 0-.25-.7c-.01-.03-.03-.05-.04-.08-.1-.21-.2-.4-.31-.58-.02-.03-.05-.06-.07-.09a4.29 4.29 0 0 0-.36-.48c-.03-.03-.06-.05-.09-.08-.13-.14-.26-.28-.41-.4l-.12-.09c-.14-.11-.28-.22-.44-.32-.04-.03-.09-.05-.14-.08-.16-.09-.31-.18-.48-.26-.06-.03-.13-.05-.2-.08-.15-.07-.31-.13-.47-.19-.08-.03-.17-.05-.25-.07-.16-.05-.31-.1-.47-.14-.09-.02-.19-.04-.29-.06-.16-.03-.31-.07-.48-.1-.11-.02-.23-.03-.34-.05-.16-.02-.31-.05-.47-.06l-.4-.03c-.15-.01-.29-.03-.44-.04-.15 0-.3-.01-.45-.02-.14 0-.28-.01-.43-.02H92.66c-.95 0-1.94.03-2.94.07-.98.03-1.96.06-2.94.06h-.29c-.25 0-.5 0-.75-.01-.13 0-.26 0-.38-.01-.24 0-.47-.02-.7-.04-.12 0-.25-.02-.37-.03-.26-.02-.52-.05-.77-.08l-.26-.03c-.34-.05-.67-.1-.99-.17-.08-.02-.15-.03-.22-.05-.25-.05-.49-.11-.73-.18-.11-.03-.21-.07-.32-.1l-.6-.21c-.11-.04-.22-.09-.32-.13-.2-.09-.39-.18-.58-.28-.09-.05-.18-.09-.27-.14-.27-.16-.52-.32-.77-.51h-.01c-1.77-1.36-3.3-3.52-4.66-6.19-1.36-2.67-2.56-5.86-3.65-9.29-1.68-5.27-3.11-11.11-4.54-16.49-.43-1.61-.86-3.19-1.29-4.7a44.92 44.92 0 0 1-1.71-9.87c-.27-4.4.14-8.7 1.09-12.86l4.62 4.49 10.31-6.27 11.77 11.62-8.41-21.87-10.55 6.25-3.71-5.31c.14-.29.28-.58.43-.87 2.21-4.23 5.01-8.18 8.23-11.81 5.69-6.41 12.71-11.75 20.34-15.58 5.22-2.63 10.72-4.55 16.24-5.61 3.25-.63 6.5-.97 9.72-.97h8.76m22.77 61.74c-.43-.08-.86-.17-1.3-.27-.02 0-.03 0-.05-.01-.82-.19-1.62-.36-2.42-.53-.25-.05-.5-.1-.75-.14-.58-.11-1.16-.21-1.72-.3l-.78-.12c-.65-.09-1.28-.17-1.91-.23-.13-.01-.27-.03-.4-.04-.74-.06-1.45-.09-2.15-.1h-.18c-.43 0-.85.01-1.26.04-.08 0-.16.01-.24.02-.42.03-.83.08-1.23.14-.12.02-.24.03-.35.05-.45.08-.9.17-1.32.29-.06.02-.12.04-.19.06-.36.11-.71.24-1.05.39-.1.04-.2.09-.3.13-.38.18-.74.38-1.07.6-.04.03-.08.07-.13.1-.3.21-.57.44-.83.69-.08.07-.15.15-.23.22-.28.3-.55.61-.79.96-.02.03-.04.07-.06.11-.22.33-.41.69-.58 1.07-.05.11-.1.22-.14.33-.18.43-.34.88-.47 1.38 0 .02 0 .05-.02.08-.12.48-.21.99-.27 1.53-.02.14-.04.29-.05.44-.06.58-.1 1.19-.1 1.84 0 .73.06 1.48.17 2.24 1.71 11.33 15.77 24.49 26.79 24.49 8.08 0 12.43-6.18 14.36-13.87.35-1.4.62-2.84.82-4.31.3-2.2.43-4.45.43-6.66 0-2.94-.65-4.93-1.8-6.29-.57-.68-1.27-1.21-2.08-1.63-.69-.36-1.47-.62-2.31-.84-.62-.16-1.27-.3-1.97-.41-.6-.09-1.22-.17-1.86-.24l6.23-7.17-7.46-16.66v11.66l-8.99 10.97m-55.7 35.45c7.18 0 15.64-5.6 21.14-12.62 3.51-4.48 5.82-9.53 5.82-14.1v-.01c0-.65-.04-1.25-.1-1.83-.01-.15-.03-.3-.05-.45-.07-.53-.16-1.05-.27-1.52 0-.03-.01-.06-.02-.08-.13-.49-.29-.95-.47-1.38-.05-.11-.09-.22-.14-.32a8.42 8.42 0 0 0-.59-1.07c-.02-.03-.04-.07-.06-.1a7.5 7.5 0 0 0-.8-.97l-.22-.22a7.02 7.02 0 0 0-.85-.7c-.04-.03-.07-.06-.11-.08-.34-.23-.7-.43-1.08-.61-.09-.04-.19-.09-.29-.13-.34-.15-.7-.28-1.07-.39-.06-.02-.11-.04-.17-.06-.42-.12-.87-.22-1.33-.3-.11-.02-.23-.03-.34-.05-.4-.06-.82-.11-1.25-.14-.08 0-.16-.02-.24-.02-.41-.02-.83-.04-1.27-.04h-.18c-.69 0-1.41.04-2.15.1-.13.01-.26.03-.39.04-.63.06-1.27.13-1.92.23a63.086 63.086 0 0 0-2.5.42c-.25.05-.49.09-.74.14-.8.16-1.6.33-2.42.53-.02 0-.03 0-.05.01-2.72.64-5.39.91-7.89 1.13-7.7.68-13.64.87-13.64 9.75 0 6.73 1.27 13.88 4.56 18.78 2.45 3.66 6.03 6.06 11.06 6.06m35.8 10.68c.23 0 .47-.03.74-.08.41-.08.84-.22 1.25-.41.21-.09.42-.2.62-.32.61-.35 1.2-.8 1.71-1.32 1.7-1.74 2.55-4.26.7-6.53a61.049 61.049 0 0 1-5.06-7.26s-.02-.04-.03-.07c0-.02 0-.02-.02-.05a.974.974 0 0 0-.05-.11c-.03-.06-.06-.12-.1-.21-.03-.05-.06-.11-.09-.17-.05-.09-.09-.17-.15-.27-.04-.07-.09-.14-.13-.21-.06-.1-.12-.19-.19-.29-.05-.08-.11-.14-.17-.22-.07-.1-.15-.19-.23-.28-.06-.07-.13-.13-.2-.19-.09-.08-.17-.16-.26-.23-.07-.05-.15-.1-.23-.14-.1-.05-.19-.1-.29-.14-.08-.03-.17-.04-.26-.05-.06 0-.12-.04-.19-.04-.08 0-.17 0-.26.03-.1.02-.2.07-.29.15-.78.71-.95 3.64-.84 6.64.04 1 .1 2 .18 2.93.08.93.18 1.79.28 2.49.06.39.11.78.18 1.17l.06.35c.05.28.1.55.15.82.03.14.07.28.1.42.05.23.11.47.17.69.04.15.09.28.14.42.07.2.14.39.22.58.06.13.13.25.19.37.09.16.18.32.29.46.08.11.17.2.26.3.12.12.24.23.37.32.1.07.21.14.33.19.15.07.31.12.48.16.13.03.27.06.41.07.07 0 .12.03.19.03m-11.28 0c.07 0 .13-.03.19-.03.15-.01.28-.04.41-.07.17-.04.33-.09.48-.16a2.236 2.236 0 0 0 .7-.51c.09-.09.18-.19.26-.3.1-.14.2-.29.29-.46.07-.12.14-.24.19-.37.08-.18.15-.38.22-.57.05-.14.1-.27.14-.42.06-.22.12-.45.17-.68.03-.14.07-.28.1-.42.06-.27.11-.55.15-.84l.06-.33.18-1.17c.1-.7.2-1.56.28-2.49.08-.93.15-1.93.18-2.93.06-1.66.03-3.31-.13-4.56-.17-1.26-.48-2.12-.99-2.22-.09-.02-.17-.03-.26-.03-.07 0-.12.03-.19.04a1.108 1.108 0 0 0-.55.19c-.08.04-.16.08-.23.14-.09.07-.18.15-.26.23-.07.06-.14.12-.2.19-.08.09-.16.18-.23.28-.06.07-.11.14-.17.22-.07.1-.13.2-.2.3-.04.07-.09.14-.13.2l-.16.29c-.03.05-.06.1-.08.15-.05.11-.09.19-.12.26 0 .02-.02.04-.03.06-.03.08-.05.12-.05.12s-.12.21-.32.53c-.04.06-.08.13-.12.2-.28.46-.7 1.12-1.22 1.9-.4.6-.84 1.25-1.36 1.96-.61.85-1.3 1.76-2.04 2.66-.37.45-.63.92-.8 1.38-.17.47-.25.93-.24 1.39 0 .23.02.46.06.69.15.91.59 1.77 1.2 2.52s1.38 1.4 2.2 1.86c.2.12.41.22.62.32.42.19.84.33 1.25.41.26.05.51.08.74.08m8.41-113.88h-8.76c-3.51 0-7.16.37-10.85 1.08-6.01 1.16-11.99 3.22-17.8 6.14-8.37 4.21-16.02 10.07-22.13 16.96-3.64 4.1-6.69 8.48-9.06 13.01-.13.25-.25.49-.37.74l-.12.25c-.97 1.96-.79 4.3.46 6.09l1.16 1.66h-.27a5.985 5.985 0 0 0-5.84 4.65c-1.11 4.83-1.53 9.74-1.24 14.57.23 3.75.88 7.51 1.94 11.17.37 1.27.75 2.68 1.26 4.57.32 1.21.65 2.45.97 3.7 1.13 4.34 2.31 8.84 3.65 13.06 1.32 4.14 2.63 7.48 4.02 10.2 1.88 3.69 3.96 6.38 6.34 8.22.03.02.06.05.1.07a12.067 12.067 0 0 0 1.78 1.12 13.474 13.474 0 0 0 1.55.72c.32.13.64.24.97.34l.06.02c.15.05.29.09.44.14.33.09.67.18 1.05.26.13.03.25.06.37.08.44.09.9.17 1.38.23.11.01.22.03.33.04.35.04.69.08 1.03.1l.47.03c.28.02.57.03.85.04.14 0 .3.01.45.01.3 0 .6.01.89.01h.31c1.06 0 2.09-.03 3.14-.07.92-.03 1.88-.06 2.74-.06h.9l.16.01h.18l.17.01h.11l.19.03h.18l.09.02.12.02.15.02.2.03.09.02.08.02v.75c-.01.23-.05.68-.18 1.51-.16 1.07-.4 2.43-.66 3.86l-.14.8c-.14.78-.28 1.58-.42 2.41-.34 2.02-.83 5.06-1.09 8.14-.2 2.38-.23 4.6-.1 6.6.18 2.85.69 5.25 1.55 7.34.69 1.67 2.52 4.57 7 5.27 1.04.16 2 .18 2.85.2.47 0 .96.02 1.25.05.24.03.49.04.73.04.4 0 .8-.04 1.18-.12 1.37.93 3 1.46 4.73 1.46h1.99c.82 0 1.62-.12 2.46-.38.62-.19 1.21-.45 1.77-.77a7.11 7.11 0 0 0 3.89 1.15h3.35c1.15 0 2.25-.33 3.19-.92.93.59 2.03.92 3.19.92h3.35c.72 0 2.29-.14 3.87-1.15.71.41 1.48.72 2.29.92.63.15 1.3.23 1.96.23h1.99c.66 0 1.33-.08 1.97-.23 1-.24 1.93-.66 2.77-1.22.39.08.78.12 1.18.12.24 0 .49-.01.73-.04.29-.04.78-.04 1.25-.05.85-.02 1.81-.03 2.85-.19.33-.05.79-.12 1.33-.28 2.63-.75 4.64-2.52 5.67-4.99.86-2.09 1.37-4.49 1.56-7.34.13-2 .09-4.21-.1-6.6-.25-3.07-.74-6.12-1.09-8.14-.14-.83-.28-1.63-.42-2.41l-.14-.79c-.26-1.44-.5-2.8-.66-3.87-.12-.83-.16-1.28-.18-1.52V174.56c0-.06.01-.11.02-.17h.02l.19-.04h.03l.17-.03.19-.03h.08l.12-.02h.16l.19-.03h.08c.08-.01.18-.01.28-.02h.12l.19-.01h.79c.86 0 1.81.03 2.74.06 1.05.03 2.08.07 3.13.07h.32c.3 0 .59 0 .88-.01.14 0 .29 0 .44-.01.3-.01.58-.03.87-.04.16 0 .32-.02.48-.03.33-.03.65-.06.98-.1.15-.02.26-.03.38-.04a19.559 19.559 0 0 0 1.74-.31c.37-.08.71-.17 1.04-.26.15-.04.3-.09.45-.14l.06-.02c.33-.1.65-.22.96-.34.18-.07.36-.14.54-.22.32-.14.64-.3.99-.48.18-.09.33-.17.48-.26.48-.28.92-.57 1.32-.87.03-.03.07-.05.1-.08 2.39-1.84 4.46-4.53 6.34-8.22 2.69-5.29 4.67-12 6.4-18.46.43-1.6.85-3.2 1.26-4.79.33-1.25.65-2.5.98-3.72.5-1.89.89-3.3 1.26-4.57a51.58 51.58 0 0 0 1.94-11.17c.48-7.97-.94-15.94-4.22-23.68-2.61-6.14-6.33-11.96-11.06-17.29l-.33-.37c-.3-.34-.6-.68-.91-1.01a72.53 72.53 0 0 0-5.11-4.95 76.927 76.927 0 0 0-5.55-4.43c-3.18-2.3-6.62-4.38-10.23-6.2-3.7-1.86-7.53-3.39-11.39-4.56-.57-.17-1.15-.26-1.73-.26-1.85 0-3.64.86-4.79 2.39l-7.28 9.67 3.15-5.41a6.026 6.026 0 0 0 .07-5.93 5.992 5.992 0 0 0-5.06-3.09h-.35c-.42-.03-.84-.04-1.26-.04H131.42Zm2.41 21.79.56-.97c-.04.42-.04.84 0 1.26l-.57-.29Zm20.36 51.95c1.78 0 3.49-.79 4.64-2.2l.11-.13a5.99 5.99 0 0 0 4.81 3.49c.68.07 1.16.14 1.58.2.44.07.9.17 1.39.29.64.17.94.3 1.06.36.14.07.22.13.24.16.11.13.39.82.39 2.43 0 2.02-.13 3.99-.38 5.85a34.99 34.99 0 0 1-.69 3.66c-2.34 9.33-7.01 9.33-8.54 9.33-7.87 0-19.57-10.87-20.86-19.39-.07-.47-.11-.92-.11-1.34 0-.38.02-.77.07-1.25 0-.09.02-.19.03-.28.04-.35.09-.63.14-.83 0-.04.02-.08.03-.12.04-.15.1-.31.18-.49l.05-.11c.08-.18.14-.27.15-.29.02-.02.03-.05.05-.08.02-.03.06-.07.11-.13l.04-.04a.57.57 0 0 1 .16-.13.55.55 0 0 0 .09-.07c.05-.03.12-.06.22-.11l.06-.03c.18-.08.32-.13.46-.17.05-.02.11-.04.18-.06.17-.04.37-.09.6-.13l.14-.02h.05c.28-.04.54-.07.8-.09.07 0 .15-.01.22-.02.26-.01.49-.02.73-.02h.27c.58 0 1.13.03 1.69.08h.02c.11.02.22.03.33.04.52.05 1.07.11 1.62.19.21.03.42.06.63.1.55.09 1.07.18 1.59.28l.24.04.45.09c.79.16 1.53.32 2.25.49.03 0 .06.01.1.02.43.1.89.19 1.35.28l.11.02c.38.07.77.11 1.15.11Zm-48.43-.42h.07c.7-.18 1.44-.34 2.24-.5.14-.03.28-.05.42-.08l.26-.05c.52-.1 1.04-.19 1.54-.27.23-.04.45-.07.68-.1.55-.08 1.1-.14 1.64-.19.1 0 .2-.02.3-.03h.06c.53-.05 1.08-.08 1.66-.08h.26c.23 0 .47.01.72.02.08 0 .15.01.22.02.26.02.53.05.79.09h.1l.11.03c.23.04.43.08.6.13.05.02.1.03.16.05.15.05.29.1.44.16l.13.05c.09.04.15.08.2.1l.1.07s.06.04.15.13l.06.06c.05.05.08.09.1.11.02.03.04.07.06.1 0 0 .05.09.14.27l.05.11c.08.19.13.34.17.48.01.05.02.1.04.15.05.18.09.47.14.81l.03.27c.05.47.07.86.07 1.24v.07c-.02 2.91-1.68 6.68-4.55 10.35-4.68 5.98-11.59 10.32-16.42 10.32-2.62 0-4.49-1.05-6.07-3.4-2.25-3.35-3.54-8.98-3.54-15.43 0-1.02.1-2.3.58-2.57 1.18-.65 4.02-.9 6.76-1.14l.82-.07c2.59-.23 5.61-.54 8.71-1.26Z" style="stroke-width:0;fill:#fff100"/></g></svg>