<svg xmlns="http://www.w3.org/2000/svg" viewBox="0 0 256 256"><defs><style>.cls-5{stroke:#fff100;stroke-linecap:round;stroke-linejoin:round;fill:none;stroke-width:8px}</style></defs><g id="Layer_13" data-name="Layer 13"><path d="M230.43 94.37 170.8 85.7l-26.67-54.03a18.001 18.001 0 0 0-32.28 0L85.18 85.7l-59.63 8.67c-6.78.99-12.41 5.73-14.53 12.25a17.999 17.999 0 0 0 4.55 18.45l43.14 42.06-10.18 59.38a18.014 18.014 0 0 0 7.16 17.61 17.996 17.996 0 0 0 18.96 1.37l53.33-28.04 53.33 28.04a17.968 17.968 0 0 0 18.95-1.37 18.006 18.006 0 0 0 7.16-17.61l-10.18-59.38 43.14-42.06a17.984 17.984 0 0 0 4.55-18.45 18.004 18.004 0 0 0-14.53-12.25Z" style="stroke-width:0;fill:#0c576f"/><path d="m227.84 99.18-68.99-10.02L128 26.64 97.15 89.16 28.16 99.18l49.92 48.66-11.79 68.71L128 184.11l61.71 32.44-11.79-68.71 49.92-48.66z" style="stroke:#fff100;stroke-linecap:round;stroke-linejoin:round;fill:#fff100;stroke-width:36px"/></g><g id="Layer_4" data-name="Layer 4"><path d="M131.67 204.62c-27.52 0-51.88-18.14-59.25-44.12-4.6-16.2-3.91-40.35 1.74-61.52 3.88-14.54 13.47-39.8 34.05-45.63 2.77-.79 5.68-1.18 8.66-1.18 31.58 0 67.04 44.39 75.52 74.31 4.45 15.69 2.39 32.21-5.81 46.52-8.19 14.29-21.51 24.65-37.52 29.2a63.874 63.874 0 0 1-17.39 2.43Z" style="stroke-width:0;fill:#0c576f;fill-rule:evenodd"/><path d="M116.87 55.16c30.02 0 64.61 43.81 72.64 72.13 8.74 30.83-9.73 63.07-41.27 72.01a60.62 60.62 0 0 1-16.57 2.32c-25.69 0-49.16-16.52-56.37-41.94-8.74-30.83 2.19-94.51 33.72-103.45 2.56-.73 5.19-1.07 7.84-1.07m0-6c-3.25 0-6.44.44-9.48 1.3-16.31 4.63-29.14 21.58-36.13 47.74-5.79 21.65-6.47 46.43-1.73 63.12 3.87 13.63 11.99 25.29 23.48 33.7 11.09 8.12 24.82 12.6 38.66 12.6 6.13 0 12.25-.86 18.21-2.55 34.67-9.83 55.04-45.46 45.4-79.42-4.36-15.38-15.64-34.2-29.44-49.12-16.32-17.65-33.71-27.37-48.97-27.37Z" style="fill:#fff100;stroke-width:0"/><path d="m91.75 113.56 32.76 12.2M102.04 136.04l12.19-32.76M146.92 101.46l18.97 24.21M144.3 123.05l24.21-18.97M133.37 150.45s2.42-10.21 11.99-10.31c6.39-.07 11.04 5.55 11.04 5.55" class="cls-5"/></g></svg>