<svg xmlns="http://www.w3.org/2000/svg" viewBox="0 0 256 256"><defs><style>.cls-4,.cls-6{stroke:#fff100}.cls-4,.cls-6,.cls-7{stroke-linecap:round;stroke-linejoin:round}.cls-4,.cls-6{fill:none}.cls-4,.cls-7{stroke-width:7px}.cls-7{fill:#fff100}.cls-6{stroke-width:8px}.cls-7{stroke:#0c576f}</style></defs><g id="Layer_13" data-name="Layer 13"><path d="M230.43 94.37 170.8 85.7l-26.67-54.03a18.001 18.001 0 0 0-32.28 0L85.18 85.7l-59.63 8.67c-6.78.99-12.41 5.73-14.53 12.25a17.999 17.999 0 0 0 4.55 18.45l43.14 42.06-10.18 59.38a18.014 18.014 0 0 0 7.16 17.61 17.996 17.996 0 0 0 18.96 1.37l53.33-28.04 53.33 28.04a17.968 17.968 0 0 0 18.95-1.37 18.006 18.006 0 0 0 7.16-17.61l-10.18-59.38 43.14-42.06a17.984 17.984 0 0 0 4.55-18.45 18.004 18.004 0 0 0-14.53-12.25Z" style="stroke-width:0;fill:#0c576f"/><path d="m227.84 99.18-68.99-10.02L128 26.64 97.15 89.16 28.16 99.18l49.92 48.66-11.79 68.71L128 184.11l61.71 32.44-11.79-68.71 49.92-48.66z" style="fill:#fff100;stroke-width:36px;stroke-linecap:round;stroke-linejoin:round;stroke:#fff100"/></g><g id="Layer_4" data-name="Layer 4"><path d="M144.8 199.78c-5.22 0-10.46-.65-15.58-1.94-33.34-8.4-53.78-41.77-45.57-74.4 3.79-15.05 14.86-33.8 28.88-48.93 9.34-10.07 27.97-26.97 47.84-26.97 2.68 0 5.31.32 7.82.95 15.31 3.86 27.44 19.61 34.13 44.36 5.55 20.52 6.44 44.48 2.27 61.05-6.8 27.02-31.39 45.89-59.79 45.89Z" style="stroke-width:0;fill:#0c576f;fill-rule:evenodd"/><path d="M160.38 50.54c2.4 0 4.77.28 7.08.86 31.79 8 42.05 70.69 34.22 101.76-6.6 26.21-30.49 43.62-56.88 43.62-4.9 0-9.87-.6-14.85-1.85-31.79-8.01-51.21-39.68-43.39-70.76 7.25-28.81 43.27-73.63 73.81-73.63m0-6c-34.2 0-71.89 47.42-79.63 78.17-8.62 34.23 12.8 69.24 47.74 78.04a66.794 66.794 0 0 0 16.31 2.03c29.77 0 55.56-19.8 62.7-48.15 4.29-17.03 3.39-41.58-2.28-62.56-6.99-25.84-19.88-42.35-36.29-46.48-2.75-.69-5.62-1.04-8.55-1.04Z" style="fill:#fff100;stroke-width:0"/><path d="m128 123 33.65 12.19M183.63 135.19l26.3-15.73" class="cls-6"/><path d="M130.65 65.86H60.98M106.53 90.55H29.24M94 111.44H49.53" class="cls-7"/><path d="M91.14 111.44h20.35M103.35 90.55h21.54M124.89 65.86h16.82" class="cls-4"/></g></svg>