<svg xmlns="http://www.w3.org/2000/svg" viewBox="0 0 256 256"><defs><style>.cls-3{fill:#0c576f;stroke-width:0}</style></defs><g id="Layer_13" data-name="Layer 13"><path d="M230.43 94.37 170.8 85.7l-26.67-54.03a18.001 18.001 0 0 0-32.28 0L85.18 85.7l-59.63 8.67c-6.78.99-12.41 5.73-14.53 12.25a17.999 17.999 0 0 0 4.55 18.45l43.14 42.06-10.18 59.38a17.99 17.99 0 0 0 7.16 17.6 17.996 17.996 0 0 0 18.96 1.37l53.33-28.04 53.33 28.04a17.968 17.968 0 0 0 18.95-1.37 17.998 17.998 0 0 0 7.16-17.6l-10.18-59.38 43.14-42.06a17.984 17.984 0 0 0 4.55-18.45 17.988 17.988 0 0 0-14.53-12.25Z" class="cls-3"/><path d="m227.84 99.18-68.99-10.02L128 26.64 97.15 89.16 28.16 99.18l49.92 48.66-11.79 68.71L128 184.11l61.71 32.44-11.79-68.71 49.92-48.66z" style="fill:#fff100;stroke:#fff100;stroke-linecap:round;stroke-linejoin:round;stroke-width:36px"/></g><g id="Layer_4" data-name="Layer 4"><path d="M95.41 209.9c-.39 0-.79-.08-1.16-.23-.9-.38-1.57-1.18-1.77-2.14l-9.75-45.41-33.49 39.65a2.98 2.98 0 0 1-2.29 1.06h-.18c-.95-.06-1.81-.56-2.33-1.35l-17.29-26.49c-.9-1.38-.52-3.24.86-4.15l30.86-20.3c.49-.32 1.07-.49 1.65-.49.19 0 .39.02.58.06l4.18.82 4.71-5.89.95-11.91c.08-.95.6-1.81 1.41-2.31l58.62-36.4-2.61-4.25c-.81-1.31-.49-3.03.74-3.96l2.61-1.99c.54-.41 1.18-.61 1.82-.61.67 0 1.34.22 1.89.67l.61.49 9.76-6.74c.51-.35 1.11-.53 1.71-.53.42 0 .84.09 1.23.27l3.59 1.62.02-.86c.02-1.02.56-1.96 1.42-2.49l25.11-15.5a2.988 2.988 0 0 1 3.44.2l1.29 1.02 5.51-3.42a3.013 3.013 0 0 1 3.26.06l6.76 4.56c-1.42-3.78-3.72-8.75-7.33-14.31-.44-.67-.59-1.48-.42-2.26.17-.78.63-1.46 1.3-1.89l4.24-2.74a2.982 2.982 0 0 1 2.39-.38c.82.21 1.5.76 1.9 1.51.05.1 4.91 9.2 11.86 14.8l7.56-4.77c.5-.31 1.05-.46 1.6-.46.91 0 1.8.41 2.39 1.18l5.5 7.23c.5.66.71 1.51.57 2.33s-.62 1.55-1.32 2l-30.71 20.01-.07 2.03c-.03.97-.53 1.86-1.34 2.39l-48.37 32.1-.02.04c18.28 25.67 50.62 28.09 50.95 28.12.87.06 1.68.49 2.2 1.19.53.7.72 1.59.53 2.45l-6.52 29.37a3.004 3.004 0 0 1-2.93 2.35h-.22c-30.02-2.16-52.44-19.55-64.55-31.6-.19.25-.41.48-.68.67l-13.97 9.89 8.2 26.92c.39 1.29-.12 2.69-1.27 3.41l-23.57 14.92c-.49.31-1.04.46-1.6.46Zm14.71-57.33 1.15-.82-1.27.43.12.39Z" class="cls-3"/><path d="M198.53 44.26s5.87 11.15 14.37 17.04l9.3-5.87 5.5 7.23-32.02 20.86-.13 3.59-49.1 32.59-1.04 2.38c19.17 28.54 54.17 30.78 54.17 30.78l-6.52 29.37c-40.65-2.92-67.05-34.84-71.72-40.91l4.55 10.53-15.74 11.14 8.83 28.99-23.57 14.92-10.62-49.48-2.63.73-35.21 41.68-17.29-26.49 30.86-20.3 5.96 1.17 6.42-8.03 1.02-12.83 61.16-37.97-4.18-6.79 2.61-1.99 2.35 1.91 11.61-8.02 6.71 3.03 1.04-.64.09-4.3 25.11-15.5 2.95 2.33 7.3-4.53 11.06 7.47 1.9-1.2c-1.09-4.05-3.64-11.4-9.34-20.14l4.24-2.74m7.31 19.21c.21 0 .43-.06.63-.18l1.41-.88c.66-.41.76-1.32.2-1.87l-2.74-2.68c-.23-.23-.53-.34-.84-.34-.23 0-.45.06-.65.19-.47.3-.66.89-.47 1.42l1.32 3.56c.18.49.64.78 1.12.78m-97.39 93.95 10.58-7.49-4.46-10.34-2.91.24-2.3 3.65 4.86 1.92.82 1.91-8.76 2.96 2.18 7.15m90.07-119.15c-1.15 0-2.28.33-3.26.96l-4.24 2.74a6 6 0 0 0-1.77 8.31c1.08 1.65 2.03 3.25 2.87 4.78a5.988 5.988 0 0 0-4.62.72l-3.74 2.32a5.962 5.962 0 0 0-3.34-1.02c-1.09 0-2.18.3-3.15.89l-25.11 15.5c-.73.45-1.35 1.05-1.81 1.74l-.4-.18a6.023 6.023 0 0 0-5.88.53l-8.08 5.58a6.012 6.012 0 0 0-6.1.69l-2.61 1.99a6.003 6.003 0 0 0-1.48 7.92l1.05 1.7-56.08 34.82a6.032 6.032 0 0 0-2.82 4.62l-.88 10.99-3 3.75-2.4-.47c-.38-.08-.77-.11-1.16-.11-1.16 0-2.31.34-3.3.99l-30.86 20.3a6.006 6.006 0 0 0-1.73 8.29l17.29 26.49a6.007 6.007 0 0 0 4.66 2.71c.12 0 .25.01.37.01 1.76 0 3.44-.77 4.58-2.13l29.55-34.98 8.47 39.43a5.981 5.981 0 0 0 3.54 4.27c.75.31 1.54.47 2.32.47 1.12 0 2.24-.31 3.21-.93l23.57-14.92a5.995 5.995 0 0 0 2.53-6.82l-7.57-24.85 10.97-7.76c12.83 12.23 35.12 28.48 64.52 30.6.15.01.29.02.43.02 2.79 0 5.24-1.94 5.85-4.7l6.52-29.37c.38-1.71 0-3.5-1.06-4.9a5.996 5.996 0 0 0-4.41-2.38c-.29-.02-29.17-2.25-46.84-24.4l45.74-30.36a6.01 6.01 0 0 0 2.68-4.79l.02-.47 29.41-19.16c1.4-.91 2.35-2.36 2.64-4 .28-1.64-.13-3.33-1.14-4.66l-5.5-7.23a5.999 5.999 0 0 0-4.78-2.37c-1.1 0-2.21.3-3.2.93l-5.68 3.58c-5.59-5.19-9.44-12.39-9.49-12.48a6.005 6.005 0 0 0-3.79-3 6.03 6.03 0 0 0-1.52-.19Z" style="stroke-width:0;fill:#fff100"/></g></svg>