<svg xmlns="http://www.w3.org/2000/svg" viewBox="0 0 256 256"><defs><filter id="luminosity-invert-noclip" width="235.69" height="238.91" x="10.16" y="8.64" color-interpolation-filters="sRGB" filterUnits="userSpaceOnUse"><feColorMatrix result="cm" values="-1 0 0 0 1 0 -1 0 0 1 0 0 -1 0 1 0 0 0 1 0"/><feFlood flood-color="#fff" result="bg"/><feBlend in="cm" in2="bg"/></filter><style>.cls-4{stroke-width:0;fill:#0c576f}</style><mask id="mask" width="235.69" height="238.91" x="10.16" y="8.64" maskUnits="userSpaceOnUse"><g style="filter:url(#luminosity-invert-noclip)"><path d="M188.08 118.09c-2.38-29.46-25.71-52.8-55.17-55.17V38.25h-9.82v24.67c-29.46 2.38-52.8 25.71-55.17 55.17H43.25v9.82h24.67c2.38 29.47 25.71 52.8 55.17 55.17v24.67h9.82v-24.67c29.46-2.38 52.8-25.71 55.17-55.17h24.67v-9.82h-24.67Zm-64.99 55.13c-23.94-2.32-42.99-21.37-45.31-45.31h19.03c2.11 13.44 12.84 24.17 26.28 26.28v19.03Zm0-29.03c-8.05-1.87-14.42-8.23-16.28-16.28h16.28v16.28Zm0-26.1h-16.28c1.87-8.05 8.23-14.42 16.28-16.28v16.28Zm0-26.28c-13.44 2.11-24.17 12.84-26.28 26.28H77.78c2.32-23.94 21.37-42.99 45.31-45.31v19.03Zm9.82 10c8.05 1.87 14.42 8.23 16.28 16.28h-16.28v-16.28Zm0 26.1h16.28c-1.87 8.05-8.23 14.42-16.28 16.28v-16.28Zm0 45.31v-19.03c13.44-2.11 24.17-12.85 26.28-26.28h19.03c-2.32 23.94-21.37 42.99-45.31 45.31Zm26.28-55.13c-2.11-13.44-12.84-24.17-26.28-26.28V72.78c23.94 2.32 42.99 21.37 45.31 45.31h-19.03Z" style="stroke-width:0;fill:#fff"/></g></mask></defs><g id="Layer_13" data-name="Layer 13" style="mask:url(#mask)"><path d="M230.43 94.37 170.8 85.7l-26.67-54.03a18.001 18.001 0 0 0-32.28 0L85.18 85.7l-59.63 8.67c-6.78.99-12.41 5.73-14.53 12.25a17.999 17.999 0 0 0 4.55 18.45l43.15 42.06-10.19 59.38a18.014 18.014 0 0 0 7.16 17.61 17.996 17.996 0 0 0 18.96 1.37l53.33-28.04 53.33 28.04a17.968 17.968 0 0 0 18.95-1.37 18.006 18.006 0 0 0 7.16-17.61l-10.19-59.38 43.15-42.06a17.984 17.984 0 0 0 4.55-18.45 18.004 18.004 0 0 0-14.53-12.25Z" class="cls-4"/><path d="m227.84 99.18-68.99-10.02L128 26.64 97.15 89.16 28.16 99.18l49.92 48.66-11.79 68.71L128 184.11l61.71 32.44-11.79-68.71 49.92-48.66z" style="fill:#fff100;stroke:#fff100;stroke-linecap:round;stroke-linejoin:round;stroke-width:36px"/></g><g id="Layer_4" data-name="Layer 4"><path d="M36.96 211.66c-.24 0-.48-.03-.72-.09-.82-.2-1.52-.74-1.92-1.49l-15.4-28.57a2.997 2.997 0 0 1 1.16-4.03l43.38-24.65.09-16.89c0-1.08.6-2.08 1.54-2.61l26.68-14.8-2.14-3.58-3.94 3.3c-.13.11-.26.2-.41.29L54.9 136.35l-2.08 3.83c-.05.15-.11.3-.18.44-.52.99-1.55 1.62-2.67 1.62-1.21 0-1.97-.42-4.35-3.08-1.13-1.26-2.83-3.3-4.49-5.89-2.54-3.96-3.74-8.86-3.79-9.07-.2-.85-.03-1.74.48-2.44.5-.71 1.29-1.16 2.16-1.24l5.67-.54 31.84-16.41c.24-.12.49-.21.75-.27l8.01-1.69 19.4-12.28 10.67-8.92.66-3.25c.15-.75.58-1.4 1.2-1.85l3.04-2.17a2.998 2.998 0 0 1 4.15.65c8.7 11.67 11.05 19.5 11.15 19.83 0 .03.02.07.03.1l36.8-20.42c.45-.25.96-.38 1.46-.38.6 0 1.2.18 1.72.54l2.57 1.79 16.24-9.1c.45-.25.96-.38 1.47-.38.47 0 .94.11 1.37.33l7.5 3.86 25.48-13.99a2.999 2.999 0 0 1 3.95.98l5.31 8.08c.46.7.6 1.55.41 2.36-.2.81-.72 1.5-1.45 1.91l-51.81 29.08-.44 3.01c-.13.9-.66 1.69-1.44 2.15l-32.46 19.18c-.32.19-.67.32-1.04.38l-7.33 1.2c1.93 3.15 5.88 8.49 13.55 15.47.64.58 1 1.42.98 2.29-.02.87-.41 1.69-1.08 2.24l-21.88 18.17c-.54.45-1.22.69-1.92.69-.1 0-.2 0-.3-.01-.8-.08-1.53-.48-2.04-1.1l-6.11-7.58c-.21.33-.49.62-.82.86l-21.04 14.61 5.64 18.86c.47 1.57-.4 3.22-1.96 3.72l-25.23 8.05a3.005 3.005 0 0 1-2.39-.25 2.983 2.983 0 0 1-1.44-1.92l-2.89-12.23-37.28 24.99c-.5.33-1.08.51-1.67.51Zm6.14-25.6 1.48-.95-2.99-5.34-.97.57 2.48 5.73Zm18.17-5.39 11.63-7.39-2.66-10.22-12.79 7.09 3.82 10.52Zm39.4-22.51 12.57-8.73-2.5-7.52-2.65 1.27c.36.13.69.33.98.59.68.62 1.05 1.51.99 2.43l-.28 4.14a3.012 3.012 0 0 1-2.3 2.72l-7.77 1.84.97 3.26Zm14.63-52.68 12.67-7.03-2.61-.71-12.32 4.4 2.26 3.34Z" class="cls-4"/><path d="m232.59 58.6 5.31 8.08-53.1 29.8-.65 4.47-32.46 19.18-11.37 1.86s2.38 7.54 16.05 19.99l-21.88 18.17-11.05-13.7-2.78-2.17 2.86 8.58-22.82 15.85 6.26 20.94-25.23 8.05-3.88-16.44-40.87 27.41-15.4-28.57 44.89-25.51.1-18.62 29.39-16.3-5.48-9.17-.43.23-6.26 5.24-31.1 18.23-2.72 5s.03.06.02.06c-.16 0-3.39-3.02-6.32-7.59-2.3-3.58-3.39-8.15-3.39-8.15l6.25-.59 32.36-16.68 8.54-1.8 20.03-12.67 11.63-9.72.87-4.28 3.04-2.17c8.47 11.37 10.67 18.88 10.67 18.88l-2.93 1.64-5.46-1.48-14.62 5.22-2.05 1.08 5.78 8.53 60.44-33.53 4.11 2.87 17.88-10.02 8.92 4.59 26.88-14.76M184 85.36l10.85-6.2-3.29-1.92-9.12 5.6 1.56 2.52m-78.06 60.79c.36 0 .75-.03 1.15-.1l-.28 4.14-10.86 2.58 3.07 10.27 17.82-12.38-4.21-12.65-.21-.16-11.38 5.46c.85 1.3 2.39 2.85 4.91 2.85m-46.17 39.1 16.63-10.57-4.18-16.08-18.41 10.21 5.96 16.44m-17.97 5.28 6.83-4.38-5.87-10.48-5.9 3.45 4.94 11.4M232.59 52.6c-.98 0-1.97.24-2.88.74l-24.08 13.22-6.08-3.13c-.86-.44-1.8-.67-2.75-.67-1.01 0-2.02.26-2.93.77l-14.6 8.18-1.03-.72a5.98 5.98 0 0 0-3.43-1.08c-1 0-2 .25-2.91.75l-33.76 18.73c-1.51-3.55-4.59-9.65-10.36-17.4a5.995 5.995 0 0 0-4.82-2.42c-1.21 0-2.43.36-3.48 1.12l-3.04 2.17a5.96 5.96 0 0 0-2.39 3.69l-.45 2.22-9.71 8.12-18.78 11.88-7.48 1.58c-.52.11-1.03.29-1.51.54l-31.33 16.15-5.1.48c-1.73.16-3.3 1.07-4.31 2.49a5.986 5.986 0 0 0-.95 4.89c.14.57 1.41 5.68 4.18 9.99a50.05 50.05 0 0 0 4.79 6.28c2.28 2.53 3.86 4.07 6.58 4.07a6.005 6.005 0 0 0 5.6-3.84l1.57-2.89 3.41-2-.08 14.57-41.87 23.8c-2.84 1.61-3.86 5.19-2.32 8.06l15.4 28.57a6.012 6.012 0 0 0 5.28 3.16c1.18 0 2.34-.35 3.34-1.02l33.68-22.58 1.89 8.02a5.974 5.974 0 0 0 2.88 3.84c.91.52 1.93.78 2.96.78.61 0 1.23-.09 1.82-.28l25.23-8.05c3.12-.99 4.86-4.3 3.93-7.43l-5.01-16.78 17.93-12.45 4.21 5.22a6.01 6.01 0 0 0 4.67 2.23c1.39 0 2.75-.49 3.83-1.38l21.88-18.17a5.989 5.989 0 0 0 .21-9.05c-4.9-4.46-8.21-8.2-10.4-11.06l2.65-.43c.73-.12 1.44-.38 2.08-.76l32.46-19.18a6 6 0 0 0 2.88-4.3l.23-1.55 50.52-28.36c1.45-.81 2.5-2.2 2.89-3.81.39-1.62.1-3.33-.82-4.72l-5.31-8.08a6.01 6.01 0 0 0-5.02-2.7ZM61.15 171.53l7.17-3.97 1.13 4.36-6.63 4.22-1.67-4.6Z" style="stroke-width:0;fill:#fff100"/></g></svg>