<svg xmlns="http://www.w3.org/2000/svg" viewBox="0 0 256 256"><defs><style>.cls-2{fill:#fff100}.cls-3{fill:#0c576f}.cls-2,.cls-3{stroke-width:0}</style></defs><g id="Layer_13" data-name="Layer 13"><path d="m58.74 167.13-10.18 59.38a17.99 17.99 0 0 0 7.16 17.6 17.996 17.996 0 0 0 18.96 1.37l53.33-28.04 53.33 28.04a17.968 17.968 0 0 0 18.95-1.37 17.998 17.998 0 0 0 7.16-17.6l-10.18-59.38 43.14-42.06a17.984 17.984 0 0 0 4.55-18.45 17.988 17.988 0 0 0-14.53-12.25L170.8 85.7l-26.67-54.03a18.001 18.001 0 0 0-32.28 0L85.18 85.7l-59.63 8.67c-6.78.99-12.41 5.73-14.53 12.25a17.999 17.999 0 0 0 4.55 18.45l43.14 42.06Z" class="cls-3"/><path d="m227.84 99.18-68.99-10.02L128 26.64 97.15 89.16 28.16 99.18l49.92 48.66-11.79 68.71L128 184.11l61.71 32.44-11.79-68.71 49.92-48.66z" style="fill:#fff100;stroke:#fff100;stroke-linecap:round;stroke-linejoin:round;stroke-width:36px"/></g><g id="Layer_4" data-name="Layer 4"><path d="M107.72 199.65c-13.6 0-26.53-5.4-36.39-15.21-19.82-19.71-20.6-51.16-1.76-70.11 10.26-10.32 29.06-19.47 46.79-23.13-4.41-4.4-6.97-10.4-6.97-16.85 0-13.17 10.72-23.89 23.89-23.89 5.37 0 10.47 1.77 14.64 5.02l6.82-6.86c1.46-1.46 3.39-2.27 5.46-2.27s3.98.8 5.43 2.24l15.25 15.17a7.616 7.616 0 0 1 2.27 5.44c0 1.5-.42 2.93-1.21 4.16l13.01 12.94c2.23 2.22 3.46 5.17 3.47 8.32 0 3.15-1.21 6.11-3.43 8.34l-7.15 7.19 10.45 15.11a9.99 9.99 0 0 1 .61 10.41l-29.77 56.14c-1.15 2.33-3.55 3.82-6.23 3.82-.73 0-1.45-.11-2.14-.34-.06-.02-.11-.04-.17-.06l-5.89-2.28c-.76-.29-1.37-.88-1.68-1.63-.32-.75-.31-1.6 0-2.34l23.65-55.42c.63-1.47.33-3.17-.76-4.34l-6.05-6.5c-.96-.04-1.9-.2-2.8-.47.48 22.08-12.29 50.11-25.64 63.55-8.88 8.93-20.85 13.85-33.72 13.85Zm25.56-137c-6.45 0-11.7 5.25-11.7 11.7s4.84 11.28 10.94 11.67c-.32-3.41.86-6.88 3.37-9.41l7.71-7.75c-2.01-3.78-5.96-6.22-10.32-6.22Z" class="cls-3"/><path d="M160.2 49.35c1.2 0 2.4.46 3.31 1.37l15.25 15.16a4.705 4.705 0 0 1 .02 6.65l-.96.96 15.02 14.93c3.44 3.42 3.45 8.98.03 12.41l-8.91 8.96 11.86 17.17a7.03 7.03 0 0 1 .43 7.3l-29.77 56.14a4.011 4.011 0 0 1-3.58 2.23c-.41 0-.82-.06-1.22-.19l-5.89-2.28 23.65-55.42c1.09-2.56.57-5.52-1.32-7.56l-6.96-7.48a8.77 8.77 0 0 1-6.93-2.52l-.64-.63c3.31 21.97-10.52 53.29-24.29 67.13-8.61 8.66-20.01 12.96-31.59 12.96-12.24 0-24.69-4.8-34.28-14.34-18.67-18.57-19.46-48.06-1.75-65.86 10.71-10.77 32.52-21.08 52.23-23.45-6.83-3.44-11.53-10.5-11.53-18.65 0-11.52 9.37-20.89 20.89-20.89 5.77 0 10.99 2.35 14.78 6.14l8.81-8.86c.92-.92 2.13-1.39 3.33-1.39m-26.92 39.69c1.05 0 2.07-.12 3.06-.33a8.773 8.773 0 0 1 1.68-9.99l9.13-9.19c-2-5.75-7.45-9.89-13.87-9.89-8.1 0-14.7 6.59-14.7 14.7s6.59 14.7 14.7 14.7m26.92-45.69c-2.87 0-5.56 1.12-7.59 3.16l-5.04 5.07c-4.24-2.68-9.16-4.11-14.3-4.11-14.83 0-26.89 12.06-26.89 26.89 0 5.49 1.64 10.68 4.59 15.03-16.8 4.33-33.83 13.08-43.54 22.84-9.73 9.79-14.89 22.94-14.51 37.04.37 13.99 6.15 27.24 16.28 37.31 10.43 10.37 24.11 16.09 38.51 16.09s26.4-5.23 35.85-14.73c7.57-7.61 14.82-19.49 19.89-32.58 3.8-9.81 6.01-19.44 6.52-28.1l3.76 4.04c.28.3.36.74.2 1.12l-23.65 55.42c-.64 1.5-.64 3.19-.01 4.69.63 1.5 1.85 2.68 3.36 3.26l5.89 2.28.33.12c.99.32 2.02.48 3.06.48 3.8 0 7.2-2.09 8.91-5.47l29.74-56.08a12.99 12.99 0 0 0-.79-13.52l-9.03-13.06 5.39-5.42c5.75-5.78 5.72-15.15-.06-20.9l-11.51-11.45c.39-1.12.59-2.31.59-3.54 0-2.86-1.13-5.54-3.16-7.56L167.73 46.5c-2.02-2.01-4.7-3.11-7.55-3.11ZM129.7 82.27c-3.02-1.36-5.13-4.41-5.13-7.93 0-4.8 3.9-8.7 8.7-8.7 2.5 0 4.82 1.08 6.43 2.87l-5.95 5.98c-2.16 2.17-3.53 4.9-4.05 7.78Z" class="cls-2"/><ellipse cx="89.29" cy="133.05" class="cls-2" rx="7.46" ry="11.02"/><ellipse cx="120.92" cy="134.86" class="cls-2" rx="12.15" ry="9.1" transform="rotate(-64.26 120.926 134.861)"/><path d="M88.22 151.75c-2.29-.26-4.13 1.82-3.63 4.08 1.2 5.35 4.85 13.66 15.9 14.79s17.03-5.68 19.94-10.49c1.26-2.08-.08-4.76-2.5-5.03l-29.72-3.35Z" class="cls-2"/></g></svg>