<svg xmlns="http://www.w3.org/2000/svg" viewBox="0 0 256 256"><defs><style>.cls-2,.cls-3{fill:#0c576f;stroke-width:0}.cls-3{fill:#fff100}</style></defs><g id="Layer_13" data-name="Layer 13"><path d="M230.43 94.37 170.8 85.7l-26.67-54.03a18.001 18.001 0 0 0-32.28 0L85.18 85.7l-59.63 8.67c-6.78.99-12.41 5.73-14.53 12.25a17.999 17.999 0 0 0 4.55 18.45l43.15 42.06-10.19 59.38a18.014 18.014 0 0 0 7.16 17.61 17.996 17.996 0 0 0 18.96 1.37l53.33-28.04 53.33 28.04a17.968 17.968 0 0 0 18.95-1.37 18.006 18.006 0 0 0 7.16-17.61l-10.19-59.38 43.15-42.06a17.984 17.984 0 0 0 4.55-18.45 18.004 18.004 0 0 0-14.53-12.25Z" class="cls-2"/><path d="m227.84 99.18-68.99-10.02L128 26.64 97.15 89.16 28.16 99.18l49.92 48.66-11.79 68.71L128 184.11l61.71 32.44-11.79-68.71 49.92-48.66z" style="fill:#fff100;stroke:#fff100;stroke-linecap:round;stroke-linejoin:round;stroke-width:36px"/></g><g id="Layer_4" data-name="Layer 4"><path d="M160.09 133.22c-19.91 0-37.54-13.13-42.87-31.93-3.3-11.64-2.82-28.95 1.23-44.11 4.84-18.12 13.63-29.83 24.76-32.98 2.04-.58 4.19-.87 6.38-.87 22.79 0 48.32 31.87 54.41 53.35 3.22 11.36 1.73 23.32-4.21 33.67-5.92 10.33-15.56 17.83-27.14 21.12a45.91 45.91 0 0 1-12.57 1.76Z" style="stroke-width:0;fill:#0c576f;fill-rule:evenodd"/><path d="M149.59 26.32c21.3 0 45.83 31.08 51.53 51.17 6.2 21.87-6.9 44.74-29.28 51.08a43.145 43.145 0 0 1-11.75 1.64c-18.23 0-34.87-11.72-39.98-29.75-6.2-21.87 1.55-67.04 23.92-73.39 1.82-.52 3.68-.76 5.56-.76m0-6c-2.47 0-4.89.33-7.2.99-27.26 7.73-34.6 57.72-28.06 80.8 2.85 10.05 8.83 18.64 17.3 24.84 8.17 5.98 18.27 9.27 28.45 9.27 4.51 0 9.01-.63 13.39-1.87 25.52-7.24 40.51-33.48 33.41-58.49-3.16-11.16-11.32-24.78-21.28-35.55-11.91-12.88-24.7-19.98-36.02-19.98Z" class="cls-3"/><path d="M28.16 208.58c-3.86 0-7-3.14-7-7 0-54.16 22.34-85.96 41.09-103.11 20.44-18.7 40.85-24.37 41.71-24.6a7.1 7.1 0 0 1 1.84-.25c3.15 0 5.92 2.13 6.75 5.17 1.01 3.72-1.2 7.57-4.92 8.58-.17.05-18.4 5.27-36.2 21.67-24.06 22.16-36.26 53.29-36.26 92.52 0 3.86-3.14 7-7 7Z" class="cls-2"/><path d="M105.79 76.63c1.76 0 3.37 1.18 3.85 2.96.58 2.13-.68 4.33-2.81 4.91-.19.05-18.97 5.34-37.45 22.36-24.7 22.75-37.23 54.62-37.23 94.73 0 2.21-1.79 4-4 4s-4-1.79-4-4c0-53.07 21.81-84.16 40.11-100.89 19.89-18.19 39.63-23.69 40.46-23.92.35-.1.71-.14 1.06-.14m0-6c-.89 0-1.78.12-2.64.36-.87.23-21.95 6.09-42.93 25.27-19.19 17.55-42.06 50.07-42.06 105.32 0 5.51 4.49 10 10 10s10-4.49 10-10c0-38.36 11.87-68.75 35.29-90.32 17.18-15.83 34.81-20.94 34.99-20.99 5.28-1.44 8.43-6.94 6.99-12.25-1.18-4.35-5.14-7.39-9.64-7.39Z" class="cls-3"/><path d="M49.14 196.23c-3.86 0-7-3.14-7-7 0-40.5 17.35-64.31 31.9-77.15 15.81-13.95 31.72-18.24 32.39-18.41a7.006 7.006 0 0 1 8.55 5c.97 3.73-1.27 7.56-4.99 8.54-.12.03-13.71 3.82-26.94 15.6-17.85 15.9-26.9 38.24-26.9 66.42 0 3.86-3.14 7-7 7Z" class="cls-2"/><path d="M108.21 96.44a4 4 0 0 1 3.87 2.99c.56 2.14-.72 4.32-2.85 4.88-.26.07-14.35 3.95-28.18 16.26-18.52 16.49-27.91 39.59-27.91 68.66 0 2.21-1.79 4-4 4s-4-1.79-4-4c0-39.38 16.8-62.47 30.89-74.9 15.31-13.5 30.53-17.59 31.17-17.76.34-.09.68-.13 1.02-.13m0-6c-.85 0-1.71.11-2.53.33-1.75.46-17.55 4.89-33.62 19.07-15.02 13.25-32.92 37.78-32.92 79.4 0 5.51 4.49 10 10 10s10-4.49 10-10c0-27.29 8.71-48.88 25.9-64.18 12.63-11.25 25.63-14.92 25.76-14.95 5.28-1.39 8.48-6.86 7.09-12.19-1.15-4.4-5.13-7.47-9.67-7.47Z" class="cls-3"/><path d="M70.01 188.4c-3.86 0-7-3.14-7-7 0-28.42 14.36-45.08 26.41-54.04 12.82-9.54 25.71-12.47 26.25-12.59.5-.11 1.01-.17 1.51-.17 3.26 0 6.13 2.31 6.84 5.49.83 3.77-1.56 7.51-5.32 8.34-1.69.38-41.68 9.88-41.68 52.97 0 3.86-3.14 7-7 7Z" class="cls-2"/><path d="M117.18 117.6a4.003 4.003 0 0 1 .87 7.91c-1.87.42-44.03 10.43-44.03 55.9 0 2.21-1.79 4-4 4s-4-1.79-4-4c0-27.18 13.7-43.08 25.2-51.64 12.34-9.18 24.6-11.96 25.11-12.07.29-.06.58-.09.86-.09m0-6c-.72 0-1.44.08-2.15.23-1.44.32-14.3 3.37-27.41 13.12-12.6 9.38-27.62 26.78-27.62 56.45 0 5.51 4.49 10 10 10s10-4.49 10-10c0-40.72 37.74-49.68 39.35-50.04 5.36-1.18 8.77-6.53 7.58-11.91-1-4.55-5.11-7.85-9.76-7.85Z" class="cls-3"/></g></svg>