<svg xmlns="http://www.w3.org/2000/svg" viewBox="0 0 256 256"><defs><style>.cls-2{fill:#fff100}.cls-3{fill:#0c576f}.cls-2,.cls-3{stroke-width:0}</style></defs><g id="Layer_13" data-name="Layer 13"><path d="M230.43 94.37 170.8 85.7l-26.67-54.03a18.001 18.001 0 0 0-32.28 0L85.18 85.7l-59.63 8.67c-6.78.99-12.41 5.73-14.53 12.25a17.999 17.999 0 0 0 4.55 18.45l43.15 42.06-10.19 59.38a17.99 17.99 0 0 0 7.16 17.6 17.996 17.996 0 0 0 18.96 1.37l53.33-28.04 53.33 28.04a17.968 17.968 0 0 0 18.95-1.37 17.998 17.998 0 0 0 7.16-17.6l-10.19-59.38 43.15-42.06a17.984 17.984 0 0 0 4.55-18.45 17.988 17.988 0 0 0-14.53-12.25Z" class="cls-3"/><path d="m227.84 99.18-68.99-10.02L128 26.64 97.15 89.16 28.16 99.18l49.92 48.66-11.79 68.71L128 184.11l61.71 32.44-11.79-68.71 49.92-48.66z" style="fill:#fff100;stroke:#fff100;stroke-linecap:round;stroke-linejoin:round;stroke-width:36px"/></g><g id="Layer_4" data-name="Layer 4"><path d="M101.25 206.9c-6.57 0-11.92-5.35-11.92-11.92s5.35-11.92 11.92-11.92h7.27c4.17 0 7.56-3.39 7.56-7.56s-3.69-8.4-8.78-9.82c-11.02-3.05-26.87-9.31-39.77-21.86-15.12-14.68-22.78-34.22-22.78-58.08 0-5.34 4.35-9.69 9.69-9.69h26.28c-.02-.43-.03-.86-.05-1.29-.16-4.32 1.41-8.44 4.44-11.58 3.04-3.16 7.3-4.97 11.69-4.97h62.42c4.39 0 8.65 1.81 11.69 4.97 3.03 3.14 4.6 7.25 4.44 11.58-.02.43-.03.86-.05 1.29h26.28c5.34 0 9.69 4.35 9.69 9.69 0 23.84-7.66 43.38-22.75 58.08-12.91 12.56-28.77 18.82-39.81 21.86-5.01 1.36-8.78 5.58-8.78 9.81s3.39 7.56 7.56 7.56h7.27c6.57 0 11.92 5.35 11.92 11.92s-5.35 11.92-11.92 11.92h-53.5Zm72.59-111.46c-1.92 17.08-5.43 31.6-10.47 43.32 4.36-2.58 8.25-5.53 11.62-8.81.08-.08.16-.15.25-.22 9.04-8.91 14.45-20.43 16.12-34.29h-17.51Zm-109.13 0c1.66 13.98 7.15 25.57 16.34 34.5 3.38 3.28 7.26 6.23 11.62 8.81-5.04-11.72-8.55-26.23-10.47-43.32H64.71Z" class="cls-3"/><path d="M159.21 61.22c7.38 0 13.4 6.07 13.12 13.43-.06 1.5-.11 2.95-.2 4.4h29.43a6.67 6.67 0 0 1 6.69 6.69c0 25.8-9.34 43.75-21.85 55.93-12.34 12.01-27.39 18.06-38.51 21.12-6.55 1.78-10.98 7.25-10.98 12.71 0 5.82 4.74 10.56 10.56 10.56h7.27c4.93 0 8.92 3.98 8.92 8.92s-3.98 8.92-8.92 8.92h-53.5c-4.93 0-8.92-3.98-8.92-8.92s3.98-8.92 8.92-8.92h7.27c5.82 0 10.56-4.74 10.56-10.56 0-5.46-4.46-10.9-10.98-12.71-11.09-3.07-26.14-9.11-38.48-21.12-12.54-12.18-21.87-30.12-21.87-55.93a6.67 6.67 0 0 1 6.69-6.69h29.43c-.08-1.45-.14-2.93-.2-4.4-.28-7.36 5.74-13.43 13.12-13.43h62.42m-2.54 84.32c6.94-3.07 14.16-7.38 20.4-13.46h.03c8.89-8.67 16.13-21.18 17.56-39.65h-23.52c-2.54 25.11-8.14 41.88-14.46 53.11M61.4 92.43h-.03.03c1.39 18.48 8.64 30.99 17.56 39.65 6.24 6.07 13.46 10.39 20.4 13.46-6.33-11.23-11.93-28.01-14.46-53.11H61.41m97.81-37.21H96.8c-5.2 0-10.24 2.15-13.85 5.89-3.17 3.29-5 7.48-5.26 11.95H54.44c-7 0-12.69 5.69-12.69 12.69 0 24.7 7.97 44.96 23.69 60.23 13.35 12.99 29.7 19.46 41.06 22.6 4.11 1.14 6.58 4.42 6.58 6.92s-2.05 4.56-4.56 4.56h-7.27c-8.23 0-14.92 6.69-14.92 14.92s6.69 14.92 14.92 14.92h53.5c8.23 0 14.92-6.69 14.92-14.92s-6.69-14.92-14.92-14.92h-7.27c-2.52 0-4.56-2.05-4.56-4.56s2.45-5.8 6.56-6.92c11.39-3.14 27.75-9.61 41.12-22.61 15.7-15.28 23.66-35.55 23.66-60.23 0-7-5.69-12.69-12.69-12.69h-23.25c-.26-4.47-2.09-8.66-5.26-11.95-3.6-3.74-8.65-5.89-13.85-5.89Zm17.29 43.21h11.38c-2 11.63-6.91 21.38-14.66 29.05-.11.1-.23.2-.33.3a52.39 52.39 0 0 1-3.31 2.96c3.11-9.43 5.42-20.23 6.92-32.32Zm-108.33 0h11.36c1.5 12.09 3.81 22.89 6.92 32.32-1.15-.95-2.26-1.94-3.31-2.96-7.94-7.72-12.96-17.57-14.97-29.35Z" class="cls-2"/><path d="M142.43 122.79h.36c.39 0 .8.01 1.21.03.4.01.81.03 1.21.03h.59c.1 0 .19 0 .29-.02.05 0 .1 0 .15-.01.11 0 .21-.02.31-.03.04 0 .08 0 .11-.01.14-.02.27-.04.41-.07.03 0 .06-.02.1-.02.1-.02.2-.05.3-.07.05-.01.09-.03.13-.04.08-.03.16-.06.25-.09.05-.02.09-.04.13-.06.08-.04.16-.07.24-.12.04-.02.08-.04.11-.06.11-.06.22-.13.32-.21.73-.56 1.36-1.45 1.92-2.55.98-1.93 1.75-4.5 2.45-7.11.32-1.18.62-2.36.92-3.49.18-.66.35-1.31.53-1.93.4-1.37.62-2.72.7-4.06.18-3.02-.4-5.93-1.54-8.63-.99-2.34-2.41-4.51-4.12-6.44-.15-.17-.31-.35-.47-.52-.61-.65-1.25-1.27-1.93-1.87-.67-.59-1.38-1.15-2.1-1.68-1.23-.89-2.53-1.67-3.87-2.35-2.15-1.08-4.41-1.87-6.68-2.31-1.34-.26-2.68-.4-4-.4H125.52c-1.32 0-2.66.14-4 .4-2.27.44-4.53 1.23-6.68 2.31-3.14 1.58-6.03 3.77-8.37 6.41-1.32 1.49-2.48 3.12-3.39 4.86-.27.52-.51 1.05-.74 1.58a20.9 20.9 0 0 0-.75 2.05 18.57 18.57 0 0 0-.09 10.64c.18.62.36 1.27.53 1.93.59 2.21 1.18 4.61 1.87 6.78.45 1.41.94 2.72 1.5 3.82s1.19 1.99 1.92 2.55c.1.08.21.15.32.21.04.02.07.04.11.06l.24.12c.04.02.09.04.13.05.08.03.16.06.25.09.04.01.09.03.13.04.1.03.2.05.3.08.03 0 .06.02.09.02.13.03.27.05.41.07.04 0 .07 0 .11.01l.32.03c.05 0 .1 0 .15.01.1 0 .19.01.29.02h.59c.4 0 .81-.01 1.21-.03.41-.01.82-.03 1.21-.03h.72c.06 0 .12.01.18.02.06 0 .11 0 .17.01.07 0 .13.02.19.03.05 0 .09.01.14.02.07.01.13.03.2.04.04 0 .08.02.12.02l.2.06.1.03c.07.02.13.05.19.08.03.01.06.02.08.03.07.03.13.07.2.11l.06.03c.06.04.12.08.18.13.02.01.03.02.05.04.06.05.12.11.17.16.01.01.02.02.04.03.05.06.1.13.15.2 0 .01.02.02.03.04.05.07.09.16.13.24 0 .01.01.02.02.03.04.09.07.19.1.29v.02c.02.08.04.18.06.27 0 .03.01.06.02.09.02.12.03.25.04.39v.46c0 .26-.04.58-.1.95-.08.56-.21 1.24-.34 1.99-.06.31-.11.64-.17.97-.17 1-.33 2.08-.42 3.14-.07.81-.09 1.6-.04 2.35.05.82.19 1.59.46 2.24.18.44.55.61.98.67.49.08 1.08.03 1.61.09v-6.38c0-.42.29-.76.65-.76h.01c.35 0 .63.34.63.76v5.59c0 .09 0 .18.02.27.11.61.57 1.07 1.12 1.07h.82a1.126 1.126 0 0 0 .81-.39c.04-.05.08-.11.12-.17s.05-.1.08-.15c.05-.11.09-.23.12-.36.02-.09.02-.18.02-.27v-5.59c0-.16.05-.31.13-.43.02-.03.03-.07.06-.1.12-.14.28-.22.46-.22.36 0 .65.34.65.76v5.01s.13 1.92.9 1.92h1.38l.69-1.92v-5.06l.62-.57.63.57v2.53l-.01 2.53.34.96.34.96h1.38c.44 0 .67-.61.79-1.14.01-.06.03-.12.04-.17.02-.11.04-.22.05-.31.01-.09.02-.17.03-.22s0-.08 0-.08v-5.01c0-.42.29-.76.65-.76s.65.34.65.76v5.59c0 .29.08.56.22.78.16.27.41.47.7.53.07.02.15.03.23.03h.82c.08 0 .16 0 .23-.03.45-.11.8-.52.89-1.04.02-.09.02-.18.02-.27v-5.59c0-.41.28-.75.63-.76h.01c.36 0 .65.34.65.76v6.38c.53-.06 1.11-.01 1.61-.09.08-.01.17-.03.25-.05.32-.09.58-.27.73-.63.27-.65.4-1.41.46-2.24.05-.75.03-1.54-.04-2.35-.09-1.06-.25-2.14-.42-3.14-.06-.33-.11-.66-.17-.97-.13-.75-.26-1.43-.34-1.99-.06-.38-.09-.7-.1-.95v-.45c0-.05.01-.1.02-.15 0-.09.01-.17.03-.25 0-.05.02-.1.03-.15.01-.07.03-.14.05-.2.02-.05.04-.1.05-.15.02-.06.04-.11.06-.17.02-.05.05-.09.07-.13.02-.05.05-.1.08-.14l.09-.12c.03-.04.05-.08.08-.11.03-.04.07-.07.11-.11l.09-.09c.04-.03.09-.06.13-.09l.1-.07c.05-.03.1-.05.15-.08.04-.02.07-.04.11-.06.05-.02.1-.04.16-.06.04-.02.08-.03.12-.05.05-.02.11-.03.17-.05.04-.01.08-.03.13-.04.06-.01.12-.02.18-.04.05 0 .09-.02.14-.03.06 0 .11-.02.17-.02.05 0 .11-.02.16-.02.06 0 .13-.01.2-.02.05 0 .1 0 .15-.01h.36Zm-26.84-4.12c-2.07 0-3.54-.99-4.55-2.49-1.35-2.01-1.87-4.96-1.87-7.73 0-3.65 2.44-3.73 5.61-4.01 1.03-.09 2.13-.2 3.25-.46h.02c.34-.08.67-.15 1-.22.1-.02.2-.04.31-.06.24-.05.48-.09.71-.12.11-.02.21-.03.32-.05.27-.04.53-.07.79-.09.05 0 .11-.01.16-.02.3-.03.6-.04.88-.04h.07c.18 0 .35 0 .52.02h.1c.18.01.35.03.51.06.05 0 .09.01.14.02.19.03.37.07.55.12.02 0 .05.02.07.02.15.05.3.1.44.16.04.02.08.03.12.05.16.07.31.16.45.25.02.01.03.02.05.03.12.09.24.18.35.29l.09.09c.12.12.23.25.33.4 0 .01.02.03.02.04.09.14.17.28.24.44.02.04.04.09.06.13.07.18.14.36.19.57v.03c.05.19.08.41.11.62 0 .06.01.12.02.18.02.24.04.48.04.75 0 1.88-.95 3.96-2.4 5.8-2.26 2.89-5.74 5.19-8.7 5.19Zm11.74-.44c-.01.41-.04.82-.08 1.21-.03.38-.07.73-.12 1.02-.02.16-.05.32-.07.48 0 .05-.02.09-.02.14-.02.12-.04.23-.06.34-.01.06-.03.12-.04.17a2.291 2.291 0 0 1-.13.45l-.09.24c-.02.05-.05.1-.08.15-.04.07-.08.13-.12.19-.03.04-.07.08-.11.12-.05.05-.1.09-.15.13-.04.03-.09.06-.14.08-.06.03-.13.05-.2.07-.05.01-.11.02-.17.03-.03 0-.05.01-.08.01-.09 0-.2-.01-.3-.03-.17-.03-.34-.09-.52-.17a3.15 3.15 0 0 1-.26-.13c-.34-.19-.65-.46-.9-.77s-.43-.67-.49-1.04c-.02-.09-.02-.19-.03-.28 0-.19.03-.38.1-.57.07-.19.18-.38.33-.57.31-.37.59-.75.84-1.1.21-.29.39-.56.56-.81.21-.32.39-.59.5-.78.02-.03.03-.06.05-.08.08-.13.13-.22.13-.22s0-.02.02-.05c0 0 0-.02.01-.02.01-.03.03-.06.05-.11 0-.02.02-.04.03-.06.02-.04.04-.08.07-.12.02-.03.03-.05.05-.08.03-.04.05-.08.08-.12.02-.03.05-.06.07-.09.03-.04.06-.08.1-.12l.08-.08c.04-.03.07-.07.11-.09.03-.02.06-.04.1-.06l.12-.06a.36.36 0 0 1 .11-.02c.03 0 .05-.02.08-.02s.07 0 .11.01c.21.04.34.4.41.91s.08 1.19.05 1.88Zm4.77 3.97c-.21.21-.45.4-.71.54-.08.05-.17.09-.26.13-.17.08-.35.13-.52.17-.11.02-.21.03-.3.03-.03 0-.05-.01-.08-.01-.06 0-.12-.02-.17-.03-.07-.02-.14-.04-.2-.07-.05-.02-.09-.05-.14-.08-.05-.04-.11-.08-.15-.13-.04-.04-.07-.08-.11-.12-.04-.06-.08-.12-.12-.19-.03-.05-.06-.1-.08-.15a3.11 3.11 0 0 1-.09-.24c-.02-.06-.04-.11-.06-.17-.03-.09-.05-.19-.07-.28-.01-.06-.03-.11-.04-.17l-.06-.34c0-.05-.02-.09-.03-.14-.03-.16-.05-.32-.07-.48-.04-.29-.08-.64-.12-1.02-.03-.38-.06-.8-.08-1.21-.04-1.23.02-2.44.35-2.73.04-.03.07-.05.12-.06.04 0 .07-.01.11-.01.03 0 .05.01.08.02.04 0 .07.01.11.02.04.01.08.03.12.06.03.02.06.03.09.06.04.03.07.06.11.09.03.03.06.05.08.08.03.04.06.08.09.11.02.03.05.06.07.09.03.04.05.08.08.12.02.03.04.06.05.09.02.04.04.08.06.11.01.02.03.05.04.07.02.04.03.06.04.09 0 .02.02.03.02.04v.02c0 .01.01.03.01.03s.86 1.49 2.08 2.99c.76.93.41 1.97-.29 2.69Zm8.31-3.52c-4.54 0-10.32-5.41-11.02-10.08-.05-.31-.07-.62-.07-.92 0-.27.02-.52.04-.76 0-.06.01-.12.02-.18.03-.22.06-.43.11-.63v-.03c.05-.2.12-.39.19-.57.02-.05.04-.09.06-.13.07-.16.15-.3.24-.44 0-.01.02-.03.03-.04.1-.14.21-.27.33-.4l.09-.09c.11-.1.22-.2.34-.28.02-.01.03-.03.05-.04.14-.09.29-.17.44-.25.04-.02.08-.04.12-.05.14-.06.28-.11.43-.16.03 0 .05-.02.08-.03.17-.05.36-.09.54-.12.05 0 .1-.01.14-.02.16-.02.33-.04.51-.06h.1c.17-.01.34-.02.52-.02h.07a8.769 8.769 0 0 1 1.05.06c.26.02.52.06.78.09.11.02.21.03.32.05.23.04.47.08.71.12.1.02.2.04.31.06.33.07.66.14 1 .22h.02c2 .47 3.95.46 5.5.7.29.05.55.1.81.17.34.09.67.2.95.34.33.17.62.39.86.67.47.56.74 1.38.74 2.59 0 .91-.06 1.83-.18 2.74-.08.6-.19 1.2-.34 1.77-.79 3.16-2.58 5.71-5.91 5.71Z" class="cls-2"/></g></svg>