<svg xmlns="http://www.w3.org/2000/svg" viewBox="0 0 256 256"><defs><filter id="luminosity-invert-noclip" width="235.69" height="238.91" x="10.16" y="8.64" color-interpolation-filters="sRGB" filterUnits="userSpaceOnUse"><feColorMatrix result="cm" values="-1 0 0 0 1 0 -1 0 0 1 0 0 -1 0 1 0 0 0 1 0"/><feFlood flood-color="#fff" result="bg"/><feBlend in="cm" in2="bg"/></filter><filter id="luminosity-invert-noclip-2" width="195.39" height="171.56" x="30.3" y="38.2" color-interpolation-filters="sRGB" filterUnits="userSpaceOnUse"><feColorMatrix result="cm" values="-1 0 0 0 1 0 -1 0 0 1 0 0 -1 0 1 0 0 0 1 0"/><feFlood flood-color="#fff" result="bg"/><feBlend in="cm" in2="bg"/></filter><mask id="mask" width="235.69" height="238.91" x="10.16" y="8.64" maskUnits="userSpaceOnUse"><path d="m225.7 87.55-38.75-2.87h-13.4l14.44-46.48-33.43 30.37 5.26-30.37-27.85 48.49L69.7 128.5l1.35 9.43-30.37 35.86 24.51-10.5-34.88 37.52 51.32-31.21c.13 0-15.71 25.51-15.71 25.51l32.11-15.21-1.01-1.4c20.42-6.51 68.22-22.09 68.22-22.09l12.03-26.89 37.05-2.53-25.5-13.5 36.88-25.95Z" class="cls-5" style="filter:url(#luminosity-invert-noclip)"/></mask><mask id="mask-1" width="195.39" height="171.56" x="30.3" y="38.2" maskUnits="userSpaceOnUse"><path d="m225.7 87.55-38.75-2.87h-13.4l14.44-46.48-33.43 30.37 5.26-30.37-27.85 48.49L69.7 128.5l1.35 9.43-30.37 35.86 24.51-10.5-34.88 37.52 51.32-31.21c.13 0-15.71 25.51-15.71 25.51l32.11-15.21-1.01-1.4c20.42-6.51 68.22-22.09 68.22-22.09l12.03-26.89 37.05-2.53-25.5-13.5 36.88-25.95Z" class="cls-5" style="filter:url(#luminosity-invert-noclip-2)"/></mask><style>.cls-3{fill:#fff100}.cls-4{stroke:#fff100;stroke-linecap:round;stroke-linejoin:round}.cls-5{fill:#fff}.cls-3,.cls-5,.cls-6{stroke-width:0}.cls-6{fill:#0c576f}.cls-4{fill:none;stroke-width:8px}</style></defs><g id="Layer_13" data-name="Layer 13" style="mask:url(#mask)"><path d="M230.43 94.37 170.8 85.7l-26.67-54.03a18.001 18.001 0 0 0-32.28 0L85.18 85.7l-59.63 8.67c-6.78.99-12.41 5.73-14.53 12.25a17.999 17.999 0 0 0 4.55 18.45l43.14 42.06-10.18 59.38a17.99 17.99 0 0 0 7.16 17.6 17.996 17.996 0 0 0 18.96 1.37l53.33-28.04 53.33 28.04a17.968 17.968 0 0 0 18.95-1.37 17.998 17.998 0 0 0 7.16-17.6l-10.18-59.38 43.14-42.06a17.984 17.984 0 0 0 4.55-18.45 17.988 17.988 0 0 0-14.53-12.25Z" class="cls-6"/><path d="m227.84 99.18-68.99-10.02L128 26.64 97.15 89.16 28.16 99.18l49.92 48.66-11.79 68.71L128 184.11l61.71 32.44-11.79-68.71 49.92-48.66z" style="stroke:#fff100;stroke-linecap:round;stroke-linejoin:round;fill:#fff100;stroke-width:36px"/></g><g id="Layer_4" data-name="Layer 4"><g style="mask:url(#mask-1)"><path d="M187.64 106.15c-.79 0-1.58-.31-2.17-.93l-20.92-21.86c-.55-.57-.85-1.34-.83-2.14s.35-1.55.92-2.1l20.59-19.71c4.84-4.63 15.49-9.58 23.64-9.58 3.95 0 7.02 1.12 9.13 3.31 7.8 8.15-1.52 26.55-7.71 32.46l-20.59 19.71c-.58.56-1.33.83-2.07.83Z" class="cls-6"/><path d="M208.89 52.83c2.86 0 5.34.7 6.96 2.39 5.78 6.04-1.58 22.44-7.61 28.22l-20.59 19.71-20.91-21.86 20.59-19.71c4.34-4.16 14.22-8.75 21.57-8.75m0-6c-9.16 0-20.48 5.41-25.72 10.42l-20.59 19.71a5.972 5.972 0 0 0-1.85 4.2c-.04 1.59.56 3.13 1.66 4.28l20.91 21.86a5.999 5.999 0 0 0 4.34 1.85c1.49 0 2.98-.55 4.15-1.67l20.59-19.71c3.81-3.65 7.65-10.1 9.78-16.44 2.91-8.69 2.21-15.89-1.98-20.26-1.85-1.93-5.31-4.24-11.29-4.24Z" class="cls-3"/><path d="M78.3 164.44c-.85 0-1.68-.36-2.26-1.02a57.26 57.26 0 0 1-3.27-4.08c-18.54-25.53-26.34-79.62-.96-98.05 5.99-4.35 13.48-6.55 22.27-6.55 18.24 0 41.32 9.85 58.8 25.1.74.65 1.12 1.61 1.01 2.59l-1.14 10.31a3.007 3.007 0 0 1-2.37 2.61l-18.25 3.81 4.4 20.43a3 3 0 0 1-2.93 3.63c-.23 0-.46-.03-.68-.08l-24.48-5.73-.03 21.57c0 .92-.43 1.8-1.16 2.36a3.013 3.013 0 0 1-2.57.54l-21.73-5.48-1.67 25.23a2.995 2.995 0 0 1-2.99 2.8Z" class="cls-6"/><path d="M94.09 57.73c18.9 0 41.44 10.94 56.83 24.37l-1.14 10.31-18.73 3.91-2.48.52 5.03 23.38-28.16-6.59-.03 25.35-25.22-6.35-1.9 28.82a53.387 53.387 0 0 1-3.1-3.86c-17.47-24.06-25.68-76.39-1.62-93.86 5.75-4.18 12.83-5.98 20.51-5.98m0-6c-9.43 0-17.52 2.4-24.03 7.13-12.65 9.18-18.76 26.84-17.22 49.72 1.3 19.31 8.01 39.43 17.51 52.53 1.04 1.43 2.17 2.84 3.44 4.29a5.993 5.993 0 0 0 6.44 1.73c2.3-.78 3.9-2.87 4.06-5.29l1.43-21.64 18.24 4.6c.48.12.98.18 1.47.18 1.32 0 2.62-.44 3.69-1.26a6.033 6.033 0 0 0 2.32-4.73l.02-17.79 20.8 4.87c.45.11.91.16 1.37.16 1.55 0 3.07-.61 4.2-1.72a5.992 5.992 0 0 0 1.66-5.54l-3.76-17.48 15.3-3.19a6.015 6.015 0 0 0 4.74-5.22l1.14-10.31c.22-1.95-.54-3.89-2.02-5.18-17.99-15.7-41.85-25.84-60.77-25.84Z" class="cls-3"/><path d="M131.7 206.76c-23.17 0-44.42-14.49-52.87-36.06-.29-.74-.27-1.57.04-2.29l11.55-26.48a3.01 3.01 0 0 1 2.75-1.8c.59 0 1.17.17 1.67.51l18.38 12.37 7.31-20.23c.31-.86 1-1.53 1.87-1.82a2.982 2.982 0 0 1 2.59.32l20.29 13.16 2.55-19.01a2.996 2.996 0 0 1 2.97-2.6c.14 0 .28 0 .42.03l19.3 2.71 3.6-7.36c.49-1 1.5-1.65 2.62-1.68h.08c1.09 0 2.09.59 2.62 1.54 3.08 5.52 5.38 10.9 6.86 15.99 8.74 30.09-8.63 61.69-38.73 70.43a57.057 57.057 0 0 1-15.87 2.27Z" class="cls-6"/><path d="M176.82 119.54c2.91 5.22 5.17 10.44 6.6 15.36 8.29 28.55-8.13 58.42-36.69 66.71a53.638 53.638 0 0 1-15.03 2.15c-21.75 0-41.9-13.29-50.07-34.15l11.55-26.48 21.58 14.52 8.61-23.84 24.27 15.74 3.18-23.7 21.45 3.02 4.56-9.32m0-6h-.16a5.995 5.995 0 0 0-5.23 3.36l-2.65 5.41-17.14-2.41a5.99 5.99 0 0 0-4.47 1.16c-1.27.97-2.11 2.4-2.32 3.98l-1.92 14.31-16.31-10.58a5.974 5.974 0 0 0-5.17-.66 6.004 6.004 0 0 0-3.73 3.65l-6 16.61-15.2-10.22a6.025 6.025 0 0 0-5.03-.78 6 6 0 0 0-3.82 3.36l-11.55 26.48a5.987 5.987 0 0 0-.09 4.59c4.43 11.3 12.1 20.87 22.17 27.68 9.96 6.73 21.54 10.28 33.49 10.28 5.63 0 11.25-.8 16.71-2.39 31.68-9.2 49.98-42.46 40.77-74.15-1.54-5.3-3.94-10.89-7.12-16.61a5.989 5.989 0 0 0-5.24-3.08Z" class="cls-3"/></g><path d="m187.98 38.2-14.44 46.49h13.4l38.75 2.86-36.88 25.95 25.5 13.5-37.05 2.53-12.03 26.89S117.42 172 97.01 178.51l1.01 1.4-32.11 15.21s15.84-25.51 15.71-25.51L30.3 200.82l34.88-37.52-24.51 10.5 30.37-35.86-1.35-9.43 62.27-41.81 27.85-48.49-5.26 30.37 33.43-30.37m-28.17-6c-2.1 0-4.11 1.11-5.2 3.01L127.46 82.5l-61.11 41.03a5.99 5.99 0 0 0-2.59 5.83l.97 6.76-28.62 33.8a5.999 5.999 0 0 0-.25 7.44 5.996 5.996 0 0 0 5.9 2.33l-15.84 17.03a6.007 6.007 0 0 0-.26 7.88 6.006 6.006 0 0 0 4.65 2.21c1.07 0 2.15-.28 3.11-.87l30.05-18.28c-.94 1.51-1.83 2.96-2.66 4.28a6.007 6.007 0 0 0 .62 7.16c1.17 1.31 2.81 2 4.48 2 .87 0 1.74-.19 2.57-.58l32.11-15.21a6.022 6.022 0 0 0 2.69-2.52c21.97-7.04 63.37-20.54 63.82-20.68a6.03 6.03 0 0 0 3.62-3.25l10.56-23.6 33.46-2.29c2.67-.18 4.9-2.12 5.46-4.74.56-2.62-.69-5.3-3.06-6.55l-16.85-8.92 28.88-20.32a6 6 0 0 0 2.33-6.51 6.015 6.015 0 0 0-5.34-4.39l-38.75-2.87c-.15-.01-.29-.02-.44-.02h-5.26l12.02-38.7c.8-2.58-.22-5.39-2.51-6.84-.99-.63-2.11-.94-3.22-.94-1.46 0-2.9.53-4.04 1.56l-20.5 18.62 2.28-13.16a6.005 6.005 0 0 0-5.91-7.03Zm28.17 12Z" class="cls-3"/></g><g id="Layer_7" data-name="Layer 7"><path d="m175.8 90.58-31.89 13.67 23.39-23.47 8.5 9.8z" class="cls-3"/><path d="m180.32 94.94-41.03 23.4 32.14-32.84 8.89 9.44z" class="cls-3"/><path d="m187.98 102.68-25.32 15.97 16.18-25.18 9.14 9.21z" class="cls-3"/><path d="M208.24 83.44c6.04-5.78 13.39-22.18 7.61-28.22-5.78-6.04-22.49.59-28.53 6.36l-20.59 19.71 20.91 21.86 20.59-19.71ZM105.42 138.97l.03-25.35 28.16 6.59-5.03-23.38 2.48-.52 18.73-3.91 1.14-10.31c-21.64-18.88-57.42-32.84-77.34-18.38-24.06 17.47-15.85 69.8 1.62 93.86.98 1.35 2.02 2.63 3.1 3.86l1.9-28.82 25.22 6.35Z" class="cls-6"/><path d="M146.73 201.61c28.55-8.29 44.98-38.16 36.69-66.71-1.43-4.92-3.69-10.14-6.6-15.36l-4.56 9.32-21.45-3.02-3.18 23.7-24.27-15.74-8.61 23.84-21.58-14.52-11.55 26.48c10.04 25.63 38.16 39.83 65.11 32Z" class="cls-6"/><path d="m72.66 110.92 23.13 3.84M82.3 124.41l3.84-23.13M100.01 78.22l23.13 3.84M109.66 91.7l3.84-23.13" class="cls-4"/></g></svg>