<svg xmlns="http://www.w3.org/2000/svg" viewBox="0 0 256 256"><defs><style>.cls-2{fill:#fff100}.cls-3{fill:#0c576f}.cls-2,.cls-3{stroke-width:0}</style></defs><g id="Layer_13" data-name="Layer 13"><path d="M230.43 94.37 170.8 85.7l-26.67-54.03a18.001 18.001 0 0 0-32.28 0L85.18 85.7l-59.63 8.67c-6.78.99-12.41 5.73-14.53 12.25a17.999 17.999 0 0 0 4.55 18.45l43.14 42.06-10.18 59.38a18.014 18.014 0 0 0 7.16 17.61 17.996 17.996 0 0 0 18.96 1.37l53.33-28.04 53.33 28.04a17.968 17.968 0 0 0 18.95-1.37 18.006 18.006 0 0 0 7.16-17.61l-10.18-59.38 43.14-42.06a17.984 17.984 0 0 0 4.55-18.45 18.004 18.004 0 0 0-14.53-12.25Z" class="cls-3"/><path d="m227.84 99.18-68.99-10.02L128 26.64 97.15 89.16 28.16 99.18l49.92 48.66-11.79 68.71L128 184.11l61.71 32.44-11.79-68.71 49.92-48.66z" style="fill:#fff100;stroke:#fff100;stroke-linecap:round;stroke-linejoin:round;stroke-width:36px"/></g><g id="Layer_4" data-name="Layer 4"><path d="M69.38 105.24c-3.27 0-6.18-1.21-8.42-3.51-3.46-3.54-5.26-9.63-5.09-17.17C56.14 72.7 65 61.78 76.02 59.7c2.35-.44 5.36-.67 8.95-.67 3.15 0 6.5.17 9.69.41-1.04-.91-1.94-2.12-2.58-3.79-.78-2.07-.32-4.57 1.26-6.86 2.18-3.16 6.92-6.53 13.68-6.53 1.88 0 3.81.28 5.72.82 4.47 1.26 8.38 2.75 11.77 4.48-2.76-3.22-5.21-6.58-4.56-10.42.46-2.72 2.37-5 5.83-6.95 1.75-.99 3.79-1.49 6.06-1.49 7.45 0 17.64 5.64 27.26 15.09 7.38 7.24 15.25 17.93 15.25 26.19 0 10.39-5.33 19.81-14.25 25.22a3 3 0 0 1-1.55.43c-.79 0-1.57-.31-2.16-.91-8.32-8.58-19.42-13.82-31.27-14.73-1.4-.11-2.65-.16-3.8-.16-7.56 0-14.81 1.58-21.56 4.71-7.27 3.37-13.52 8.43-18.06 14.64-1.65 2.25-3.84 3.93-6.34 4.88-2.09.79-4.1 1.18-5.97 1.18Z" class="cls-3"/><path d="M131.82 31.7c14.41 0 39.52 25.2 39.52 38.29 0 9.62-5.14 18.01-12.81 22.65-8.56-8.83-20.21-14.63-33.19-15.63-1.33-.1-2.68-.17-4.03-.17-8.19 0-15.93 1.8-22.82 4.99-7.71 3.57-14.34 8.92-19.22 15.59-1.26 1.72-2.98 3.09-4.98 3.84-1.79.68-3.43.99-4.91.99-7.24 0-10.75-7.54-10.52-17.61.26-11.03 8.56-20.26 17.71-21.99 2.36-.45 5.27-.62 8.39-.62 10.67 0 23.7 2.02 24.82 2.02.06 0 .09 0 .07-.02-5.75-5.95-12.73-3.49-14.98-9.44-1.24-3.28 3.97-9.32 12.13-9.32 1.54 0 3.18.21 4.91.7 11.74 3.32 18.03 7.78 21.76 12.52 2.05-9.65-19.91-18.06-6.42-25.68 1.34-.76 2.89-1.11 4.58-1.11m0-6c-2.79 0-5.32.63-7.53 1.88-4.24 2.39-6.7 5.44-7.31 9.06-.28 1.66-.16 3.21.25 4.68-1.19-.4-2.41-.77-3.68-1.13-2.18-.62-4.38-.93-6.54-.93-7.92 0-13.54 4.04-16.15 7.83-2.01 2.91-2.65 6.16-1.8 9.02-1.38-.05-2.76-.08-4.1-.08-3.82 0-6.93.24-9.5.72-12.37 2.33-22.29 14.52-22.6 27.74-.2 8.47 1.86 15.15 5.94 19.33 2.82 2.89 6.48 4.42 10.57 4.42 2.24 0 4.6-.46 7.03-1.38 3.05-1.15 5.71-3.19 7.7-5.91 4.25-5.8 10.09-10.54 16.91-13.69 6.35-2.94 13.18-4.43 20.3-4.43 1.07 0 2.24.05 3.57.15 11.12.86 21.54 5.77 29.35 13.83a5.997 5.997 0 0 0 4.31 1.83c1.07 0 2.14-.28 3.1-.87 9.83-5.95 15.7-16.34 15.7-27.78s-12.36-24.61-16.15-28.33c-3.81-3.74-17.19-15.95-29.37-15.95Z" class="cls-2"/><path d="M173.7 145.48a3 3 0 0 1-2.92-3.69c.86-3.68 1.3-7.44 1.3-11.2 0-7.82-1.82-15.32-5.4-22.28a3.003 3.003 0 0 1 2.67-4.38c.62 0 1.25.19 1.78.58l37.63 27.73a3.01 3.01 0 0 1 1.16 3.02 2.988 2.988 0 0 1-2.25 2.32l-33.28 7.8c-.23.05-.46.08-.68.08Z" class="cls-3"/><path d="m169.35 106.95 37.63 27.73-33.28 7.8c.9-3.85 1.38-7.83 1.38-11.89 0-8.52-2.08-16.55-5.73-23.65m0-6a5.992 5.992 0 0 0-5.33 8.74c3.36 6.53 5.06 13.56 5.06 20.9 0 3.53-.41 7.07-1.22 10.52a6.004 6.004 0 0 0 5.84 7.37c.46 0 .92-.05 1.37-.16l33.28-7.8a5.988 5.988 0 0 0 4.51-4.64c.47-2.29-.43-4.65-2.32-6.04l-37.63-27.73a5.998 5.998 0 0 0-3.56-1.17Z" class="cls-2"/><path d="M166.6 197.62c-6.64 0-14.42-6.1-14.97-14.86-.48-7.61 5.61-16.95 7.76-19.32a48.74 48.74 0 0 0 8.7-13.48 3.04 3.04 0 0 1 2.13-1.75c.21-.04.42-.07.62-.07.75 0 1.48.28 2.04.8 8.14 7.52 15.83 21.92 15.83 29.63 0 10.9-11.67 19.05-22.11 19.05Z" class="cls-3"/><path d="M170.85 151.14c7.86 7.26 14.87 21.06 14.87 27.43 0 8.87-9.83 16.05-19.11 16.05-5 0-11.52-4.84-11.98-12.05-.39-6.19 4.77-14.68 6.99-17.11 3.86-4.25 6.98-9.08 9.23-14.31m0-6c-.41 0-.83.04-1.24.13-1.9.4-3.49 1.71-4.27 3.49-2 4.65-4.75 8.9-8.16 12.65-2.47 2.71-9.08 12.86-8.54 21.53.65 10.42 9.99 17.68 17.96 17.68 5.9 0 12.03-2.2 16.79-6.02 5.29-4.25 8.32-10.09 8.32-16.03 0-8.54-8.01-23.71-16.8-31.83a6.022 6.022 0 0 0-4.07-1.59Z" class="cls-2"/><path d="M54.32 200.74c-.94 0-1.83-.44-2.39-1.19a2.98 2.98 0 0 1-.49-2.63l22.6-79.76c4.71-20.71 23.07-35.05 45.72-35.69.47-.01.94-.02 1.41-.02 25.94 0 47.56 20.17 49.2 45.93.89 13.89-3.89 27.06-13.45 37.1-4.7 4.94-7.2 11.36-7.04 18.1l.37 15.09c.02.81-.29 1.59-.85 2.17-.56.58-1.34.91-2.15.91H54.32Z" class="cls-3"/><path d="M121.15 84.45c24.11 0 44.66 18.93 46.21 43.12.86 13.52-4.1 25.89-12.63 34.84-5.19 5.45-8.05 12.72-7.86 20.24l.37 15.09H54.32l22.62-79.84c4.53-20.06 22.42-32.85 42.9-33.44.44-.01.88-.02 1.32-.02m0-6c-.5 0-.99 0-1.49.02-24.01.69-43.49 15.93-48.54 37.95L48.55 196.1a6 6 0 0 0 5.78 7.63h92.92c1.62 0 3.17-.65 4.29-1.81a5.996 5.996 0 0 0 1.7-4.34l-.37-15.09c-.15-5.93 2.06-11.6 6.21-15.96 10.15-10.65 15.21-24.63 14.27-39.36-.84-13.21-6.72-25.51-16.55-34.64-9.78-9.09-22.44-14.09-35.65-14.09Z" class="cls-2"/><circle cx="135.52" cy="125.04" r="12.2" class="cls-2"/></g></svg>