<svg xmlns="http://www.w3.org/2000/svg" viewBox="0 0 256 256"><defs><style>.cls-3{fill:#0c576f;stroke-width:0}</style></defs><g id="Layer_13" data-name="Layer 13"><path d="M230.43 94.37 170.8 85.7l-26.67-54.03a18.001 18.001 0 0 0-32.28 0L85.18 85.7l-59.63 8.67c-6.78.99-12.41 5.73-14.53 12.25a17.999 17.999 0 0 0 4.55 18.45l43.15 42.06-10.19 59.38a18.014 18.014 0 0 0 7.16 17.61 17.996 17.996 0 0 0 18.96 1.37l53.33-28.04 53.33 28.04a17.968 17.968 0 0 0 18.95-1.37 18.006 18.006 0 0 0 7.16-17.61l-10.19-59.38 43.15-42.06a17.984 17.984 0 0 0 4.55-18.45 18.004 18.004 0 0 0-14.53-12.25Z" class="cls-3"/><path d="m227.84 99.18-68.99-10.02L128 26.64 97.15 89.16 28.16 99.18l49.92 48.66-11.79 68.71L128 184.11l61.71 32.44-11.79-68.71 49.92-48.66z" style="fill:#fff100;stroke:#fff100;stroke-linecap:round;stroke-linejoin:round;stroke-width:36px"/></g><g id="Layer_4" data-name="Layer 4"><path d="M51.75 203.86c-4.24 0-8.49-1.88-11.65-5.16a3.02 3.02 0 0 1-.32-.39l-1.96-2.86c-3.94-4.3-4.92-10.58-2.49-16.08 1.47-3.34 3.99-6.36 6.93-8.29l49.61-35.03c1.19-.95 2.57-1.46 3.99-1.46.87 0 1.72.19 2.5.55l8.48-6.37c1.76-7.62 13.4-54.49 37.25-76.67 7.98-7.55 18.13-12 28.58-12.5.78-.04 1.55-.06 2.33-.06 9.88 0 19.69 2.98 27.62 8.4 5.88 3.68 10.51 9.26 13.03 15.72 4.38 9.58 5.27 20.01 2.63 31-.01.04-.02.09-.04.13-3.1 10.7-9.18 19.56-17.6 25.63-21.79 15.99-60.75 20.82-82.32 22.28l-8.63 7.15c.51 2.03.04 4.08-1.38 5.83l-.24.27-43.74 42.28c-2.45 2.52-5.89 4.43-9.44 5.26-1.02.24-2.07.35-3.12.35ZM203.9 93.33c-4 5.36-8.67 10.03-13.85 13.8-4.78 3.62-10.43 7.28-16.64 10.81 6.95-2.46 13.5-5.53 18.64-9.42 4.87-3.62 8.7-8.05 10.8-12.48.39-.88.74-1.79 1.05-2.71Zm-52.79 19.21c12.54-5.9 22.4-11.63 29.87-17.36 10.21-7.84 15.58-15.79 17.74-22.06l-47.6 39.42Zm38.31-49.91c-7.77 1.21-16.69 5.88-24.61 13.01-8.69 7.48-16.94 17.72-23.39 26.74l48-39.75Zm-17.81-9.15c-6.55.94-12.75 3.97-17.8 8.75-4.79 4.54-9.04 10.52-12.67 16.79 4.78-5.67 9.51-10.53 14.17-14.56 5.06-4.46 10.51-8.13 16.29-10.98Z" class="cls-3"/><path d="M174.99 42.55c9.28 0 18.55 2.82 25.97 7.91 5.37 3.35 9.62 8.49 11.91 14.39 4.33 9.41 4.81 19.4 2.47 29.13-2.81 9.69-8.34 18.17-16.47 24.03-22.9 16.8-66.38 20.76-81.16 21.74l-.47-.04-10.79 8.93-.09.94c.81 1.5.67 2.91-.4 4.23l-43.77 42.31c-2.1 2.17-5.09 3.78-8 4.46-.81.19-1.63.28-2.45.28-3.56 0-7.04-1.7-9.5-4.24l-2.08-3.04c-3.45-3.64-3.9-8.89-2.1-12.99 1.2-2.73 3.35-5.37 5.87-7.03l49.73-35.12c.69-.57 1.44-.85 2.18-.85.92 0 1.81.44 2.52 1.29l11.21-8.42.04-.47c3.25-14.38 15.2-55.9 36.49-75.69 7.28-6.9 16.69-11.22 26.68-11.7.73-.04 1.46-.05 2.19-.05m-48.75 62c8.32-12.96 19.17-27.57 31.03-37.83 8.26-7.28 17.76-12.54 28.45-15.33-2.3-.69-4.18-.87-6.53-1.09-1.07-.1-2.13-.15-3.19-.15-9.15 0-17.73 3.7-24.26 9.89-10.92 10.34-19.73 28.47-25.5 44.5m1.63 12.94 69.87-57.86-2.35-.22c-.68-.06-1.39-.1-2.12-.1-8.31 0-19.52 4.23-30.47 14.09-13.4 11.53-26.53 30.2-34.94 44.09m5.11 6.17c15.26-6.14 35.53-15.14 49.83-26.11 14.3-10.97 20.65-23.17 20.04-31.75l-69.87 57.86m12.37 4.48c16.88-3.15 36.28-7.96 48.52-17.23 5.09-3.78 9.34-8.6 11.7-13.59 2.41-5.46 3.45-11.52 3.09-17.71-4.73 9.98-11.72 18.8-20.36 25.09-12.24 9.27-28.67 17.68-42.95 23.44m29.65-91.59c-.82 0-1.65.02-2.47.06-11.16.54-21.99 5.27-30.5 13.32-23.53 21.9-35.38 66.77-37.85 77.1l-6.36 4.78c-.64-.14-1.29-.22-1.95-.22-2.08 0-4.07.71-5.79 2.05l-49.51 34.96c-3.38 2.25-6.28 5.73-7.98 9.56-2.88 6.52-1.74 13.98 2.88 19.15l1.84 2.69c.19.28.4.54.63.78 3.73 3.86 8.77 6.07 13.81 6.07 1.29 0 2.57-.15 3.8-.43 4.08-.95 8.04-3.15 10.88-6.05l43.71-42.25c.17-.17.34-.35.49-.53 1.57-1.93 2.33-4.19 2.24-6.47l6.61-5.47c22.07-1.56 60.85-6.59 82.94-22.8 8.92-6.44 15.4-15.86 18.69-27.2.03-.09.05-.18.07-.27 2.75-11.47 1.79-22.83-2.78-32.87-2.76-7.01-7.78-13.06-14.15-17.06-8.41-5.73-18.8-8.89-29.26-8.89Z" style="stroke-width:0;fill:#fff100"/></g></svg>