<svg xmlns="http://www.w3.org/2000/svg" viewBox="0 0 256 256"><defs><style>.cls-3{fill:#0c576f;stroke-width:0}</style></defs><g id="Layer_13" data-name="Layer 13"><path d="M230.43 94.37 170.8 85.7l-26.67-54.03a18.001 18.001 0 0 0-32.28 0L85.18 85.7l-59.63 8.67c-6.78.99-12.41 5.73-14.53 12.25a17.999 17.999 0 0 0 4.55 18.45l43.15 42.06-10.19 59.38a17.99 17.99 0 0 0 7.16 17.6 17.996 17.996 0 0 0 18.96 1.37l53.33-28.04 53.33 28.04a17.968 17.968 0 0 0 18.95-1.37 17.998 17.998 0 0 0 7.16-17.6l-10.19-59.38 43.15-42.06a17.984 17.984 0 0 0 4.55-18.45 17.988 17.988 0 0 0-14.53-12.25Z" class="cls-3"/><path d="m227.84 99.18-68.99-10.02L128 26.64 97.15 89.16 28.16 99.18l49.92 48.66-11.79 68.71L128 184.11l61.71 32.44-11.79-68.71 49.92-48.66z" style="fill:#fff100;stroke:#fff100;stroke-linecap:round;stroke-linejoin:round;stroke-width:36px"/></g><g id="Layer_4" data-name="Layer 4"><path d="M48.72 205.65c-.65 0-1.3-.21-1.84-.63-22.26-17.25-26.46-41.95-26.63-42.99-.18-1.13.3-2.27 1.24-2.93l8.87-6.24c.51-.36 1.12-.55 1.73-.55.28 0 .55.04.82.12l3.47.99 16.42-7.1-.04-.57c-.07-1.11.47-2.16 1.42-2.75l7.98-4.92a2.981 2.981 0 0 1 2.9-.14l1.19.59L113 107.82l-.25-.42a3.01 3.01 0 0 1-.33-2.29c.2-.78.7-1.44 1.39-1.84l7.82-4.57-1.32-2.39-10.41 8.52c-.54.44-1.21.68-1.9.68-.15 0-.3-.01-.45-.03-.84-.13-1.58-.6-2.05-1.31l-9.38-14.15c-.47-.71-.62-1.58-.4-2.41.21-.82.76-1.52 1.52-1.91l26.23-13.66.2-1.57c.12-.92.65-1.73 1.45-2.21l15.06-8.92a3.038 3.038 0 0 1 1.36-2.97l9.44-5.99c.5-.32 1.06-.47 1.6-.47.98 0 1.94.48 2.52 1.36l9.31 14.29c.44.67.59 1.49.42 2.27-.15.7-.55 1.32-1.11 1.75l4.86 3.13c.15-.64.51-1.23 1.06-1.66l37.99-29.79c.54-.43 1.2-.64 1.85-.64s1.37.23 1.92.7c4.17 3.48 7.94 7.31 11.24 11.4l3.18.71c2 .45 3.68 1.66 4.74 3.4 1.06 1.75 1.36 3.8.84 5.77l-.66 2.54c4.45 8.65 5.42 14.98 5.46 15.26.19 1.27-.45 2.52-1.6 3.11l-42.76 21.98c-.44.23-.91.33-1.37.33s-.91-.11-1.33-.31l-1.49 2.45c-.24.4-.57.73-.97.98l-11.75 7.4 6.24.89c.96.14 1.79.73 2.24 1.58l7.53 14.46c.65 1.25.35 2.77-.73 3.68l-10.74 9.06 5.41 21.38c.3 1.19-.16 2.45-1.15 3.17l-15.01 10.85a3.029 3.029 0 0 1-2.5.48 3.03 3.03 0 0 1-1.97-1.61l-8.03-16.72-1.12.84c-.52.39-1.15.6-1.79.6-.21 0-.41-.02-.62-.06a3 3 0 0 1-1.99-1.46l-8.66-15.28a2.99 2.99 0 0 1 .77-3.85l.05-.04-9.8-1.53-18.15 12.07 15.78 25.92c.84 1.37.44 3.16-.9 4.05l-16.27 10.87a2.984 2.984 0 0 1-4.07-.7l-18.13-24.45-2.9 1.93-.06 1.43c-.04.96-.54 1.84-1.34 2.37l-7.39 4.91c-.5.33-1.08.5-1.66.5-.4 0-.81-.08-1.19-.25l-1.06-.46-13.27 12.77-.88 3.51c-.19.76-.67 1.42-1.34 1.83l-9.93 6.11c-.48.3-1.03.44-1.57.44ZM174.67 135l.89-.75-1 .58.11.18Zm-35.08-45.44 6.68-4.09-.31-6.06-8.84 6.42 2.48 3.73Z" class="cls-3"/><path d="M209.48 43.63c4.67 3.89 8.43 7.91 11.47 11.8l4.22.95a4.46 4.46 0 0 1 3.34 5.49l-.96 3.66c4.73 8.83 5.69 15.33 5.69 15.33l-42.76 21.98-1.65-2.55-3.73 6.14-13.99 8.81-.71 3.51 10.36 1.47 7.53 14.46-12.18 10.27 5.87 23.2L166.97 179l-9.61-20-4.04 3.02-8.66-15.28 4.97-3.85-.28-.58-16.97-2.64-21.52 14.31 17.28 28.38-16.27 10.87-19.83-26.74-6.54 4.35-.13 2.96-7.39 4.91-2.62-1.14-1.28.85-14.32 13.78-1.09 4.35-9.93 6.11c-21.58-16.73-25.51-41.1-25.51-41.1l8.87-6.24 4.5 1.29 19.34-8.36-.17-2.68 7.98-4.92 2.73 1.35 50.59-33.24-1.72-2.89 8.33-4.87 3.27 1.27.07-.04-5.79-10.51-13.2 10.8-9.38-14.15 27.62-14.39c.15-1.17.39-3.13.39-3.13l17.52-10.38-1.02-1.56 9.44-5.99 9.31 14.29-9.44 5.99-.98-1.5-16.87 12.26-2.69-.99-.2.17 6.98 10.51 10.67-6.53-.47-9.17 11.16-7.14 10.53 6.78 3.18-.64-2.26-3.51 37.99-29.79m-54.76 40.19 7.41-4.54.69-.14-2.78-1.79-5.47 3.5.15 2.97m19.24 55.7 7.38-6.23-4.18-8.02-7.87-1.12-.76 3.78 6.42 1.05.97 1.59-5.56 3.19 3.59 5.76m35.51-101.9c-1.31 0-2.61.43-3.7 1.28l-37.95 29.76-.1-.06.03-.13a5.98 5.98 0 0 0-.84-4.55l-9.31-14.29a5.999 5.999 0 0 0-5.03-2.72c-1.1 0-2.21.3-3.21.94l-9.44 5.99a6.003 6.003 0 0 0-2.63 3.71l-13.71 8.12a5.988 5.988 0 0 0-2.89 4.41S95.88 83.04 95.88 83.04a6.013 6.013 0 0 0-3.04 3.82c-.43 1.65-.13 3.4.81 4.81l9.38 14.15c.86 1.3 2.19 2.21 3.71 2.54l-40.69 26.73a5.94 5.94 0 0 0-2.3-.46c-1.09 0-2.19.3-3.15.89l-7.98 4.92a5.956 5.956 0 0 0-2.72 3.87l-13.71 5.93-2.44-.7c-.54-.15-1.1-.23-1.65-.23-1.22 0-2.43.37-3.45 1.09l-8.87 6.24a6.005 6.005 0 0 0-2.47 5.86c.18 1.09 4.57 26.92 27.76 44.89 1.08.83 2.37 1.26 3.68 1.26 1.09 0 2.18-.29 3.14-.89l9.93-6.11c1.34-.82 2.3-2.13 2.68-3.65l.67-2.68 11.26-10.83c.51.14 1.04.21 1.56.21 1.17 0 2.32-.34 3.32-1l7.39-4.91a6.004 6.004 0 0 0 2.47-3.42l15.89 21.43a5.991 5.991 0 0 0 8.15 1.42l16.27-10.87a6.006 6.006 0 0 0 1.79-8.11l-14.28-23.46 14.78-9.82 4.9.76c0 1.02.25 2.05.78 2.99l8.66 15.28c.85 1.5 2.3 2.56 3.99 2.91.41.09.82.13 1.23.13.55 0 1.09-.07 1.61-.22l6.63 13.8a6.02 6.02 0 0 0 3.93 3.22c.49.12.98.18 1.48.18 1.25 0 2.48-.39 3.51-1.14l15.01-10.85a5.987 5.987 0 0 0 2.3-6.33l-4.95-19.56 9.31-7.85a5.994 5.994 0 0 0 1.45-7.36l-7.53-14.46a5.959 5.959 0 0 0-2.91-2.72l5.12-3.22c.79-.5 1.45-1.17 1.93-1.96l.43-.7c.87-.03 1.74-.24 2.57-.66l42.76-21.98a5.99 5.99 0 0 0 3.19-6.21c-.04-.28-1.01-6.59-5.24-15.16l.38-1.44c.72-2.73.28-5.68-1.18-8.1a10.532 10.532 0 0 0-6.65-4.77l-2.17-.49a85.214 85.214 0 0 0-10.98-11.01 5.972 5.972 0 0 0-3.84-1.39Z" style="stroke-width:0;fill:#fff100"/></g></svg>