<svg xmlns="http://www.w3.org/2000/svg" viewBox="0 0 256 256"><defs><style>.cls-3{fill:#0c576f;stroke-width:0}</style></defs><g id="Layer_13" data-name="Layer 13"><path d="M230.43 94.37 170.8 85.7l-26.67-54.03a18.001 18.001 0 0 0-32.28 0L85.18 85.7l-59.63 8.67c-6.78.99-12.41 5.73-14.53 12.25a17.999 17.999 0 0 0 4.55 18.45l43.15 42.06-10.19 59.38a17.99 17.99 0 0 0 7.16 17.6 17.996 17.996 0 0 0 18.96 1.37l53.33-28.04 53.33 28.04a17.968 17.968 0 0 0 18.95-1.37 17.998 17.998 0 0 0 7.16-17.6l-10.19-59.38 43.15-42.06a17.984 17.984 0 0 0 4.55-18.45 17.988 17.988 0 0 0-14.53-12.25Z" class="cls-3"/><path d="m227.84 99.18-68.99-10.02L128 26.64 97.15 89.16 28.16 99.18l49.92 48.66-11.79 68.71L128 184.11l61.71 32.44-11.79-68.71 49.92-48.66z" style="fill:#fff100;stroke:#fff100;stroke-linecap:round;stroke-linejoin:round;stroke-width:36px"/></g><g id="Layer_4" data-name="Layer 4"><path d="M47.24 203.16c-.12 0-.24 0-.37-.02-.93-.11-1.76-.66-2.23-1.48l-18.22-31.49c-.8-1.38-.38-3.14.96-4.01l46.64-30.43a3 3 0 0 1 1.64-.49c.14 0 .27 0 .41.03l5.21.72c3.44-4.71 14.5-19.4 25.56-29.37l-2.81-5.22a3.013 3.013 0 0 1 1.11-4.01l4.06-2.4a2.98 2.98 0 0 1 3.98.87l2.72 3.9 80.78-42.19-.15-2.82a2.98 2.98 0 0 1 1.77-2.89l7.44-3.34c.39-.18.81-.26 1.23-.26.45 0 .9.1 1.31.3l2.95 1.43 7.59-3.96c.81-.42 1.72-.65 2.63-.65 1.8 0 3.5.86 4.56 2.31.92 1.26 2.32 3.33 3.8 6.08 1.18 2.2 2.16 4.46 2.83 6.54.84 2.62-.33 5.45-2.78 6.73L209.8 77.55c1.39 3.4.05 7.27-3.18 9.07l-59.51 33.16c-.11.06-.23.12-.35.17l-21.58 8.61 4.68 9.36c.43.85.42 1.85 0 2.7l-.69 1.37c-.62 1.21-6.56 11.88-25.38 13.82l-1.24.13c-.1.01-.21.02-.31.02-.68 0-1.35-.23-1.88-.67l-3.12-2.52-47.83 49.5c-.57.59-1.35.92-2.16.92Zm59.25-60.01c2.32-.5 4.23-1.19 5.8-1.93l-3.34-.62-2.46 2.55Z" class="cls-3"/><path d="M221.45 48.36c.82 0 1.62.38 2.14 1.08.93 1.27 2.22 3.2 3.58 5.73 1.35 2.51 2.15 4.59 2.62 6.04.4 1.23-.17 2.56-1.31 3.16l-22.56 11.81 1.05 2.35c.9 2.01.11 4.37-1.81 5.45l-59.51 33.16-24.61 9.82 6.14 12.27-.69 1.37c-.22.42-5.48 10.39-23.01 12.2l-1.24.13-5.25-4.24-49.73 51.47-18.22-31.49 46.64-30.43 7 .96s14.47-20.42 27.96-31.91l-3.95-7.32 4.06-2.4 4.35 6.24c.55-.38 1.09-.75 1.63-1.09l83.07-43.39-.25-4.75 7.44-3.34 4.3 2.09 8.92-4.66c.4-.21.82-.31 1.24-.31m-107.17 90.18-6.37-1.17-6.7 6.94 2.86 2.31c9.84-1.31 14.48-5.57 16.18-7.63l-4.21-8.41-3.14 2.5 3.76 3.68-2.38 1.79m107.17-96.18c-1.39 0-2.78.34-4.02.99l-6.25 3.26-1.59-.77c-.83-.4-1.72-.6-2.62-.6-.84 0-1.68.18-2.46.53l-7.44 3.34a5.998 5.998 0 0 0-3.53 5.79l.05.9-76.73 40.08-1.21-1.74a5.98 5.98 0 0 0-4.93-2.57c-1.04 0-2.09.27-3.05.83l-4.06 2.4c-2.77 1.64-3.76 5.18-2.23 8.01l1.71 3.17c-9.7 9.15-19.06 21.25-23.17 26.78l-3.45-.47c-.27-.04-.55-.06-.82-.06-1.16 0-2.3.34-3.28.98l-46.64 30.43a5.996 5.996 0 0 0-1.91 8.03l18.22 31.49c.94 1.63 2.6 2.72 4.46 2.95.24.03.49.04.73.04 1.62 0 3.18-.65 4.31-1.83l45.92-47.53.98.79c1.07.87 2.4 1.33 3.77 1.33.2 0 .41-.01.62-.03l1.24-.13c20.4-2.1 27.05-14.09 27.75-15.45l.69-1.36c.86-1.7.87-3.7.02-5.41l-3.22-6.44 18.55-7.4c.24-.1.47-.21.7-.33l59.51-33.16c3.73-2.08 5.68-6.1 5.2-10.12l17.98-9.41a8.634 8.634 0 0 0 4.24-10.31c-.73-2.28-1.76-4.65-3.04-7.04-1.56-2.9-3.05-5.1-4.02-6.43a8.663 8.663 0 0 0-6.98-3.54Z" style="stroke-width:0;fill:#fff100"/></g></svg>