<svg xmlns="http://www.w3.org/2000/svg" viewBox="0 0 256 256"><defs><style>.cls-2{fill:#fff100}.cls-3{fill:#004084}.cls-2,.cls-3,.cls-4{stroke-width:0}.cls-4{fill:#0c576f}</style></defs><g id="Layer_13" data-name="Layer 13"><path d="M230.43 94.37 170.8 85.7l-26.67-54.03a18.001 18.001 0 0 0-32.28 0L85.18 85.7l-59.63 8.67c-6.78.99-12.41 5.73-14.53 12.25a17.999 17.999 0 0 0 4.55 18.45l43.14 42.06-10.18 59.38a17.99 17.99 0 0 0 7.16 17.6 17.996 17.996 0 0 0 18.96 1.37l53.33-28.04 53.33 28.04a17.968 17.968 0 0 0 18.95-1.37 17.998 17.998 0 0 0 7.16-17.6l-10.18-59.38 43.14-42.06a17.984 17.984 0 0 0 4.55-18.45 17.988 17.988 0 0 0-14.53-12.25Z" class="cls-4"/><path d="m227.84 99.18-68.99-10.02L128 26.64 97.15 89.16 28.16 99.18l49.92 48.66-11.79 68.71L128 184.11l61.71 32.44-11.79-68.71 49.92-48.66z" style="fill:#fff100;stroke:#fff100;stroke-linecap:round;stroke-linejoin:round;stroke-width:36px"/></g><g id="Layer_4" data-name="Layer 4"><path d="M33.7 154.11c-1.71 0-3.17-1.12-3.63-2.79-.46-1.66.23-3.38 1.72-4.26l30.57-18.2 7.11 19.87-35.17 5.33c-.2.03-.4.04-.59.04Z" class="cls-3"/><path d="m61.03 132.56 5.06 14.15-32.17 4.88c-.07.01-.15.02-.22.02-1.25 0-1.79-1.72-.64-2.41l27.96-16.64m2.66-7.4-5.22 3.11-27.96 16.64c-2.46 1.47-3.61 4.31-2.85 7.07.75 2.73 3.24 4.63 6.05 4.63.32 0 .65-.02.97-.07l32.17-4.88 6-.91-2.05-5.72-5.06-14.15-2.05-5.72Z" class="cls-2"/><path d="M22.4 177.61c-1.74 0-3.24-1.2-3.66-2.92-.42-1.73.37-3.44 1.96-4.25l45.04-23.13 6.99 19.52-49.49 10.7c-.28.06-.56.09-.83.09Z" class="cls-3"/><path d="m64.35 150.83 5.06 14.15-46.7 10.09c-.11.02-.21.03-.31.03-1.27 0-1.81-1.81-.56-2.45l42.5-21.83m2.79-7.05-5.07 2.6-42.5 21.83a6.266 6.266 0 0 0-3.24 7.07c.69 2.84 3.19 4.83 6.09 4.83.45 0 .91-.05 1.36-.15l46.7-10.09 5.57-1.2-1.92-5.37-5.06-14.15-1.92-5.37Z" class="cls-2"/><path d="M51.81 187.09c-1.68 0-3.13-1.09-3.62-2.71-.48-1.62.14-3.33 1.56-4.25l25.08-16.41 7.2 20.12-29.8 3.23c-.14.02-.29.02-.43.02Z" class="cls-3"/><path d="m73.55 167.54 5.06 14.15-26.65 2.89h-.16c-1.24 0-1.78-1.66-.69-2.38l22.43-14.67m2.57-7.66-5.31 3.47-22.43 14.67a6.25 6.25 0 0 0-2.59 7.06c.8 2.69 3.22 4.5 6.01 4.5.23 0 .46-.01.7-.04l26.65-2.89 6.31-.68-2.14-5.97-5.06-14.15-2.14-5.97Z" class="cls-2"/><path d="M131.88 209.08c-23.56 0-45.95-11.27-59.89-30.16-19.84-26.87-19.15-62.83.22-88.63a10.585 10.585 0 0 1-9.69-4.2c-3.44-4.67-2.45-11.26 2.21-14.71l26.42-19.51a10.47 10.47 0 0 1 6.24-2.06c3.33 0 6.49 1.6 8.47 4.27 2.34 3.17 2.63 7.24 1.11 10.6 7.9-2.81 16.25-4.26 24.68-4.26 3.72 0 7.49.28 11.21.84 19.63 2.96 36.94 13.38 48.73 29.35s16.66 35.58 13.7 55.22c-2.96 19.63-13.38 36.94-29.35 48.73-12.85 9.49-28.09 14.5-44.06 14.5Z" class="cls-4"/><path d="M97.39 52.83a7.516 7.516 0 0 1 4.47 13.56l-7.26 5.36 1.11 1.5c10.95-6.45 23.29-9.82 35.94-9.82 3.57 0 7.16.27 10.76.81 18.84 2.84 35.45 12.84 46.77 28.17 11.32 15.33 15.99 34.15 13.15 52.99-2.84 18.84-12.84 35.45-28.17 46.77-12.72 9.39-27.56 13.92-42.28 13.92-21.89 0-43.5-10.02-57.47-28.94-21.85-29.6-17.36-70.67 9.21-94.97l-1.11-1.5-7.07 5.22a7.516 7.516 0 0 1-8.93-12.09L92.93 54.3a7.494 7.494 0 0 1 4.46-1.47m0-6c-2.91 0-5.68.91-8.02 2.64L62.95 68.98c-5.99 4.43-7.27 12.9-2.85 18.9 1.71 2.31 4.1 3.99 6.79 4.85a77.467 77.467 0 0 0-12.01 34.34c-1.93 19.14 3.29 38.19 14.7 53.64 7.3 9.89 16.96 17.98 27.94 23.38 10.61 5.23 22.49 7.99 34.36 7.99 16.62 0 32.47-5.22 45.85-15.09 16.62-12.27 27.46-30.27 30.54-50.7 3.07-20.43-1.99-40.83-14.26-57.44-12.27-16.62-30.27-27.46-50.7-30.54-3.86-.58-7.78-.88-11.65-.88-7.03 0-14.01.97-20.74 2.86 0-2.78-.86-5.58-2.64-7.98a13.579 13.579 0 0 0-10.88-5.49Z" class="cls-2"/><path d="M131.67 78.47c2.82 0 5.66.21 8.5.64 14.87 2.24 27.98 10.13 36.91 22.23 8.93 12.1 12.62 26.95 10.38 41.82-2.24 14.87-10.13 27.98-22.23 36.91a56.02 56.02 0 0 1-33.37 10.99c-17.28 0-34.34-7.9-45.36-22.84-18.44-24.97-13.12-60.29 11.86-78.73 9.79-7.23 21.37-11.02 33.32-11.02m0-3c-12.68 0-24.82 4.01-35.1 11.6-12.72 9.39-21.03 23.2-23.39 38.88-2.36 15.68 1.51 31.32 10.91 44.04 11.12 15.06 28.98 24.06 47.78 24.06 12.74 0 24.9-4 35.15-11.57 12.74-9.41 21.06-23.21 23.42-38.88 2.36-15.66-1.52-31.31-10.93-44.05-9.41-12.74-23.21-21.06-38.88-23.42a59.72 59.72 0 0 0-8.95-.67Z" class="cls-2"/><path d="m66.09 146.71-32.17 4.88c-1.4.21-2.07-1.66-.85-2.39l27.96-16.64 5.06 14.15ZM69.41 164.99l-46.7 10.09c-1.48.32-2.21-1.72-.86-2.41l42.5-21.83 5.06 14.15ZM78.61 181.69l-26.65 2.89c-1.35.15-1.98-1.62-.85-2.37l22.43-14.67 5.06 14.15ZM130.15 144.63c-5.21 0-9.71-3.89-10.46-9.06-.47-2.93.4-5.98 2.4-8.34 2.04-2.4 4.97-3.78 8.03-3.78.53 0 1.08.04 1.61.13l45.17 6.57c1.95.28 3.37 1.92 3.37 3.89 0 1.97-1.42 3.61-3.37 3.9l-45.21 6.57c-.51.07-1.02.11-1.53.11Z" class="cls-4"/><path d="M130.11 126.46c.37 0 .75.03 1.13.09 0 0 31.42 4.57 45.21 6.57 1.07.16 1.06 1.7 0 1.85l-45.2 6.57c-.37.05-.74.08-1.1.08-3.7 0-6.94-2.72-7.49-6.49-.74-4.54 3.02-8.68 7.46-8.68m0-6c-3.94 0-7.7 1.76-10.31 4.83-2.56 3.01-3.68 6.93-3.08 10.76.98 6.6 6.75 11.58 13.42 11.58.65 0 1.31-.05 1.96-.14l45.2-6.57c3.44-.5 5.94-3.39 5.94-6.87s-2.5-6.36-5.93-6.86l-17.68-2.57c-19.92-2.9-25.65-3.73-27.45-3.97v-.02c-.68-.11-1.38-.17-2.08-.17Z" class="cls-2"/><path d="M131.22 149.55c-4.94 0-9.63-2.38-12.54-6.37-5.04-6.91-3.51-16.63 3.39-21.67 2.67-1.95 5.83-2.98 9.13-2.98 4.94 0 9.63 2.38 12.54 6.37 5.04 6.91 3.52 16.63-3.39 21.67a15.388 15.388 0 0 1-9.13 2.98Z" class="cls-4"/><path d="M131.2 121.54c3.86 0 7.67 1.78 10.12 5.14 4.07 5.58 2.84 13.41-2.74 17.48-2.22 1.62-4.8 2.4-7.36 2.4-3.86 0-7.67-1.78-10.12-5.14-4.07-5.58-2.84-13.41 2.74-17.48 2.22-1.62 4.8-2.4 7.36-2.4m0-6c-3.94 0-7.71 1.23-10.9 3.55-8.24 6.01-10.06 17.61-4.05 25.86 3.47 4.76 9.07 7.6 14.97 7.6 3.94 0 7.71-1.23 10.89-3.55 3.99-2.91 6.62-7.21 7.38-12.09.77-4.88-.42-9.77-3.33-13.77-3.47-4.76-9.07-7.6-14.96-7.6Z" class="cls-2"/><ellipse cx="97.06" cy="130.4" class="cls-2" rx="7.81" ry="11.68" transform="rotate(-29.72 97.057 130.4)"/><ellipse cx="148.07" cy="101.28" class="cls-2" rx="7.81" ry="11.68" transform="rotate(-29.72 148.072 101.274)"/></g></svg>