<svg xmlns="http://www.w3.org/2000/svg" viewBox="0 0 256 256"><defs><style>.cls-3{fill:#0c576f;stroke-width:0}</style></defs><g id="Layer_13" data-name="Layer 13"><path d="M230.43 94.37 170.8 85.7l-26.67-54.03a18.001 18.001 0 0 0-32.28 0L85.18 85.7l-59.63 8.67c-6.78.99-12.41 5.73-14.53 12.25a17.999 17.999 0 0 0 4.55 18.45l43.15 42.06-10.19 59.38a18.014 18.014 0 0 0 7.16 17.61 17.996 17.996 0 0 0 18.96 1.37l53.33-28.04 53.33 28.04a17.968 17.968 0 0 0 18.95-1.37 18.006 18.006 0 0 0 7.16-17.61l-10.19-59.38 43.15-42.06a17.984 17.984 0 0 0 4.55-18.45 18.004 18.004 0 0 0-14.53-12.25Z" class="cls-3"/><path d="m227.84 99.18-68.99-10.02L128 26.64 97.15 89.16 28.16 99.18l49.92 48.66-11.79 68.71L128 184.11l61.71 32.44-11.79-68.71 49.92-48.66z" style="fill:#fff100;stroke:#fff100;stroke-linecap:round;stroke-linejoin:round;stroke-width:36px"/></g><g id="Layer_4" data-name="Layer 4"><path d="M43.34 206.95c-.95 0-1.88-.45-2.46-1.28l-9.42-13.43-1.89.3a2.984 2.984 0 0 1-2.86-1.15l-16.16-21.34c-.51-.67-.71-1.53-.56-2.35l1.6-8.68c.17-.91.75-1.69 1.57-2.12l25.85-13.41-2.04-3.72c-.39-.72-.48-1.56-.23-2.34.24-.78.79-1.42 1.52-1.79l51.72-25.8a2.99 2.99 0 0 1-1.84-1.29l-3-4.61a2.99 2.99 0 0 1-.4-2.35c.2-.8.71-1.49 1.43-1.9l6.33-3.59-4.41-7.78a3 3 0 0 1 1.04-4.04l2.29-1.41c-.1-.42-.11-.85-.03-1.28.15-.79.62-1.49 1.29-1.93l12.4-8.19c.51-.33 1.08-.5 1.65-.5.68 0 1.35.23 1.89.67l2.75-1.8a3 3 0 0 1 2.37-.4c.81.2 1.5.74 1.9 1.47l4.82 8.79 21.41-12.47a2.978 2.978 0 0 1 2.38-.28l18.22 5.49c.74.22 1.37.73 1.75 1.4l7.34 13.07.36-.16-.08-3.41-5.85-9.21a3.001 3.001 0 0 1 .96-4.16l12.04-7.4a3.008 3.008 0 0 1 3.86.62l.2.23 26.66-17.89 2.85-5.18c.53-.96 1.53-1.55 2.63-1.55l5.99.03c1.04 0 2.01.55 2.55 1.45l6.56 10.82c.47.78.57 1.73.25 2.59l-2.14 5.8a2.996 2.996 0 0 1-2.82 1.96l-5.31-.03-32.23 15.19-.31.79.73 1.89c.16.41.23.85.2 1.29l-.91 13.08a2.986 2.986 0 0 1-1.63 2.46l-7.64 3.9 12.22 28.28c.59 1.36.1 2.93-1.15 3.72l-6.53 4.14c-.5.32-1.05.47-1.6.47-.92 0-1.82-.42-2.41-1.21l-16.08-21.64c-.28.46-.68.86-1.18 1.12l-5.44 2.85a3.003 3.003 0 0 1-3.57-.6l-1.17-1.24-.47.23 5.37 32.82c.2 1.24-.39 2.47-1.48 3.09l-22.67 12.92c-.46.26-.97.39-1.49.39s-.98-.12-1.42-.36l-6.61-3.56c-.61-.33-1.09-.86-1.35-1.5l-9.89-24.05-12.91 7.72.82 3.68c.26 1.19-.22 2.43-1.23 3.12l-.34.24c5.6 8.37 16.03 17.94 18.09 19.79l4.89 2.07c1.29.55 2.03 1.92 1.78 3.3l-.91 4.96c-.09.47-.29.92-.58 1.29l-17.09 22.06c-.55.71-1.39 1.14-2.29 1.16h-.08c-.87 0-1.7-.38-2.27-1.04-.11-.13-11.51-13.27-18.16-20.6-4.55-5.01-8.19-10.09-10.19-13.04l-1.13.72a3.024 3.024 0 0 1-2.16.42l-3.17-.58-5.92 25.9a3 3 0 0 1-1.38 1.9l-12.49 7.53a3 3 0 0 1-1.55.43Zm93.88-58.99 6.35-4.17-3.99-24.53-4.27 2.57 1.5 3.39c.22.49.3 1.03.23 1.57l-.4 3.34a2.995 2.995 0 0 1-2.98 2.64h-.2l-.99 1.79 4.74 13.4Zm-31.3-45.73c.92 0 1.81.42 2.4 1.19l.66.87.74-.31.16-2.98c.02-.47.16-.92.39-1.32l-.35-.55-8.81 5.15 3.48-1.74c.43-.21.89-.32 1.34-.32Zm15.16-8.09-.21-1.35-.52.31.4.89.32.15Zm8.18-5.06-.21-1.16-1.8 1.07 2.01.09Zm7.73-4.71s-.21-1-.21-1.03l-1.48.88 1.7.15Zm7.4-3.61.11-.3-1.1-1.05-1.4.83 2.4.52Z" class="cls-3"/><path d="m215.21 41.81 5.98.03 6.56 10.82-2.14 5.8-5.98-.03-33.91 15.98-1.19 2.99 1.16 2.99-.91 13.08-10.14 5.18 13.34 30.86-6.53 4.14-20.03-26.97-2.37 1.27 1.34 4.31-5.44 2.85-2.68-2.84-4.46 2.17 5.74 35.02-22.67 12.92-6.61-3.56-11.22-27.27-17.76 10.62 1.28 5.79-2.69 1.85c5.8 10.25 20.51 23.21 20.51 23.21l5.35 2.27-.91 4.96-17.09 22.06s-11.45-13.21-18.2-20.65c-6.75-7.44-11.53-15.15-11.53-15.15l-3.63 2.32-5.99-1.1-6.56 28.7-12.49 7.53L32.85 189l-3.74.59-16.16-21.34 1.6-8.68 28.57-14.83-3.52-6.41 66.32-33.09 2.06 2.73 4.63-1.93.25-4.87.73-.51-.15-1.52-1.82-2.9-2.07-.38-18.91 11.05-3-4.61 14.79-8.39-1.01-1.47-5.72 3.22-5-8.82 4.82-2.96-1.18-1.71 12.4-8.19 1.18 1.71 5.1-3.33 5.6 10.21-4.78 2.75.84 1.22 28.71-16.72 18.22 5.49 8.69 15.48 4.66-2.13-.14-6.22-6.29-9.92 12.04-7.4 1.93 2.28 29.49-19.78 3.21-5.82m-94.57 55.45 3.91-.35-.78-5.06 9.11.39-.95-5.3 8.83.77-1.02-4.89 6.57 1.42 1.7-4.6-4.18-3.97-26.38 15.66-.34 1.86 1.37 3.03 2.16 1.04m13.03 32.52-1.9-.14-2.57 4.66 6.46 18.28 11.18-7.34-5.01-30.83-10.33 6.22 2.56 5.81-.4 3.34m81.54-93.97c-2.19 0-4.2 1.19-5.25 3.1l-2.5 4.54-24.25 16.27c-.82-.39-1.71-.6-2.61-.6-1.08 0-2.16.29-3.14.89l-12.04 7.4c-.87.53-1.58 1.28-2.07 2.15l-18.19-5.48a6.01 6.01 0 0 0-4.75.57l-18.75 10.92-3.34-6.09a5.987 5.987 0 0 0-3.81-2.94c-.48-.12-.97-.18-1.46-.18-1.16 0-2.3.33-3.28.98l-1.34.88c-.54-.15-1.1-.23-1.66-.23-1.14 0-2.28.32-3.3.99l-12.4 8.19a5.955 5.955 0 0 0-2.58 3.86l-.03.18-.86.53a6.005 6.005 0 0 0-2.08 8.07l2.93 5.17-3.73 2.11a5.999 5.999 0 0 0-2.07 8.49l2.25 3.45-47.96 23.93a6.015 6.015 0 0 0-3.05 3.58c-.49 1.56-.32 3.25.47 4.68l.57 1.03-23.12 12c-1.64.85-2.8 2.42-3.14 4.24l-1.6 8.68c-.3 1.66.1 3.36 1.12 4.71l16.16 21.34a5.996 5.996 0 0 0 4.78 2.38c.31 0 .63-.02.94-.07h.04l8.34 11.89a5.99 5.99 0 0 0 4.92 2.56c1.06 0 2.13-.28 3.09-.86l12.49-7.53a5.96 5.96 0 0 0 2.75-3.8l5.28-23.1.34.06c.36.07.72.1 1.09.1.62 0 1.23-.1 1.81-.28 2.15 3.04 5.24 7.11 8.9 11.14 6.63 7.3 18 20.42 18.11 20.55a5.99 5.99 0 0 0 4.53 2.07h.17a6 6 0 0 0 4.58-2.32l17.09-22.06c.59-.76.98-1.65 1.16-2.59l.91-4.96c.51-2.77-.97-5.51-3.56-6.61l-4.43-1.87c-2.43-2.21-10.6-9.82-15.87-16.96.72-1.27.97-2.79.64-4.27l-.35-1.56 8.07-4.82 8.57 20.83a6.028 6.028 0 0 0 2.7 3l6.61 3.56c.89.48 1.87.72 2.85.72s2.05-.26 2.97-.79l22.67-12.92a5.99 5.99 0 0 0 2.95-6.18l-4.48-27.38c.94 0 1.88-.23 2.75-.68l4.62-2.42 14.28 19.22a5.982 5.982 0 0 0 4.82 2.42c1.1 0 2.21-.3 3.21-.93l6.53-4.14a5.993 5.993 0 0 0 2.29-7.45l-11.11-25.7 5.13-2.62a5.998 5.998 0 0 0 3.25-4.93l.91-13.08c.06-.82-.05-1.64-.33-2.41l29.61-13.95 4.62.02h.03c2.51 0 4.76-1.57 5.63-3.93l2.14-5.8c.63-1.71.45-3.62-.5-5.18l-6.56-10.82a5.98 5.98 0 0 0-5.1-2.89l-5.98-.03h-.03Zm-79.27 99.52a5.976 5.976 0 0 0 2.83-2.4c.58 3.55 1.13 6.95 1.53 9.42l-1.53 1-2.84-8.02Z" style="stroke-width:0;fill:#fff100"/></g></svg>