<svg xmlns="http://www.w3.org/2000/svg" viewBox="0 0 256 256"><defs><style>.cls-3{fill:#0c576f;stroke-width:0}</style></defs><g id="Layer_13" data-name="Layer 13"><path d="M230.43 94.37 170.8 85.7l-26.67-54.03a18.001 18.001 0 0 0-32.28 0L85.18 85.7l-59.63 8.67c-6.78.99-12.41 5.73-14.53 12.25a17.999 17.999 0 0 0 4.55 18.45l43.14 42.06-10.18 59.38a17.99 17.99 0 0 0 7.16 17.6 17.996 17.996 0 0 0 18.96 1.37l53.33-28.04 53.33 28.04a17.968 17.968 0 0 0 18.95-1.37 17.998 17.998 0 0 0 7.16-17.6l-10.18-59.38 43.14-42.06a17.984 17.984 0 0 0 4.55-18.45 17.988 17.988 0 0 0-14.53-12.25Z" class="cls-3"/><path d="m227.84 99.18-68.99-10.02L128 26.64 97.15 89.16 28.16 99.18l49.92 48.66-11.79 68.71L128 184.11l61.71 32.44-11.79-68.71 49.92-48.66z" style="fill:#fff100;stroke:#fff100;stroke-linecap:round;stroke-linejoin:round;stroke-width:36px"/></g><g id="Layer_4" data-name="Layer 4"><path d="M65.19 197.86c-.14 0-.28 0-.42-.03l-4.17-.58c-.8-.11-1.52-.54-2-1.19l-26.29-35.52c-.5-.68-.69-1.53-.53-2.35s.66-1.54 1.37-1.99l94.06-57.9-1.12-14.11c-.06-.79.19-1.57.7-2.17l.45-.53-4.71-7.79c-.86-1.42-.4-3.26 1.02-4.12l3.81-2.31c.47-.29 1.01-.43 1.55-.43.24 0 .48.03.72.09.77.19 1.44.68 1.85 1.36l1.92 3.18 2.54-1.5c.47-.28 1-.42 1.53-.42.46 0 .93.11 1.35.32h.03c.02-1.02.58-1.97 1.47-2.5l3.41-2.01c.47-.28 1-.42 1.53-.42.44 0 .88.1 1.29.29.06-.99.6-1.89 1.47-2.4l3.5-2.07a2.988 2.988 0 0 1 2.73-.17c.09-.95.62-1.81 1.46-2.31l3.6-2.13c.47-.28 1-.42 1.53-.42.38 0 .75.07 1.11.21.11-.91.64-1.73 1.45-2.21l2.86-1.69-.51-.85c-.86-1.42-.4-3.26 1.02-4.12l2.22-1.34c.49-.29 1.02-.43 1.55-.43 1.02 0 2.01.52 2.57 1.45l.56.92.71-.42c.48-.28 1-.42 1.53-.42.91 0 1.8.41 2.38 1.17l6.26 8.16 2.94 2.02c.29.2.54.45.74.73l7.21 10.13 10.25-6.62a5.098 5.098 0 0 1 2.18-2.85l6.85-4.26c.81-.5 1.74-.77 2.68-.77 1.74 0 3.33.87 4.27 2.33l4.64 7.19c.75 1.16.99 2.53.69 3.87a5.039 5.039 0 0 1-2.27 3.2l-6.85 4.26c-.8.5-1.73.77-2.68.77h-.17l-14.15 9.14 3.2.45c.9.13 1.69.65 2.16 1.42l7.6 12.64c.85 1.42.4 3.26-1.02 4.12l-8.79 5.3a3 3 0 0 1-4.01-.86l-4.68-6.72-3.42 2.22 4.46 10.53c.21.5.28 1.05.21 1.59l-1.86 13.28c-.13.91-.66 1.71-1.45 2.17l-11.31 6.64a3.042 3.042 0 0 1-2.55.23c-.84-.31-1.5-.98-1.8-1.82l-1.81-5.18-14.51 7.22-1.77 12.66c-.09.63-.38 1.22-.83 1.68l-11.85 12.12c-.29.3-.64.53-1.03.69l-19.72 7.88c-.35.14-.73.21-1.11.21-.09 0-.18 0-.26-.01l-19.17-1.69-38.69 25.28a3 3 0 0 1-1.64.49Zm57.97-45.37 9.81-5.22 5.24-9.88c-1.23-1.65-3.22-4.35-4.86-6.82l-17.59 11.07 7.41 10.85Zm47.02-33.64 6.71-5.19-4.05-7.94-7.44 4.68.39 3.7 4.39 4.75Z" class="cls-3"/><path d="m170.52 48.3 2.67 4.42 1.25-2.03 1.44-.85 6.55 8.54 3.33 2.29 8.87 12.46 13.83-8.93c-.11-.79.23-1.61.96-2.06l6.85-4.26a2.099 2.099 0 0 1 2.85.64l4.65 7.19c.63.98.34 2.28-.65 2.9l-6.85 4.26c-.34.21-.72.31-1.09.31-.28 0-.55-.06-.81-.16l-16.34 10.55.02.09-2.07 3.97-.05.03 7.71 1.08 7.6 12.64-8.79 5.3-6.34-9.11-7.96 5.17 5.44 12.85-1.86 13.28-11.31 6.64-2.94-8.39-18.97 9.44-1.99 14.23-11.85 12.13-19.72 7.88-20.28-1.79-.02.07-39.47 25.79-4.17-.58-26.29-35.52 95.62-58.86-1.27-15.94 1.84-2.18-5.82-9.63 3.81-2.31 4.45 7.37.41-2.48 3.69-2.18 2.29 1.16 2.22-1.22-.13-2.53 3.41-2.01 2.18 1.1 2.22-1.22-.12-2.42 3.5-2.07 2.08 1.05 2.22-1.22-.12-2.31 3.6-2.13 1.97 1 2.22-1.22-.11-2.2 3.73-2.2 2.32-.08-2.66-4.39 2.22-1.34m-28.86 44.63L177.6 70.8l-5.69-1.74-30.86 19.33.58 4.55m28.18 29.97 10.84-8.4-6.67-13.08-11.8 7.43.7 6.55 6.93 7.5m-47.65 33.5 12.99-6.91 6.57-12.38s-5.18-6.73-7.46-10.68l-22.77 14.33 10.68 15.64m48.33-114.1c-1.09 0-2.16.29-3.1.87l-2.22 1.34a6.01 6.01 0 0 0-2.78 6.32l-.56.33c-.72.42-1.32.98-1.79 1.63-.8.1-1.58.36-2.29.79l-3.6 2.13c-.73.43-1.35 1.01-1.83 1.68-.82.1-1.62.36-2.35.79l-3.5 2.07c-.75.44-1.38 1.04-1.87 1.73-.84.09-1.67.36-2.42.8l-3.41 2.01c-.77.46-1.41 1.07-1.9 1.78-.85.08-1.69.35-2.46.8l-.38-.63a5.982 5.982 0 0 0-5.14-2.89c-1.09 0-2.16.29-3.1.87l-3.81 2.31a5.99 5.99 0 0 0-2.03 8.24l3.7 6.12c-.45.94-.65 2-.56 3.05l.97 12.28-92.5 56.94a6.008 6.008 0 0 0-2.75 3.97c-.32 1.65.07 3.36 1.07 4.71l26.29 35.52c.96 1.29 2.4 2.15 3.99 2.37l4.17.58c.28.04.55.06.83.06 1.16 0 2.3-.34 3.28-.98l37.82-24.72 18.13 1.6c.18.02.35.02.53.02.76 0 1.52-.14 2.23-.43l19.72-7.88c.78-.31 1.48-.78 2.06-1.38l11.85-12.13c.9-.92 1.47-2.09 1.65-3.36l1.55-11.1 10.05-5 .69 1.97a5.997 5.997 0 0 0 3.6 3.65c.67.25 1.37.37 2.07.37 1.06 0 2.11-.28 3.04-.83l11.31-6.64a5.994 5.994 0 0 0 2.9-4.34l1.86-13.28c.15-1.08 0-2.17-.42-3.17l-1.05-2.48a6.016 6.016 0 0 0 4.39 1.91c1.06 0 2.13-.28 3.09-.86l8.79-5.3a6.002 6.002 0 0 0 2.05-8.23l-7.6-12.64c-.28-.46-.61-.87-.99-1.24l8.15-5.26c1.24-.12 2.44-.52 3.5-1.18l6.85-4.26a8.03 8.03 0 0 0 3.62-5.1c.48-2.13.09-4.32-1.1-6.15l-4.65-7.19a8.032 8.032 0 0 0-6.79-3.7c-1.51 0-2.99.42-4.27 1.22l-6.85 4.26a8.045 8.045 0 0 0-3.03 3.39l-7.03 4.54-5.55-7.79c-.41-.57-.91-1.07-1.49-1.46l-2.54-1.75-5.97-7.79a5.984 5.984 0 0 0-4.76-2.35c-.41 0-.81.04-1.21.12a5.933 5.933 0 0 0-4.14-1.65Zm-1.94 69.64 3.08-1.94 1.43 2.8-2.57 1.99-1.85-2-.09-.85Zm-48.6 30.58 12.51-7.87c.75 1.07 1.5 2.11 2.17 3.02l-3.92 7.39-6.62 3.52-4.14-6.06Z" style="stroke-width:0;fill:#fff100"/></g></svg>