<?xml version="1.0" encoding="UTF-8"?>
<svg id="Layer_2" data-name="Layer 2" xmlns="http://www.w3.org/2000/svg" viewBox="0 0 29.22 33.39">
  <defs>
    <style>
      .cls-1 {
        fill: #fff;
      }
    </style>
  </defs>
  <g id="Layer_1-2" data-name="Layer 1">
    <path class="cls-1" d="M24,8.35c0,2.9-1.66,5.44-4.17,6.94v1.41c0,1.15-.93,2.09-2.09,2.09h-6.26c-1.15,0-2.09-.93-2.09-2.09v-1.41c-2.52-1.5-4.17-4.05-4.17-6.94C5.22,3.74,9.42,0,14.61,0s9.39,3.74,9.39,8.35ZM10.95,11.48c1.15,0,2.09-.93,2.09-2.09s-.93-2.09-2.09-2.09-2.09.93-2.09,2.09.93,2.09,2.09,2.09ZM20.34,9.39c0-1.15-.93-2.09-2.09-2.09s-2.09.93-2.09,2.09.93,2.09,2.09,2.09,2.09-.93,2.09-2.09ZM.22,17.85c.52-1.03,1.77-1.45,2.8-.93l11.59,5.79,11.59-5.79c1.03-.52,2.28-.1,2.8.93s.1,2.28-.93,2.8l-8.78,4.4,8.79,4.4c1.03.52,1.45,1.77.93,2.8s-1.77,1.45-2.8.93l-11.59-5.79-11.59,5.79c-1.03.52-2.28.1-2.8-.93s-.1-2.28.93-2.8l8.78-4.4L1.15,20.64c-1.03-.52-1.45-1.77-.93-2.8Z"/>
  </g>
</svg>