<svg id="chick_eggBurst7_borg_idle" image-rendering="auto" baseProfile="basic" version="1.1" x="0" y="0" width="256" height="256" xmlns="http://www.w3.org/2000/svg"><defs><radialGradient id="Gradient_1" gradientUnits="userSpaceOnUse" cx="0" cy="0" r="127.617" fx="0" fy="0" gradientTransform="matrix(-.932 .361 .361 .932 129.2 113.85)" spreadMethod="pad"><stop offset="0%" stop-color="#FFF"/><stop offset="100%" stop-color="#FFF" stop-opacity="0"/></radialGradient><radialGradient id="Gradient_2" gradientUnits="userSpaceOnUse" cx="0" cy="0" r="127.629" fx="0" fy="0" gradientTransform="matrix(-.908 .417 .417 .908 129.2 113.75)" spreadMethod="pad"><stop offset="0%" stop-color="#FFF"/><stop offset="100%" stop-color="#FFF" stop-opacity="0"/></radialGradient><radialGradient id="Gradient_3" gradientUnits="userSpaceOnUse" cx="0" cy="0" r="127.632" fx="0" fy="0" gradientTransform="matrix(-.881 .473 .473 .881 129.25 113.75)" spreadMethod="pad"><stop offset="0%" stop-color="#FFF"/><stop offset="100%" stop-color="#FFF" stop-opacity="0"/></radialGradient><radialGradient id="Gradient_4" gradientUnits="userSpaceOnUse" cx="0" cy="0" r="127.618" fx="0" fy="0" gradientTransform="matrix(-.85 .526 .526 .85 129.3 113.7)" spreadMethod="pad"><stop offset="0%" stop-color="#FFF"/><stop offset="100%" stop-color="#FFF" stop-opacity="0"/></radialGradient><radialGradient id="Gradient_5" gradientUnits="userSpaceOnUse" cx="0" cy="0" r="127.63" fx="0" fy="0" gradientTransform="matrix(-.816 .577 .577 .816 129.35 113.6)" spreadMethod="pad"><stop offset="0%" stop-color="#FFF"/><stop offset="100%" stop-color="#FFF" stop-opacity="0"/></radialGradient><radialGradient id="Gradient_6" gradientUnits="userSpaceOnUse" cx="0" cy="0" r="127.631" fx="0" fy="0" gradientTransform="scale(-1 1) rotate(38.78 -226.158 -127.18)" spreadMethod="pad"><stop offset="0%" stop-color="#FFF"/><stop offset="100%" stop-color="#FFF" stop-opacity="0"/></radialGradient><radialGradient id="Gradient_7" gradientUnits="userSpaceOnUse" cx="0" cy="0" r="127.636" fx="0" fy="0" gradientTransform="matrix(-.739 .673 .673 .739 129.45 113.4)" spreadMethod="pad"><stop offset="0%" stop-color="#FFF"/><stop offset="100%" stop-color="#FFF" stop-opacity="0"/></radialGradient><radialGradient id="Gradient_8" gradientUnits="userSpaceOnUse" cx="0" cy="0" r="127.63" fx="0" fy="0" gradientTransform="scale(-1 1) rotate(45.85 -198.874 -96.43)" spreadMethod="pad"><stop offset="0%" stop-color="#FFF"/><stop offset="100%" stop-color="#FFF" stop-opacity="0"/></radialGradient><radialGradient id="Gradient_9" gradientUnits="userSpaceOnUse" cx="0" cy="0" r="127.631" fx="0" fy="0" gradientTransform="matrix(-.65 .759 .759 .65 129.5 113.4)" spreadMethod="pad"><stop offset="0%" stop-color="#FFF"/><stop offset="100%" stop-color="#FFF" stop-opacity="0"/></radialGradient><radialGradient id="Gradient_10" gradientUnits="userSpaceOnUse" cx="0" cy="0" r="127.628" fx="0" fy="0" gradientTransform="matrix(-.602 .798 .798 .602 129.6 113.3)" spreadMethod="pad"><stop offset="0%" stop-color="#FFF"/><stop offset="100%" stop-color="#FFF" stop-opacity="0"/></radialGradient><radialGradient id="Gradient_11" gradientUnits="userSpaceOnUse" cx="0" cy="0" r="127.626" fx="0" fy="0" gradientTransform="matrix(-.552 .833 .833 .552 129.55 113.2)" spreadMethod="pad"><stop offset="0%" stop-color="#FFF"/><stop offset="100%" stop-color="#FFF" stop-opacity="0"/></radialGradient><radialGradient id="Gradient_12" gradientUnits="userSpaceOnUse" cx="0" cy="0" r="127.634" fx="0" fy="0" gradientTransform="scale(-1 1) rotate(60.05 -162.754 -55.537)" spreadMethod="pad"><stop offset="0%" stop-color="#FFF"/><stop offset="100%" stop-color="#FFF" stop-opacity="0"/></radialGradient><radialGradient id="Gradient_13" gradientUnits="userSpaceOnUse" cx="0" cy="0" r="127.629" fx="0" fy="0" gradientTransform="scale(-1 1) rotate(63.56 -156.12 -48.02)" spreadMethod="pad"><stop offset="0%" stop-color="#FFF"/><stop offset="100%" stop-color="#FFF" stop-opacity="0"/></radialGradient><radialGradient id="Gradient_14" gradientUnits="userSpaceOnUse" cx="0" cy="0" r="127.627" fx="0" fy="0" gradientTransform="matrix(-.389 .92 .92 .389 129.45 112.95)" spreadMethod="pad"><stop offset="0%" stop-color="#FFF"/><stop offset="100%" stop-color="#FFF" stop-opacity="0"/></radialGradient><radialGradient id="Gradient_15" gradientUnits="userSpaceOnUse" cx="0" cy="0" r="127.628" fx="0" fy="0" gradientTransform="scale(-1 1) rotate(70.6 -144.484 -34.966)" spreadMethod="pad"><stop offset="0%" stop-color="#FFF"/><stop offset="100%" stop-color="#FFF" stop-opacity="0"/></radialGradient><radialGradient id="Gradient_16" gradientUnits="userSpaceOnUse" cx="0" cy="0" r="127.618" fx="0" fy="0" gradientTransform="matrix(-.273 .961 .961 .273 129.5 112.8)" spreadMethod="pad"><stop offset="0%" stop-color="#FFF"/><stop offset="100%" stop-color="#FFF" stop-opacity="0"/></radialGradient><radialGradient id="Gradient_17" gradientUnits="userSpaceOnUse" cx="0" cy="0" r="127.628" fx="0" fy="0" gradientTransform="matrix(-.213 .976 .976 .213 129.5 112.8)" spreadMethod="pad"><stop offset="0%" stop-color="#FFF"/><stop offset="100%" stop-color="#FFF" stop-opacity="0"/></radialGradient><radialGradient id="Gradient_18" gradientUnits="userSpaceOnUse" cx="0" cy="0" r="127.633" fx="0" fy="0" gradientTransform="matrix(-.153 .988 .988 .153 129.5 112.7)" spreadMethod="pad"><stop offset="0%" stop-color="#FFF"/><stop offset="100%" stop-color="#FFF" stop-opacity="0"/></radialGradient><radialGradient id="Gradient_19" gradientUnits="userSpaceOnUse" cx="0" cy="0" r="127.63" fx="0" fy="0" gradientTransform="scale(-1 1) rotate(84.72 -126.594 -14.672)" spreadMethod="pad"><stop offset="0%" stop-color="#FFF"/><stop offset="100%" stop-color="#FFF" stop-opacity="0"/></radialGradient><radialGradient id="Gradient_20" gradientUnits="userSpaceOnUse" cx="0" cy="0" r="127.634" fx="0" fy="0" gradientTransform="matrix(-.03 1 .999 .03 129.4 112.45)" spreadMethod="pad"><stop offset="0%" stop-color="#FFF"/><stop offset="100%" stop-color="#FFF" stop-opacity="0"/></radialGradient><radialGradient id="Gradient_21" gradientUnits="userSpaceOnUse" cx="0" cy="0" r="127.634" fx="0" fy="0" gradientTransform="matrix(.03 1 .999 -.03 129.4 112.45)" spreadMethod="pad"><stop offset="0%" stop-color="#FFF"/><stop offset="100%" stop-color="#FFF" stop-opacity="0"/></radialGradient><radialGradient id="Gradient_22" gradientUnits="userSpaceOnUse" cx="0" cy="0" r="127.63" fx="0" fy="0" gradientTransform="scale(1 -1) rotate(-84.72 3.039 -127.28)" spreadMethod="pad"><stop offset="0%" stop-color="#FFF"/><stop offset="100%" stop-color="#FFF" stop-opacity="0"/></radialGradient><radialGradient id="Gradient_23" gradientUnits="userSpaceOnUse" cx="0" cy="0" r="127.633" fx="0" fy="0" gradientTransform="scale(1 -1) rotate(-81.2 -.894 -131.637)" spreadMethod="pad"><stop offset="0%" stop-color="#FFF"/><stop offset="100%" stop-color="#FFF" stop-opacity="0"/></radialGradient></defs><g id="anim_eggBreak"><g id="chick_shadow" transform="matrix(.83 0 0 1.069 75.7 197.65)"><animateTransform attributeName="transform" additive="replace" type="translate" repeatCount="indefinite" dur="0.958s" keyTimes="0;.04299;.043;.08699;.087;.12999;.13;.17399;.174;.21699;.217;.26099;.261;.30399;.304;.34799;.348;.39099;.391;.43499;.435;.47799;.478;.52199;.522;.56499;.565;.60899;.609;.65199;.652;.69599;.696;.73899;.739;.78299;.783;.82599;.826;.86999;.87;.91299;.913;.95699;.957;1" values="128.249,213.107;128.249,213.107;128.32,213.155;128.32,213.155;128.268,213.149;128.268,213.149;128.299,213.194;128.299,213.194;128.19,213.144;128.19,213.144;128.285,213.204;128.285,213.204;128.302,213.158;128.302,213.158;128.312,213.163;128.312,213.163;128.323,213.117;128.323,213.117;128.293,213.122;128.293,213.122;128.343,213.127;128.343,213.127;128.305,213.031;128.305,213.031;128.314,213.087;128.314,213.087;128.326,212.989;128.326,212.989;128.346,212.994;128.346,212.994;128.37,212.95;128.37,212.95;128.356,212.943;128.356,212.943;128.347,213.038;128.347,213.038;128.335,213.082;128.335,213.082;128.364,213.027;128.364,213.027;128.311,213.174;128.311,213.174;128.301,213.169;128.301,213.169;128.249,213.107;128.249,213.107" calcMode="discrete"/><animateTransform attributeName="transform" additive="sum" type="scale" repeatCount="indefinite" dur="0.958s" keyTimes="0;.04299;.043;.08699;.087;.12999;.13;.17399;.174;.21699;.217;.26099;.261;.30399;.304;.34799;.348;.39099;.391;.43499;.435;.47799;.478;.52199;.522;.56499;.565;.60899;.609;.65199;.652;.69599;.696;.73899;.739;.78299;.783;.82599;.826;.86999;.87;.91299;.913;.95699;.957;1" values=".83,1.069;.83,1.069;.838,1.079;.838,1.079;.846,1.089;.846,1.089;.853,1.099;.853,1.099;.861,1.109;.861,1.109;.853,1.099;.853,1.099;.846,1.089;.846,1.089;.838,1.079;.838,1.079;.83,1.069;.83,1.069;.823,1.06;.823,1.06;.815,1.05;.815,1.05;.807,1.04;.807,1.04;.799,1.03;.799,1.03;.792,1.02;.792,1.02;.784,1.01;.784,1.01;.776,1;.776,1;.784,1.01;.784,1.01;.792,1.02;.792,1.02;.799,1.03;.799,1.03;.807,1.04;.807,1.04;.815,1.05;.815,1.05;.823,1.06;.823,1.06;.83,1.069;.83,1.069" calcMode="discrete"/><animateTransform attributeName="transform" additive="sum" type="translate" repeatCount="indefinite" dur="0.958s" keyTimes="0;.04299;.043;.08699;.087;.12999;.13;.17399;.174;.21699;.217;.26099;.261;.39099;.391;.43499;.435;.52199;.522;.56499;.565;.60899;.609;.65199;.652;.69599;.696;.73899;.739;.82599;.826;.86999;.87;.95699;.957;1" values="-63.35,-14.5;-63.35,-14.5;-63.45,-14.55;-63.45,-14.55;-63.4,-14.55;-63.4,-14.55;-63.45,-14.55;-63.45,-14.55;-63.45,-14.6;-63.45,-14.6;-63.55,-14.65;-63.55,-14.65;-63.5,-14.65;-63.5,-14.65;-63.45,-14.65;-63.45,-14.65;-63.5,-14.65;-63.5,-14.65;-63.5,-14.7;-63.5,-14.7;-63.5,-14.6;-63.5,-14.6;-63.45,-14.65;-63.45,-14.65;-63.4,-14.4;-63.4,-14.4;-63.4,-14.5;-63.4,-14.5;-63.4,-14.55;-63.4,-14.55;-63.45,-14.55;-63.45,-14.55;-63.4,-14.6;-63.4,-14.6;-63.35,-14.5;-63.35,-14.5" calcMode="discrete"/><path fill-opacity=".298" d="M107.95 24.6q18.5-4.2 18.5-10.15t-18.5-10.2Q89.45.05 63.25.05q-26.2 0-44.7 4.2Q.05 8.5.05 14.45q0 5.95 18.5 10.15 18.5 4.25 44.7 4.25 26.2 0 44.7-4.25Z"/></g><g display="none" id="Layer23_0_FILL"><path fill="url(#Gradient_1)" d="M195.3 225.85q10.4-6.2 19.5-14.2 8.9-7.85 16.25-17.2l-102.6-80.55 66.85 111.95M47 215.5q9.3 7.5 19.85 13.15l61.6-114.75-98.75 84.95Q37.55 208 47 215.5m61.3 27.15q23.1 3.65 46.15-1l-26-127.75-20.15 128.75M7.1 160.95l.15.4 121.2-47.45-130.15 4.25q.75 22.05 8.8 42.8m6-107.55Q7.75 63.7 4.25 74.8l124.2 39.1-102.75-80q-7.15 9.2-12.6 19.5m236.95 13.35q-7.95-20.6-22.15-37.35l-99.45 84.5 121.6-47.15m7.45 66.45q1.75-11.65 1.4-23.5l-130.45 4.2 123.5 42q3.8-11.1 5.55-22.7M172.75-8.7q-11.2-4.1-22.95-6.05L128.45 113.9l65.8-112.6q-10.3-6-21.5-10m-66.8-5.75q-12.4 2.15-24.4 6.8Q69.15-2.85 58 4.3l70.45 109.6-22.5-128.35Z"/><animate attributeName="display" repeatCount="indefinite" dur="0.958s" keyTimes="0;.957;1" values="none;inline;inline"/></g><g display="none" id="Layer22_0_FILL"><path fill="url(#Gradient_2)" d="m128.45 113.9-12.1 129.7q23.25 2.2 45.9-3.85l-33.8-125.85m73.65 107.6q10-6.8 18.6-15.35 8.4-8.4 15.15-18.15l-107.4-74.1 73.65 107.6m-148.65-1.2q9.75 6.9 20.6 11.9l54.4-118.3-93.3 90.85q8.4 8.65 18.3 15.55m-43.25-52 .2.4 118.05-54.8L-1.2 126.15Q.9 148.1 10.2 168.3M9.65 60.65q-4.7 10.6-7.5 21.9l126.3 31.35-107.5-73.55Q14.4 50 9.65 60.65M247 59.3q-9.25-20.05-24.45-35.85l-94.1 90.45L247 59.3m7.35 88.9q3.05-11.3 4.1-23 1.05-11.75-.05-23.5l-129.95 12.2 125.9 34.3M187.2-2.55q-10.65-5.35-22.05-8.7-11.5-3.35-23.3-4.6l-13.4 129.75L187.2-2.55m-89.05-10.3q-12.3 2.95-24 8.35-12.1 5.55-22.8 13.35l77.1 105.05-30.3-126.75Z"/><animate attributeName="display" repeatCount="indefinite" dur="0.958s" keyTimes="0;.913;.957;1" values="none;inline;none;none"/></g><g display="none" id="Layer21_0_FILL"><path fill="url(#Gradient_3)" d="m128.45 113.95-4.1 130.2q23.35.75 45.6-6.65l-41.5-123.55m80.1 102.85q9.6-7.45 17.65-16.45 7.85-8.9 14-19.05l-111.75-67.35 80.1 102.85m-167.6-6.5q8.95 8.15 19.25 14.45 10.1 6.25 21.25 10.6l47-121.4-87.5 96.35M13.8 175.5l.2.4 114.45-61.95-128.6 20.2Q3.3 155.9 13.8 175.5M6.65 68.05Q2.55 79 .45 90.35l128 23.6-111.8-66.8q-5.95 10-10 20.9m236.75-15.9q-10.45-19.45-26.6-34.3l-88.35 96.1 114.95-61.8m12.8 88.25q2.4-11.45 2.7-23.15.35-11.85-1.5-23.55l-128.95 20.25L256.2 140.4M90.4-10.75Q78.35-7.05 67-.95q-11.7 6.3-21.9 14.8l83.35 100.1L90.4-10.75m67-2.5q-11.65-2.65-23.55-3.1l-5.4 130.3L179.95-5.9Q169-10.65 157.4-13.25Z"/><animate attributeName="display" repeatCount="indefinite" dur="0.958s" keyTimes="0;.87;.913;1" values="none;inline;none;none"/></g><g display="none" id="Layer20_0_FILL"><path fill="url(#Gradient_4)" d="m128.6 113.9 3.9 130.2q23.35-.65 45.1-9.4l-49-120.8M47.15 215.5q9.4 7.55 20.05 13.25 10.55 5.6 21.95 9.25l39.45-124.1-81.45 101.6m-29.2-33.05.2.35 110.45-68.9L1.45 142q4.75 21.55 16.5 40.45m42.2-179.4q-11.3 7-21 16.05l89.45 94.8L82.85-8.15q-11.75 4.4-22.7 11.2m-47.3 51.1Q7.5 64.5 4.1 75.65.75 86.75-.7 98.3l129.3 15.6L12.85 54.15M231.4 194.1q7.3-9.3 12.8-19.9l-115.6-60.3 86.3 97.75q9.1-8 16.5-17.55m26.3-61.55q1.7-11.65 1.25-23.35-.35-11.85-2.95-23.4l-127.4 28.1 129.1 18.65M239.5 45.2q-11.65-18.75-28.7-32.6l-82.2 101.3 110.9-68.7m-89.9-59.95q-11.8-1.95-23.65-1.7l2.65 130.35L172.55-8.9q-11.2-4-22.95-5.85Z"/><animate attributeName="display" repeatCount="indefinite" dur="0.958s" keyTimes="0;.826;.87;1" values="none;inline;none;none"/></g><g display="none" id="Layer19_0_FILL"><path fill="url(#Gradient_5)" d="m128.6 113.9 11.9 129.65q23.25-2.05 44.45-12.15L128.6 113.9m-75 106.45q9.85 6.9 20.85 11.9 10.8 5 22.4 7.9L128.6 113.9l-75 106.45M3.4 149.7q6.15 21.25 19 39.4l.25.35L128.6 113.9 3.4 149.7M53.45 7.45Q42.6 15.1 33.55 24.8l95.05 89.1L75.45-5.15q-11.5 5.15-22 12.6m-44 53.9q-4.7 10.65-7.4 22-2.75 11.3-3.4 22.85l129.95 7.7L9.45 61.35m226.7 126.25q6.75-9.75 11.6-20.65L128.6 113.9l92.15 92.2q8.6-8.55 15.4-18.5m22.5-63.15q.95-11.65-.15-23.3-1.15-11.8-4.4-23.15l-125.5 35.9 130.05 10.55m-23.6-86q-12.75-18.05-30.6-30.8L128.6 113.9l106.45-75.45m-93.4-54.35q-11.9-1.2-23.75-.2l10.7 130 36.35-125.35q-11.45-3.3-23.3-4.45Z"/><animate attributeName="display" repeatCount="indefinite" dur="0.958s" keyTimes="0;.783;.826;1" values="none;inline;none;none"/></g><g display="none" id="Layer18_0_FILL"><path fill="url(#Gradient_6)" d="m128.7 113.85 19.9 128.75q23.15-3.5 43.6-14.9l-63.5-113.85M81.95 235.4q11.15 4.3 22.9 6.5l23.85-128.05-68.3 110.9q10.3 6.35 21.55 10.65m-75.9-78q7.35 20.75 21.25 38.05l.3.35 101.1-81.95L6.05 157.4M47.2 12.25Q36.85 20.6 28.35 30.8l100.35 83.05L68.35-1.65Q57.25 4.2 47.2 12.25M6.5 68.8Q2.55 79.75.5 91.25q-2 11.4-1.95 23l130.15-.4L6.5 68.8m234.15 112q6.1-10.1 10.3-21.25l-122.25-45.7 97.7 86.45q8.05-9.05 14.25-19.5M230.35 32Q216.5 14.8 197.9 3.2l-69.2 110.65L230.35 32m27.2 61.15q-1.85-11.7-5.8-22.85L128.7 113.85l130.45 2.65q.25-11.75-1.6-23.35M157.3-13.4q-11.65-2.6-23.5-3-11.95-.45-23.75 1.2l18.65 129.05L157.3-13.4Z"/><animate attributeName="display" repeatCount="indefinite" dur="0.958s" keyTimes="0;.739;.783;1" values="none;inline;none;none"/></g><g display="none" id="Layer17_0_FILL"><path fill="url(#Gradient_7)" d="m128.8 113.8 96.4-88Q210.3 9.5 191-.95L128.8 113.8m0 0 27.75 127.3q22.85-5 42.55-17.6l-70.3-109.7M89.55 237.95q11.4 3.55 23.25 5.05l16-129.2-61.4 114.85q10.65 5.7 22.15 9.3M128.8 113.8 4.05 76.3Q.7 87.5-.6 99.05q-1.25 11.55-.5 23.1l129.9-8.35m0 0L9 164.75q8.6 20.3 23.6 36.7l.25.3 95.95-87.95M61.45 2.2Q50.65 8.7 41.1 17.35q-9.8 9-17.65 19.7L128.8 113.8 61.45 2.2M244.6 173.7q5.5-10.5 8.95-21.9l-124.75-38L231.55 194q7.5-9.55 13.05-20.3m11.45-88.55q-2.55-11.55-7.2-22.4L128.8 113.8l130.3-5.5q-.45-11.7-3.05-23.15M149.45-15q-11.8-1.85-23.65-1.6-11.9.25-23.6 2.7l26.6 127.7L149.45-15Z"/><animate attributeName="display" repeatCount="indefinite" dur="0.958s" keyTimes="0;.696;.739;1" values="none;inline;none;none"/></g><g display="none" id="Layer16_0_FILL"><path fill="url(#Gradient_8)" d="m128.75 113.8 90.8-93.7Q203.7 4.7 183.8-4.55L128.75 113.8m35.55 125.35q22.5-6.35 41.45-20.25l-77-105.1 35.55 125.35m-67.05.95q11.55 2.9 23.55 3.65l7.95-129.95L74.6 232.2q10.95 5 22.65 7.9m31.5-126.3L1.95 84.05Q-.7 95.4-1.3 107q-.55 11.65.95 23.2l129.1-16.4m0 0L12.3 172q9.9 19.75 25.85 35.25l.3.3 90.3-93.75M35.3 22.95q-9.25 9.55-16.4 20.7l109.85 70.15L54.65 6.55Q44.3 13.7 35.3 22.95M248.1 166.5q4.8-10.85 7.55-22.45l-126.9-30.25 107.55 73.7q6.9-9.95 11.8-21m5.95-89.1Q250.8 66 245.5 55.45L128.75 113.8l129.75-13.5q-1.2-11.65-4.45-22.9M117.8-16.2q-11.95 1.05-23.45 4.2l34.4 125.8L141.5-16.05q-11.9-1.1-23.7-.15Z"/><animate attributeName="display" repeatCount="indefinite" dur="0.958s" keyTimes="0;.652;.696;1" values="none;inline;none;none"/></g><g display="none" id="Layer15_0_FILL"><path fill="url(#Gradient_9)" d="m128.9 113.85 84.8-99.1Q196.9.35 176.5-7.65l-47.6 121.5m43.15 122.95q22.1-7.8 40.15-22.75l-83.3-100.2 43.15 122.95m-89.95-1.4q11.2 4.3 23.1 6.5 11.7 2.15 23.65 2.15l.05-130.2L82.1 235.4m46.8-121.55L.45 91.95q-1.9 11.55-1.8 23.15.15 11.65 2.3 23.05l127.95-24.3m0 0-112.65 65.3q11.05 19.1 27.95 33.55l.3.3 84.4-99.15M48.3 11.4Q38.35 19.2 30 28.95q-8.65 10.1-15.05 21.7l113.95 63.2L48.3 11.4m202.85 147.7q4.15-11.1 6.2-22.8L128.9 113.85l111.8 67q6.25-10.4 10.45-21.75m6.4-66.7q-1.9-11.55-5.85-22.6-4-11.1-9.95-21.4L128.9 113.85 257.55 92.4M109.9-15.2q-11.85 1.75-23.15 5.65l42.15 123.4 4.65-130.35q-11.9-.4-23.65 1.3Z"/><animate attributeName="display" repeatCount="indefinite" dur="0.958s" keyTimes="0;.609;.652;1" values="none;inline;none;none"/></g><g display="none" id="Layer14_0_FILL"><path fill="url(#Gradient_10)" d="m128.95 113.85 78.6-104.2q-17.65-13.3-38.5-20.05l-40.1 124.25m50.65 120q21.6-9.1 38.7-25.15l-89.35-94.85 50.65 120m-89.85 4.1q11.5 3.65 23.5 5.1 11.8 1.4 23.75.7l-8.05-129.9-39.2 124.1m-86.95-92 126.15-32.1L-.5 99.9q-1.2 11.55-.4 23.2.85 11.55 3.7 22.85m126.15-32.1L20.6 185.95q12.2 18.35 29.95 31.75l.35.25 78.05-104.1M42.25 16.5q-9.4 8.35-17.2 18.65-8 10.6-13.75 22.55l117.65 56.15-86.7-97.35m202.5 157.3q5.6-10.8 9.05-22.35 3.45-11.35 4.8-23.2l-129.65-14.4 115.8 59.95m11.35-89.3q-2.6-11.45-7.25-22.2-4.7-10.9-11.2-20.75l-108.7 72.3L256.1 84.5M125.6-16.6q-11.9.35-23.5 2.8-11.7 2.45-22.75 7l49.6 120.65L125.6-16.6Z"/><animate attributeName="display" repeatCount="indefinite" dur="0.958s" keyTimes="0;.565;.609;1" values="none;inline;none;none"/></g><g display="none" id="Layer13_0_FILL"><path fill="url(#Gradient_11)" d="M129 113.75 201 4.9q-18.45-12.2-39.65-17.6L129 113.75m57.9 116.6q21-10.35 37.05-27.4L129 113.75l57.9 116.6m-89.45 9.75q11.75 2.85 23.8 3.55 11.9.75 23.75-.7l-16-129.2L97.45 240.1m-92.4-86.55L129 113.75l-130.1-6q-.55 11.7 1.05 23.2 1.55 11.55 5.1 22.6M129 113.75l-103.75 78.6q13.3 17.6 31.85 29.9l.35.2L129 113.75M36.45 21.9q-8.9 8.95-16 19.7Q13.1 52.7 8.1 64.95l120.9 48.8L36.45 21.9M255.9 143.6q2.75-11.55 3.3-23.4L129 113.75l119.2 52.65q4.95-11.05 7.7-22.8m-1.85-66.95q-3.3-11.25-8.6-21.7-5.3-10.6-12.45-20l-104 78.8 125.05-37.1M117.6-16.25Q105.75-15.2 94.3-12 82.75-8.85 72.05-3.65L129 113.75l-11.4-130Z"/><animate attributeName="display" repeatCount="indefinite" dur="0.958s" keyTimes="0;.522;.565;1" values="none;inline;none;none"/></g><g display="none" id="Layer12_0_FILL"><path fill="url(#Gradient_12)" d="m129 113.75 65 112.9q20.3-11.7 35.3-29.7L129 113.75m0 0 65.15-113q-19.1-11.05-40.65-15.2L129 113.75m-65.1 112.7.35.2L129 113.75l-98.7 84.9q14.35 16.7 33.6 27.8m65.35 17.45q11.9.05 23.7-2.2L129 113.75 105.35 241.8q11.85 2.15 23.9 2.1m-128-105q2.3 11.4 6.5 22.2L129 113.75l-130.25 2.1q.25 11.65 2.5 23.05M31 27.8q-8.35 9.5-14.8 20.65-6.65 11.5-10.85 24.1L129 113.75 31 27.8m226.55 107.9q2-11.65 1.85-23.55l-130.4 1.6L251.25 159q4.2-11.35 6.3-23.3m-15.9-87.85q-5.95-10.2-13.7-19.15L129 113.75l122.55-44.7q-4-11.05-9.9-21.2m-132-63.1Q97.85-13.5 86.6-9.6 75.35-5.75 64.95.15L129 113.75l-19.35-129Z"/><animate attributeName="display" repeatCount="indefinite" dur="0.958s" keyTimes="0;.478;.522;1" values="none;inline;none;none"/></g><g display="none" id="Layer11_0_FILL"><path fill="url(#Gradient_13)" d="m129 113.7 71.9 108.65q19.5-12.85 33.35-31.8L129 113.7M71 230.2l.4.2L129 113.7l-93.25 90.85Q51.1 220.3 71 230.2m66.3 13.45q11.9-.8 23.5-3.7L129 113.7l-15.7 129.25q11.95 1.45 24 .7M3.05 146.7q3 11.2 7.9 21.75L129 113.7-.8 123.8q.95 11.65 3.85 22.9m9.35-91.2Q6.5 67.4 3.1 80.2L129 113.7 25.9 34q-7.75 9.95-13.5 21.5m246.25 72.25q1.3-11.8.45-23.65L129 113.7l124.8 37.7q3.55-11.6 4.85-23.65m-21.25-86.7q-6.6-9.85-14.8-18.35l-93.6 91 119.55-52.15q-4.65-10.75-11.15-20.5M187.1-3.1q-19.75-9.85-41.5-12.65L129 113.7 187.1-3.1m-85.3-10.75q-11.7 2.5-22.65 7.05Q68.1-2.25 58.1 4.25L129 113.7 101.8-13.85Z"/><animate attributeName="display" repeatCount="indefinite" dur="0.958s" keyTimes="0;.435;.478;1" values="none;inline;none;none"/></g><g display="none" id="Layer10_0_FILL"><path fill="url(#Gradient_14)" d="m128.95 113.6 78.4 104q18.7-14 31.35-33.8l-109.75-70.2M41.45 210q16.3 14.8 36.75 23.45l.4.15 50.35-120-87.5 96.4m79.75 33.55q12.05.75 24-.8 11.85-1.45 23.25-5.15l-39.5-124-7.75 129.95M5.25 154.25q3.65 11 9.2 21.25l114.5-61.9-129 18.05q1.65 11.55 5.3 22.6M9 62.65Q3.8 74.9 1.2 87.9l127.75 25.7L21.1 40.35Q14.05 50.75 9 62.65m246.85 80.85q2.8-11.8 3.35-23.85.6-11.85-1-23.7L128.95 113.6l126.9 29.9M232.6 34.4q-7.15-9.45-15.85-17.4l-87.8 96.6 116.1-59.45q-5.3-10.45-12.45-19.75m-52.85-41q-20.35-8.65-42.25-10.05l-8.55 130.25 50.8-120.2M93.9-12.05q-11.5 3.2-22.15 8.4Q61 1.6 51.4 8.7l77.55 104.9L93.9-12.05Z"/><animate attributeName="display" repeatCount="indefinite" dur="0.958s" keyTimes="0;.391;.435;1" values="none;inline;none;none"/></g><g display="none" id="Layer9_0_FILL"><path fill="url(#Gradient_15)" d="m129 113.6 84.65 98.95q17.8-15.15 29.2-35.6L129 113.6M85.75 236.35l.4.15L129 113.6 47.55 215.2q17.25 13.75 38.2 21.15m43.5 7.4q12.1.05 23.9-2.25 11.75-2.2 22.85-6.5l-47-121.4.25 130.15M8 161.8q4.35 10.8 10.5 20.6L129 113.6 1.35 139.55Q3.7 150.95 8 161.8m8.8-114.7Q10.4 58 6.15 70.15 1.7 82.7-.1 95.8L129 113.6 16.8 47.1M64.7.1Q54.3 6 45.15 13.7L129 113.6 86.25-9.65Q75-5.75 64.7.1m192.75 135.5q2.1-11.9 1.95-24-.2-11.85-2.5-23.55L129 113.6l128.45 22M241.2 47.15q-5.95-10.15-13.6-19-7.75-8.95-16.95-16.35L129 113.6l112.2-66.45m-68.9-56.7q-20.85-7.3-42.8-7.35l-.5 130.5L172.3-9.55Z"/><animate attributeName="display" repeatCount="indefinite" dur="0.958s" keyTimes="0;.348;.391;1" values="none;inline;none;none"/></g><g display="none" id="Layer8_0_FILL"><path fill="url(#Gradient_16)" d="m129.05 113.5 90.6 93.6q16.85-16.2 27-37.4l-117.6-56.2m-35.6 125.2.4.15 35.2-125.35-75 106.45q18 12.7 39.4 18.75m43.95 4.8q12-.8 23.7-3.75 11.55-3 22.4-7.95l-54.45-118.3 8.35 130M11.3 169.1q5 10.5 11.75 19.95l106-75.55L3.3 147.3q3 11.25 8 21.8M57.9 4.2q-10 6.55-18.65 14.75l89.8 94.55L78.85-6.85q-11 4.6-20.95 11.05M13.05 54.1Q7.35 65.3 3.8 77.7.15 90.5-.9 103.75l129.95 9.75-116-59.4m245.65 73.5q1.35-12 .4-24.1-.85-11.85-3.9-23.35L129.05 113.5l129.65 14.1M237 40.25q-6.55-9.7-14.7-18.1-8.3-8.45-18-15.25l-75.25 106.6L237 40.25M164.7-12q-21.25-6.05-43.15-4.75l7.5 130.25L164.7-12Z"/><animate attributeName="display" repeatCount="indefinite" dur="0.958s" keyTimes="0;.304;.348;1" values="none;inline;none;none"/></g><g display="none" id="Layer7_0_FILL"><path fill="url(#Gradient_17)" d="m129.1 113.5 96.2 87.85q15.85-17.2 24.6-38.95l-120.8-48.9m39.75 124.05q11.35-3.65 21.9-9.3L129.1 113.5l16.3 129.2q11.95-1.5 23.45-5.15m-67.6 3.1.45.1 27.4-127.25-68.3 110.85q18.75 11.55 40.45 16.3M5.65 155q3.75 11.05 9.4 21.25 5.55 10.15 12.9 19.15l101.15-81.9L5.65 155M51.4 8.8q-9.65 7.15-17.75 15.9l95.45 88.8L71.6-3.55Q60.9 1.75 51.4 8.8M9.7 61.35Q4.65 72.9 1.9 85.5q-2.85 13-3.1 26.25l130.3 1.75L9.7 61.35m222.65-27.6q-7.15-9.3-15.85-17.1-8.8-7.95-18.85-14.2L129.1 113.5l103.25-79.75M258.3 95.5q-1.65-11.75-5.35-23l-123.85 41 130.25 6.1q.6-12.1-1.05-24.1M156.95-13.95q-21.55-4.75-43.35-2.1l15.5 129.55 27.85-127.45Z"/><animate attributeName="display" repeatCount="indefinite" dur="0.958s" keyTimes="0;.261;.304;1" values="none;inline;none;none"/></g><g display="none" id="Layer6_0_FILL"><path fill="url(#Gradient_18)" d="M176.45 234.75q11.1-4.3 21.3-10.6l-68.6-110.7 24.25 127.9q11.8-2.2 23.05-6.6m-67.25 7.3.4.05 19.55-128.65-61.35 114.8q19.45 10.4 41.4 13.8M8.5 162.45q4.4 10.8 10.65 20.6 6.25 9.85 14.1 18.35l95.9-87.95-120.65 49m-1.8-93.7Q2.4 80.55.45 93.3-1.6 106.45-1 119.65l130.15-6.2L6.7 68.75M64.5.15Q54.15 6.05 45.1 13.7q-9.15 7.75-16.7 16.95l100.75 82.8L64.5.15M230.6 195.2q14.7-18.15 22.15-40.4l-123.6-41.35L230.6 195.2m-3.3-167.7q-7.75-8.85-16.9-16.15-9.25-7.4-19.65-13l-61.6 115.1L227.3 27.5m29.7 60q-2.35-11.65-6.8-22.65l-121.05 48.6 130.35-1.95q-.15-12.1-2.5-24m-107.9-103q-21.8-3.4-43.4.55l23.45 128.4L149.1-15.5Z"/><animate attributeName="display" repeatCount="indefinite" dur="0.958s" keyTimes="0;.217;.261;1" values="none;inline;none;none"/></g><g display="none" id="Layer5_0_FILL"><path fill="url(#Gradient_19)" d="M183.85 231.6q10.8-5.05 20.6-11.9L129.2 113.45l32.05 126.15q11.65-2.95 22.6-8m-66.65 11.45h.4l11.6-129.6L75 231.8q20.05 9.2 42.2 11.25m12-129.6L4.25 76.35q-3.6 12.05-4.8 24.9-1.2 13.2.25 26.4l129.5-14.2m-117.4 56.3q5.05 10.5 11.85 19.95 6.85 9.4 15.2 17.45l90.35-93.7-117.4 56.3m27.35-150.7Q30.5 27.35 23.5 37l105.7 76.45L57.7 4.3q-10 6.6-18.55 14.75m196.3 169.75q13.55-19.1 19.65-41.7l-125.9-33.65 106.25 75.35M221.8 21.55q-8.25-8.3-17.8-15.05-9.7-6.8-20.45-11.75l-54.35 118.7 92.6-91.9m33.35 58.1q-3-11.4-8.1-22.2l-117.85 56 129.95-10q-.9-12.1-4-23.8M141.2-16.5q-22-2.05-43.35 3.25l31.35 126.7 12-129.95Z"/><animate attributeName="display" repeatCount="indefinite" dur="0.958s" keyTimes="0;.174;.217;1" values="none;inline;none;none"/></g><g display="none" id="Layer4_0_FILL"><path fill="url(#Gradient_20)" d="M168.9 237.2q11.5-3.65 22.1-9.35 10.5-5.7 19.8-13.15l-81.6-101.45 39.7 123.95m-43.7 6.15h.4l3.6-130.1L82.35 234.7q20.6 7.95 42.85 8.65m4-130.1L2.15 83.9q-2.8 12.25-3.2 25.15-.4 13.3 1.85 26.35l128.4-22.15M15.45 176.7q5.65 10.15 13.1 19.15 7.4 8.95 16.2 16.5l84.45-99.1L15.45 176.7m18-152.1q-8.05 8.75-14.5 18.85l110.25 69.8L51.05 8.75q-9.5 7.15-17.6 15.85M239.9 181.9q12.35-19.85 17-42.8l-127.7-25.85 110.7 68.65M215.95 15.85q-8.7-7.8-18.7-13.95-10.1-6.2-21.15-10.45l-46.9 121.8 86.75-97.4M258.3 95.3q-1.65-12.05-5.5-23.5-3.75-11.25-9.45-21.7L129.2 113.25 258.3 95.3M133.15-17.15q-22.1-.7-43.05 5.85l39.1 124.55 3.95-130.4Z"/><animate attributeName="display" repeatCount="indefinite" dur="0.958s" keyTimes="0;.13;.174;1" values="none;inline;none;none"/></g><g display="none" id="Layer3_0_FILL"><path fill="url(#Gradient_21)" d="M176.5 234.55q11.2-4.35 21.5-10.75 10.1-6.3 18.9-14.35l-87.7-96.25 47.3 121.35m-43.3 8.75h.4l-4.4-130.1-39.25 124.15q21 6.65 43.25 5.95m-4-130.1L19.55 183.55q6.35 9.75 14.3 18.35 7.9 8.45 17.2 15.4l78.15-104.1m0 0L.65 91.75q-2.1 12.45-1.7 25.35.4 13.3 3.45 26.15l126.8-30.05M44.85 13.7q-9.1 7.75-16.6 16.95-7.55 9.25-13.3 19.65l114.25 62.9-84.35-99.5M243.9 174.95q11.15-20.55 14.4-43.8L129.2 113.2l114.7 61.75m13.1-87.6q-2.35-11.85-6.9-23.1-4.45-10.95-10.85-21L129.2 113.2 257 87.35m-66.65-89.4q-10.5-5.6-21.75-9.15l-39.4 124.4 80.65-102.5q-9.2-7.3-19.5-12.75m-65.2-15.15q-22.1.7-42.55 8.55l46.6 121.85-4.05-130.4Z"/><animate attributeName="display" repeatCount="indefinite" dur="0.958s" keyTimes="0;.087;.13;1" values="none;inline;none;none"/></g><g display="none" id="Layer2_0_FILL"><path fill="url(#Gradient_22)" d="M204.7 219.4q9.7-6.95 18-15.5l-93.45-90.65L183.9 231.4q10.95-5.05 20.8-12m-63.45 23.45h.4l-12.4-129.6-31.5 126.35q21.35 5.3 43.5 3.25m-12-129.6-105.1 76.9q6.95 9.4 15.35 17.45 8.45 8 18.2 14.35l71.55-108.7m-124.7 37.8 124.7-37.8L-.4 99.75q-1.3 12.55-.1 25.4 1.2 13.2 5.05 25.9M38.95 19.1q-8.6 8.3-15.55 17.95-6.95 9.7-12.05 20.45l117.9 55.75-90.3-94.15M247.5 167.8q9.85-21.2 11.65-44.6l-129.9-9.95L247.5 167.8m7.7-88.25q-3.1-11.7-8.3-22.6-5.1-10.7-12.1-20.3l-105.55 76.6 125.95-33.7M183.15-5.6q-10.8-4.9-22.25-7.75l-31.65 126.6 74.2-107.3q-9.65-6.7-20.3-11.55m-66-11.1q-22 2.05-41.95 11.15l54.05 118.8-12.1-129.95Z"/><animate attributeName="display" repeatCount="indefinite" dur="0.958s" keyTimes="0;.043;.087;1" values="none;inline;none;none"/></g><g id="Layer1_0_FILL"><path fill="url(#Gradient_23)" d="M191.05 227.75q10.6-5.7 19.95-13.3 9.3-7.5 17.1-16.6l-98.9-84.7 61.85 114.6m-41.9 14 .4-.05-20.35-128.55-23.65 128q21.65 4 43.6.6m-19.95-128.6-100.15 83.3q7.5 8.9 16.35 16.4 8.95 7.45 19 13.25l64.8-112.95M.4 133q2.05 13.15 6.65 25.55l122.15-45.4-130.25-5.5Q-1.55 120.25.4 133M33.25 24.75q-8.05 8.8-14.4 18.85-6.35 10.15-10.8 21.15l121.15 48.4-95.95-88.4m217.4 135.55q8.5-21.75 8.85-45.2l-130.3-1.95 121.45 47.15m2.2-88.5q-3.85-11.5-9.7-22.1-5.75-10.35-13.3-19.55l-100.65 83L252.85 71.8m-77.2-80.55q-11.05-4.3-22.65-6.4l-23.8 128.3L196.65 1.5q-10.05-6.05-21-10.25m-66.5-7.05q-21.8 3.4-41.2 13.75l61.25 115.2L109.15-15.8Z"/><animate attributeName="display" repeatCount="indefinite" dur="0.958s" keyTimes="0;.043;1" values="inline;none;none"/></g><g id="chick_Legs" transform="matrix(-.298 0 0 .298 128.9 181.95)" stroke="#EE9300" stroke-width="17" stroke-linejoin="round" stroke-linecap="round" fill="none"><path id="Layer30_0_1_STROKES" d="M38.45 120.75 84 0"/><path id="Layer31_0_1_STROKES" d="m5.05 67.85 46.3 15.25"/><path id="Layer32_0_1_STROKES" d="m0 100 50.6-15.85"/><path id="Layer33_0_1_STROKES" d="M-37.8 108.3 7.75-12.45"/><path id="Layer34_0_1_STROKES" d="m-71.15 55.35 46.3 15.25"/><path id="Layer35_0_1_STROKES" d="m-76.2 87.5 50.6-15.85"/></g><g id="chick_all" transform="matrix(-.349 0 0 .349 211 20.15)"><animateTransform attributeName="transform" additive="replace" type="translate" repeatCount="indefinite" dur="0.958s" keyTimes="0;.04299;.043;.08699;.087;.12999;.13;.17399;.174;.21699;.217;.26099;.261;.30399;.304;.34799;.348;.39099;.391;.43499;.435;.47799;.478;.52199;.522;.56499;.565;.60899;.609;.65199;.652;.69599;.696;.73899;.739;.78299;.783;.82599;.826;.86999;.87;.91299;.913;.95699;.957;1" values="211,20.15;211,20.15;211.2,20.45;211.2,20.45;211.4,20.75;211.4,20.75;211.6,21.05;211.6,21.05;211.796,21.405;211.796,21.405;211.6,21.1;211.6,21.1;211.4,20.8;211.4,20.8;211.2,20.5;211.2,20.5;211,20.2;211,20.2;210.8,19.9;210.8,19.9;210.55,19.55;210.55,19.55;210.35,19.25;210.35,19.25;210.15,18.95;210.15,18.95;209.95,18.65;209.95,18.65;209.75,18.35;209.75,18.35;209.546,18.055;209.546,18.055;209.75,18.3;209.75,18.3;209.95,18.6;209.95,18.6;210.15,18.9;210.15,18.9;210.35,19.2;210.35,19.2;210.55,19.5;210.55,19.5;210.8,19.85;210.8,19.85;211,20.15;211,20.15" calcMode="discrete"/><animateTransform attributeName="transform" additive="sum" type="skewY" repeatCount="indefinite" dur="0.958s" keyTimes="0;1" values="180;180" calcMode="discrete"/><animateTransform attributeName="transform" additive="sum" type="scale" repeatCount="indefinite" dur="0.958s" keyTimes="0;1" values=".349,.349;.349,.349" calcMode="discrete"/><animateTransform attributeName="transform" additive="sum" type="scale" repeatCount="indefinite" dur="0.958s" keyTimes="0;1" values="-1,1;-1,1" calcMode="discrete"/><g id="chick_body" transform="translate(63.35 46.8)"><path fill="#EE9300" d="M412.45 266.05q-2.6-7.15-6.5-8.65-3.85-1.5-10.8 1.85-1.05.5-14.85 7.8.2-.35 3.1-5.95 1.7-3.35 2.65-5.55 2.6-6.05.45-9.35t-8.7-3.35q-23.65-.15-43.45 7.55-3.1 1.2-15.7 5.55-7.75-28.85-26.35-51.1-20.25-24.2-47-32.15-1.35-21.05-11.95-42.9-17.05-34.9-50.55-47.15-34.3-12.5-61.5-7.6-17.1 3.05-34.9 14.65-11.75 7.6-23.75 29.05-3.9 6.9-8.45 17.5-.6 1.45-2.75 8.4-2.15 6.45-3.7 7.3-13 7.1-47.75 26.55l37.1 18.05q-.15 3.2-.8 17.5-.5 10.3-.7 16.8-.55 23.3 1.8 42.95 2.75 22.35 9.45 42.05 13.7 40.1 41.05 68.05 26.5 27.05 66.85 43.8 28.85 11.95 67.55 11.85 19.35-.05 32.95-2.5 6.55-1.65 19-4.6 10.9-2.7 18.05-5.1 17.3-5.8 34.45-14.35 62.1-31.1 84.65-97.55 9.3-27.05 1.05-49.4Z"/><path fill="#C47800" d="M402.85 287.5q.25-3.7 0-13.1-36.35 42.4-52.95 61.65-8.4-5.1-12.95-7.45-11.95-6.1-17.75-6v.05l4.2 9.6q4.05 10.5 3.55 14.85-6.6 2.35-15.3 2-.55 0-15.6-1.5.9 1.75 6.95 11.1 4.15 6.35 5.25 11.2-7.6 2.5-18.5 1-6-.95-9-1.4-5.4-.85-9.1-.95l21 17.6-3 1.5q-1.3.65-2.1.75-11.75 1.9-17.6 2.75-10.35 1.6-17.65 2.15-12.9 1-27.65-1.9-11-2.2-26.8-7.5-17.85-6-33.3-17.7-14-10.55-26.75-26.4-12.35-15.4-13.9-17.45-6.9-9.35-11.45-18.95-2.25-4.65-7.25-18.45-4.5-12.35-4.6-12.3-2.8 8.85-3.6 14.55-.9 6.6.25 13.15-12.5-12.95-21.7-34.95-.75 9.65-.5 17 .3 9.45 2.15 18.75-9.7-8.65-18.25-26.55-3.95-8.35-10.05-25.15 0 16.85 5.8 41 7.25 30.3 19.95 52.25 11.85 17.6 34.1 36.75 16.75 14.4 27.8 20.8 19.5 11.35 43.1 16.8 20.75 4.85 46.05 5.4 28.5.65 58.25-7.95 28.15-8.1 49.2-20.6 23.7-14.15 40.45-35.05 13.1-16.3 20.3-33.45 7.65-18.15 8.95-37.9ZM32.65 179.75q-13.45.2-20.55.2l34.5 15.2q.4 3.2.35 14.8-.05 9.1 1.55 14.6 6.85-10.3 10.35-17.35 4.8-9.85 6.55-19.75-4.35-3-6.5-4.4-3.85-2.6-6.55-2.8-8-.6-19.7-.5Z"/><path fill="#C47800" d="M352 275.85q-5.1 8.65-7.75 12.9l11.55-6.15q6.55-3.65 10.8-6.95 11.3-8.9 14.4-22.2-14.35 1.95-20.65 9.95-3.7 4.8-8.35 12.45Z"/><path fill="#F3B000" d="M140.05 225.7q-6.5 2.25-11.05 6.3-7.6 6.75-10 17.05-1.7 7.45-1 19.55.75 11.9 6.25 24.6 3.95 9.1 12.3 22.3 5.5 8.55 14.85 18.35 5.45 5.7 16.75 16.65 1 1 2.7 2.1 1 .6 3 1.85-4.4-10.7-6.5-15.95-3.8-9.3-6.1-15.75-4.2-12.05-5.25-15.75-2.45-9.1-2.3-16.9 3.15 3.85 8.95 11.2 5.15 6.45 8.75 10.55 9.8 11.1 22.7 14.25-9.65-14.75-13.9-32.7-3.65-15.5-3.55-34.95l1.35-.65 33.3 30 1.1-.75q-4.4-11.9-6.5-17.95-3.75-10.75-4.1-19.05 3.65 3.1 10.5 9.1 6.05 5.2 10.3 8.6 12.85 10.3 27.6 21.1 2.7 1.95 7 4.55 2.4 1.45 7.2 4.3-3-7.65-4.9-11.25-1.9-3.55-5.05-8.9-4.65-7.85-5.2-8.8l1.55-1.65q4.45 2.5 13.5 7.25 8 4.35 12.9 8.05 11.2 8.45 36.35 30.45-4.95-7.4-11.2-16.4-12.5-18.05-19.05-26-5.8-7.15-15.55-14.6-8.25-6.4-12.1-9.1-6.9-4.9-12.75-7.9-5.7-2.9-14.85-6.1-10.2-3.45-15.25-5.35-14-5.25-30-6.15-13.9-.75-30.5 1.75-7.65 1.15-12.25 2.7ZM299.55 228q-6.65-11.15-13.5-18.75-7.2-7.95-12-8.95-5.15 14 2 23.5 5.1 6.7 13.5 16.55 12.5 14.55 13.9 16.2 2.3 2.75 5.55 6.95 1.85 2.4 5.8 7.5.35-16.8-15.25-43ZM110.3 182.05q1.95 3.1 4.5 5.25 4.8 4.05 12.45 5.75 7.35 1.65 15.1.7 8-.95 14-4.4 6.5-3.65 9.05-9.45 0-6.7-5.4-9.55-1.7-.85-3.7-1.25l-1.7-.2q-5.9-1.2-13.95-2.1-16-1.85-26.4-.5-3.25.4-5.25 3-2 2.65-1.5 5.8.55 3.45 2.8 6.95ZM239.9 373.6q-12.5-3.25-21.3-3.85-4.4-.3-11 .1-7.3.55-10.95.7 8 6.8 32.6 11.25 24.9 4.5 30.95-.25-4.1-2.95-9.95-5-2.15-.75-10.35-2.95ZM357.35 289.1q-3.4 2.55-4.35 6.3-.9 3.75.9 8.05 1.8-.5 5.8-1.15 3.5-.75 5.1-2.2 5.6-4.9 12.15-12.35 8.3-9.35 11.75-12.8 2.1-2.1 8.9-10.4-14.05 7.05-20.7 11.1-7.7 4.65-19.55 13.45ZM34.45 164.55q-12.4 5.65-17.4 10.45 2.9 2 23.15 1.05t24.5-3.2q-1.3-1.95-1.95-2.9-1.1-1.65-2.1-2.6-1.8-1.75-4.6-4.1-3.15-2.65-4.75-4-4.5-.35-16.85 5.3ZM59.45 143.55q-.65 1.3-.15 3.85l.9 4.35h6.9q6.3-5.25 9.7-17.75 3.35-12.45 1.4-23.45-.4.35-1.25.95-.7.55-1 1-2.8 5.15-8.45 15.45-4.85 8.95-8.05 15.6ZM337.6 266.75q7.05-5.4 13.15-8.5 6.25-3.15 14.6-5.5 3.4-.95 12.25-5.25-6.4-1.6-19.3.35-8.65 1.35-14.9 3.45-7.75 2.55-13.7 6.8-2.85 2.05-3.7 3.4-1.5 2.35-.15 5.35 6.1 4.2 11.75-.1Z"/><path fill="#F7D57B" d="M129.75 240.5q-1.9 2.55-3.2 5.6-4.35 10.25-2.15 22.25 1.4 7.7 7.1 21.3.35.8 1.9 1.8 3 1.9 3.3 2.15l-.6-4.95-.9-8.85q-.5-5.25-.4-8.85.15-4.85 3.2-10.1 2.65-4.4 7.05-5.15 3.9-.6 9.65 1.55 1.95-5.9 2.9-8.75 1.7-5.1 3.75-7.8 2.15-2.85 6.55-6.15 5.15-3.55 7.6-5.55-1-.95-1.1-.95-22.85-2.3-40.1 8.15-2.4 1.45-4.55 4.3ZM229.05 240.6q-6.35-6.5-21.65-9.7-15.4-3.2-22.85.55 4.15 4.4 23.1 8.25 18.85 3.8 21.4.9ZM250.5 252.35q-1.95-2.05-2.85-2.95-1.5-1.55-2.75-2.05-1.1-.5-3.05-.4-2.35.2-3.55.2 1.2 4.35 4.15 5.6 2.95 1.3 8.05-.4ZM298.3 238.8q-1.6-9.3-8.6-19.25-7.1-10.1-12.25-10.15.1 1.1 0 3.3 0 1.9.55 2.9 7.6 14.5 20.3 23.2ZM155.8 176.15l-15.75 11.25q5.7 2.65 11.95-.4 6.25-3.05 7.55-9.1l-3.75-1.75ZM364.2 290.1q-.2 1-.6 3.05l2.05 1.05 11-9.4q-3.1-1.8-6.2-1.05-3.1.7-5.25 3.6-.65.9-1 2.75ZM385 274.4l-6.6 2.8 2.55 4.15 4.95-5.65-.9-1.3ZM35.55 166.65q-6.25 3.15-9.4 4.7 9.1 1.6 16.1-.7 7-2.3 8.45-7.2-2-.7-3-1-1.75-.6-2.65-.2-4.05 1.7-9.5 4.4ZM66.05 134.4q-2.35 5.55-1.35 9.15 4-.8 6.4-6.5 2.45-5.75.85-10.75-3.55 2.5-5.9 8.1ZM335.5 264.15 356 251.9q-7.1-.15-14.6 3-7.7 3.2-8.3 6.9l2.4 2.35Z"/><path fill="#EE9300" d="M72.8 16.2q-1.4-6.05-7.85-10.65Q58.25.75 49.45.1q-9.95-.8-19.4 4.1-12.1 6.3-22.3 19.25-3.2 4.1-5.8 8.3L0 35.2 10.6 31q13.2-4.35 25.9-5.05 6.6-.35 12.4 1.05 2.35.55 8.15 2.65 3.9 1.45 6.05 1.2 3-.3 6.2-3.4 5.05-4.85 3.5-11.25Z" transform="translate(149.55 44.95)" id="chick_feather1"/><path fill="#EE9300" d="M52.25 13.75Q51.85 5.6 45.1 2.1 38.75-1.25 29.85.85 20.55 3 13.2 10.15q-8.3 8.1-11.25 20.1-3.8 15.4-.2 34.2Q3.5 73.9 6.05 80.2q1.3-5.1 4.45-12.5 6.3-14.8 15.4-26.45 4.7-6.05 10.35-10.05 2.3-1.65 8.55-5.05 4.2-2.35 5.7-4.4 2-2.8 1.75-8Z" transform="translate(138.55)" id="chick_feather2"/><g id="chick_eye" transform="translate(108.95 139.95)"><g id="chick_eye_g"><animateTransform attributeName="transform" additive="replace" type="translate" repeatCount="indefinite" dur="16.292s" keyTimes="0;.10199;.102;.10499;.105;.30899;.309;.31199;.312;.31999;.32;.32199;.322;1" values="21.85,21.85;21.85,21.85;21.85,21.904;21.85,21.904;21.85,21.85;21.85,21.85;21.85,21.904;21.85,21.904;21.85,21.85;21.85,21.85;21.85,21.904;21.85,21.904;21.85,21.85;21.85,21.85" calcMode="discrete"/><animateTransform attributeName="transform" additive="sum" type="scale" repeatCount="indefinite" dur="16.292s" keyTimes="0;.10199;.102;.10499;.105;.30899;.309;.31199;.312;.31999;.32;.32199;.322;1" values="1,1;1,1;1,.183;1,.183;1,1;1,1;1,.183;1,.183;1,1;1,1;1,.183;1,.183;1,1;1,1" calcMode="discrete"/><animateTransform attributeName="transform" additive="sum" type="translate" repeatCount="indefinite" dur="16.292s" keyTimes="0;.10199;.102;.10499;.105;.30899;.309;.31199;.312;.31999;.32;.32199;.322;1" values="-21.85,-21.85;-21.85,-21.85;-21.85,-22.15;-21.85,-22.15;-21.85,-21.85;-21.85,-21.85;-21.85,-22.15;-21.85,-22.15;-21.85,-21.85;-21.85,-21.85;-21.85,-22.15;-21.85,-22.15;-21.85,-21.85;-21.85,-21.85" calcMode="discrete"/><path fill="#FEFEFD" d="M6.4 6.4Q0 12.8 0 21.85q0 9.1 6.4 15.45 6.4 6.4 15.45 6.4 9.05 0 15.45-6.4 6.4-6.4 6.4-15.45 0-9.05-6.4-15.45Q30.9 0 21.85 0 12.8 0 6.4 6.4Z"/></g></g></g></g><g id="borg_hat" transform="matrix(.34 .048 -.048 .34 94.85 25.05)"><animateTransform attributeName="transform" additive="replace" type="translate" repeatCount="indefinite" dur="0.958s" keyTimes="0;.04299;.043;.08699;.087;.12999;.13;.17399;.174;.21699;.217;.26099;.261;.30399;.304;.34799;.348;.39099;.391;.43499;.435;.47799;.478;.52199;.522;.56499;.565;.60899;.609;.65199;.652;.69599;.696;.73899;.739;.78299;.783;.82599;.826;.86999;.87;.91299;.913;.95699;.957;1" values="94.818,25.04;94.818,25.04;95.168,25.24;95.168,25.24;95.468,25.49;95.468,25.49;95.818,25.691;95.818,25.691;96.17,25.992;96.17,25.992;95.768,25.691;95.768,25.691;95.418,25.49;95.418,25.49;95.118,25.24;95.118,25.24;94.768,25.04;94.768,25.04;94.418,24.79;94.418,24.79;94.068,24.591;94.068,24.591;93.718,24.391;93.718,24.391;93.368,24.191;93.368,24.191;93.067,23.94;93.067,23.94;92.717,23.741;92.717,23.741;92.42,23.492;92.42,23.492;92.768,23.741;92.768,23.741;93.117,23.94;93.117,23.94;93.417,24.19;93.417,24.19;93.767,24.391;93.767,24.391;94.118,24.591;94.118,24.591;94.468,24.791;94.468,24.791;94.818,25.04;94.818,25.04" calcMode="discrete"/><animateTransform attributeName="transform" additive="sum" type="rotate" repeatCount="indefinite" dur="0.958s" keyTimes="0;1" values="8.064,0,0;8.064,0,0" calcMode="discrete"/><animateTransform attributeName="transform" additive="sum" type="scale" repeatCount="indefinite" dur="0.958s" keyTimes="0;1" values=".343,.343;.343,.343" calcMode="discrete"/><g id="flash0.ai-Assets_Layer-1_.__3CClip-Group.__3E" transform="translate(-6.95 -.5)"><g mask="url(#mask_)" id="Layer38_0_FILL"><path fill="#4D4D4D" d="M220.1 193q.75-13.25-5.1-25.05-5.6-11.35-15.95-18.65 18.1-10.95 31.35-21.05 12.65-9.6 28.45-24.2l13.35-14.7-228.45 123 22.65-3.55q6.3-1.85 16.85-4.7 8.9-2.55 15.45-5.2 2.95-1.15 10-3.7 6.75-2.55 11.65-5.1 0 21.2 15.3 35.9 15.3 14.75 36.6 13.95 19.1-.75 32.95-14.3Q219 212.1 220.1 193Z"/><path fill="#B3B3B3" d="M201.75 53.15q12.9 5.7 22.55 10.7-22.25-20.65-47.75-32.8-18.3-8.75-36.25-12.3-9.3-2.4-19.3-1.95-15.7.7-28.55 8.75Q54.8 49 49.8 128.15q9.35.45 14.05 3.5 5.3 3.45 9.4 12.75-.3-25.3 3.1-46.95Q79.2 79.1 83.25 71q13.65-27.35 31.2-33.95 8.6-3.25 20.15-2.75 10.1.35 25.4 3.8 16 3.65 41.75 15.05Z"/><path fill="gray" d="M224.15 181.1q0-12.4-5.75-23.3-5.6-10.5-15.35-17.45 40.7-24.7 69.15-50.95-36.55-40.7-73.9-64.35-58.15-36.8-101.95-19.7Q69.5 15.8 53.7 42.45 40 65.5 35.35 99.3q-3.95 28.8-.95 61.6 2.55 28.5 9.35 51.5 39.2-12.75 80.6-31.25 0 20.65 14.6 35.25 14.65 14.6 35.3 14.6t35.3-14.6q14.6-14.6 14.6-35.3Z"/><path fill="#333" d="M62.4 177.3q-4.4 6.5-5.5 14.55-1.45 10.6 3.1 22.95 3 8 9.05 13.05 6.05 5 14.75 6.7 3.95.8 8.55.8 16.2 0 34.75-9.2 18.8-9.3 32.45-24.35l-10.35-9.4q-11.5 12.65-27.7 20.85-16 8.1-29.1 8.1-3.25 0-5.9-.5-10-2-13.35-10.95-5.65-15.15.85-24.75l-11.6-7.85ZM9.55 108.35Q0 117.05 0 132.9q0 13.2 9 21.75 7.4 7.05 20.45 10.05 8.15 1.85 16.8 1.85l2.25-.05-.75-14q-6.4.3-13.7-1.15-10.4-2.05-15.45-6.9-4.65-4.4-4.65-11.55 0-9.55 4.95-14.1 3.45-3.2 9.3-4.15 2.95-.45 5.2-.3l1.35-13.95q-4.05-.35-9 .5-9.8 1.65-16.2 7.45Z"/><path fill="#333" d="M55.9 166.7q3.15-3.2 3.15-7.65 0-4.5-3.15-7.65-3.2-3.15-7.65-3.15t-7.65 3.15q-3.15 3.15-3.15 7.65 0 4.45 3.15 7.65 3.2 3.15 7.65 3.15t7.65-3.15ZM70.75 189.6q4.5 0 7.65-3.15 3.15-3.2 3.15-7.65t-3.15-7.65Q75.25 168 70.75 168q-4.45 0-7.65 3.15-3.15 3.2-3.15 7.65t3.15 7.65q3.2 3.15 7.65 3.15ZM151.95 81.45q3.15-3.2 3.15-7.65 0-4.5-3.15-7.65-3.2-3.15-7.65-3.15t-7.65 3.15q-3.15 3.15-3.15 7.65 0 4.45 3.15 7.65 3.2 3.15 7.65 3.15t7.65-3.15Z"/><path fill="#4D4D4D" d="M182.45 75.25q-9.8 0-16.75 6.95-6.95 6.95-6.95 16.75t6.95 16.7q6.95 6.95 16.75 6.95t16.75-6.95q6.95-6.9 6.95-16.7 0-9.8-6.95-16.75-6.95-6.95-16.75-6.95M168.55 85q5.75-5.75 13.9-5.75t13.9 5.75q5.8 5.8 5.8 13.95 0 8.15-5.8 13.9-5.75 5.75-13.9 5.75t-13.9-5.75q-5.8-5.75-5.8-13.9t5.8-13.95Z"/><path fill="#333" d="M183.75 145.85q.1-.7-.3-1.3-.45-.55-1.2-.65l-8.25-1.1q-.7-.1-1.25.35-.55.4-.65 1.1l-2.55 7.9q-.15 1-1.1 1.55-2.95.6-5.65 1.8-.4-.25-.6-.55l-6.15-5.55q-.4-.55-1.1-.65-.75-.1-1.3.35l-6.65 5.05q-.55.4-.65 1.15-.1.7.35 1.25l3.75 7.35q.6.85.35 1.85-1.6 2.4-2.7 5.3-.4.15-.85.05l-8.25.4q-.7-.05-1.25.35-.6.45-.7 1.15l-1.1 8.25q-.1.7.35 1.3.45.6 1.15.65l7.85 2.55q1.05.15 1.55 1.05.6 2.9 1.8 5.65-.15.4-.5.65l-5.6 6.1q-.55.45-.65 1.15-.1.7.35 1.3l5.05 6.6q.4.55 1.15.65.7.1 1.3-.3l7.35-3.8q.8-.65 1.8-.3 2.7 1.7 5.3 2.7.1.25.1.8l.35 8.25q-.05.7.35 1.3.45.6 1.15.65l8.25 1.15q.7.1 1.3-.35.6-.45.65-1.15l2.55-7.85q.15-1.05 1.05-1.55 2.7-.55 5.65-1.85.5.3.65.55l6.1 5.55q.45.55 1.15.65.75.1 1.3-.3l6.6-5.05q.55-.45.65-1.15.1-.75-.3-1.3L198 198.2q-.7-.85-.35-1.85 1.8-2.8 2.7-5.3.5-.1.85-.05l8.25-.4q.7.1 1.3-.35.55-.45.65-1.15l1.1-8.25q.1-.7-.35-1.25-.45-.6-1.15-.7l-7.85-2.5q-1.05-.15-1.55-1.1-.55-2.75-1.85-5.65.25-.4.55-.65l5.55-6.1q.6-.4.7-1.1.05-.7-.35-1.3l-5.05-6.65q-.45-.55-1.15-.65-.75-.1-1.3.35l-7.35 3.75q-.8.6-1.85.35-2.5-1.65-5.3-2.7-.1-.55-.05-.85l-.4-8.25Z"/><path fill="#4D4D4D" d="M180.3 89q-3.45.45-5.85 3-2.75 2.95-2.65 7 .15 4.1 3.1 6.85 2.9 2.75 7 2.65 4-.15 6.8-3.1 2.4-2.55 2.65-6.1.2-3.45-1.8-6.25l46.95-39.1q0-.1-2.65-2.35L186.7 90.35q-2.95-1.8-6.4-1.35ZM163.6 142.95q-.3-.8-1-1.1l-20.95-12.2q-.65-.35-1.5-.1L106.4 143.7q-1.8-2.95-5.05-4.15-3.3-1.25-6.6-.05-3.8 1.35-5.55 5t-.45 7.5q1.35 3.8 5 5.55 3.7 1.75 7.5.4 3.3-1.15 5.15-4.15 1.8-3 1.3-6.4l33-13.9 19.45 11.5 6.1 17.3q-2.95 1.8-4.15 5.05-1.2 3.3-.05 6.6 1.35 3.8 5 5.55t7.5.45q3.85-1.35 5.6-5 1.75-3.7.4-7.5-1.2-3.3-4.2-5.15-3-1.8-6.4-1.3l-6.35-18.05Z"/><path fill="#4D4D4D" d="M98.3 127q-8.9 0-15.25 6.35-6.3 6.3-6.3 15.25 0 8.9 6.3 15.2 6.35 6.35 15.25 6.35t15.25-6.35q6.3-6.3 6.3-15.2 0-8.95-6.3-15.25Q107.2 127 98.3 127m-12.4 9.15Q91.05 131 98.3 131t12.4 5.15q5.15 5.15 5.15 12.45 0 7.25-5.15 12.4t-12.4 5.15q-7.25 0-12.4-5.15t-5.15-12.4q0-7.3 5.15-12.45ZM129.2 97.9q-3.6-1.95-7.45-.75-3.35 1-5.3 3.95-1.95 2.85-1.6 6.3l-17.55 5.3-20.8-8.9-4.9-17.05q3.05-1.6 4.4-4.8 1.35-3.25.35-6.65-1.15-3.85-4.75-5.8-3.6-1.9-7.45-.7-3.85 1.15-5.8 4.75-1.9 3.55-.75 7.45 1 3.35 3.95 5.3 2.9 1.9 6.3 1.6L73 105.7q.25.75.95 1.15l22.2 9.65q.7.4 1.5.15l18.3-5.5q1.65 3.05 4.85 4.4 3.25 1.35 6.6.3 3.9-1.15 5.8-4.7 1.9-3.6.75-7.45-1.15-3.9-4.75-5.8Z"/><path fill="#4D4D4D" d="M232.15 90.85Q215.6 71.45 194.1 54.9q-21-16.2-43.9-27.6 7.3-8.7 13.95-19.6l-3.85-1.4q-6.4 10.45-13.8 19.15Q116.65 11.25 90 8.1q-3 1.5-6.05 3.3l-.05.15q27.7 1.85 59.9 17.05-13.75 15.4-31.1 26.25-13.85 8.6-29.2 13.95-7.2 2.5-14.85 4.3-5.15-24.95-6.3-43.05-2 2.45-3.65 4.75 1.55 17.2 6.05 39.15-13.65 2.85-25 2.85l-.95 4h1.3q11.4 0 25.5-2.9l.85 4 3.9-.85L69.5 77q7.95-1.85 15.15-4.35 16.1-5.55 30.5-14.6 18.15-11.4 32.4-27.65 22.75 11.2 43.65 27.3 21.4 16.45 37.9 35.75 7.7 9 15.05 19.25l3.15-2.45q-6.9-9.65-15.15-19.4Z"/><path fill="#333" d="M244 40.75q4.55-10.35 1.35-17.4-1.6-3.6-5-5.8-4.4-2.9-11.45-3.15-23.8-.9-58.1 25.2-10.9 8.3-21.7 18.45-5.7 5.45-9.45 9.45l10.2 9.55q15.2-16.15 34.35-29.9 27.1-19.4 44.15-18.75 3.4.1 4.3.85.45 1.6-1.65 6.1-2.25 4.75-5.6 8.95l10.9 8.75q4.85-6 7.7-12.3Z"/><path fill="#FFF" d="M189.75 196.5q6.4-6.4 6.4-15.45 0-9.05-6.4-15.45-6.4-6.4-15.45-6.4-9.05 0-15.45 6.4-6.4 6.4-6.4 15.45 0 9.05 6.4 15.45 6.4 6.4 15.45 6.4 9.05 0 15.45-6.4Z"/><path fill="red" d="M181 187.75q2.75-2.75 2.75-6.7 0-3.9-2.75-6.65-2.8-2.8-6.7-2.8-3.95 0-6.7 2.8-2.75 2.75-2.75 6.65 0 3.95 2.75 6.7 2.75 2.8 6.7 2.8 3.9 0 6.7-2.8Z"/></g><mask id="mask_"><path fill="#FFF" d="M272.2 240V0H-.05v240H272.2Z" id="Layer37_0_FILL"/></mask></g></g><path fill-opacity=".298" d="m68.6 8.6 3-5.45L60.95 5.3l.7-3.75L50.25 0 48.3.35l-10.4 3.6-17.95 2.5Q7 5.7 0 5.3l.45.6q.15.2.25.3 4.9 4.65 11.9 7.9 6.9 3.2 14.95 4.75 8.2 1.5 16.65 1.1 8.75-.45 16.8-3 2-.65 3.1-1.4 1.3-.85 1.8-2.1.4-1 1.3-2.45 1.4-2.3 1.4-2.4Z" transform="translate(177.7 201.6)" id="EggShell01_shadow"/><path fill-opacity=".298" d="M61.55 12.35Q53.5 9.9 49.8 8.85L20.1 0l-4.75 3.4.5 5.45-5.05-.4q-7.2 4.9-10.8 7.4 6.85 4.85 17.55 6.85 10.7 1.9 20.5.05Q44.65 21.5 50.4 19q5.95-2.6 11.15-6.65Z" transform="translate(0 195.95)" id="EggShell02_shadow"/><g id="EggShell2"><path fill="#FFF" d="M41.91 212.16q7.459-.633 14.094-2.845 6.91-2.34 13.26-6.512-8.452-3.797-12.318-5.54L25.875 183.24l-5.712 3.418-.34 6.44-5.445-1.078q-8.615 4.855-12.972 7.39 6.724 6.545 18.11 10.156 11.396 3.573 22.393 2.594Z"/><path fill="#D8D8D8" d="m28.544 192.24-.28-.155-2.053-1.024q-.877-.472-1.612-1.027l-3.203-2.129q-.27-.191-.505-.213-.16-.002-.216.063l1.557 5.02.056.094 5.769 1.365q2.95.66 5.198 1.254-2.394-1.555-4.71-3.249m19.114 16.512q9.994-1.885 15.653-6.32-17.651 3.268-35.85-.942-2.68-.628-5.066-1.3l-.225-.059-.038-.01.287 4.524-.093.656q.027.048.12.152.027.048-.032.272l-.02.075q-.065-.057-.12-.152-.075-.02-.157-.162-.567-1.191-.738-1.757l-.196-.773q-.36-1.217-.79-3.375-4.398-1.403-7.59-2.968l-6.708 3.396q11.076 6.454 21.767 8.599 2.067-.696 4.943-1.418.264-.09.519-.143-.182.232-.401.455l-.249.334-.217.063-1.22 1.28q8.32 1.118 16.42-.427Z"/></g><g id="EggShell01" transform="matrix(.728 0 0 .728 167.65 178.4)"><path fill="#FFF" d="M105.3 33.4q.6-2.45 2-6 2.25-5.75 2.3-6l4.75-13.5-17 5.3 1.15-9.3L80.25.05 77.2.9l-16.65 9-28.75 6.2Q11.15 14.15 0 13.25q.2.45.7 1.4.25.6.4.8 7.85 11.5 19 19.6 11 8 23.95 11.8 13.1 3.8 26.5 2.7 14-1.1 26.85-7.4 3.2-1.6 5-3.45 2.1-2.15 2.9-5.3Z" transform="scale(.378)" id="Layer25_0_FILL"/><path fill="#D8D8D8" d="M44.75 33.3q.15.55.85 1.45L48 38.1q.25.35.5.6l-.55-.2q-3-1.7-6.15-4.55-1.1-1-2.7-2.5-.15.15-.3.35-.15.3-.15 1.05.05 1.45-.4 2.95v.05l.15.95q-.3.05-.65-.4h-.15v-.15q.25-.35.3-.85.05-.6-.25-1.7-.25-1.3.05-2.45.25-1.05.2-1.35-.1-.6-.8-1.4-1.45-1.9-2.15-2.4-.8-.5-1.65-.6-.25-.3-.5-.55-.4-.1-.85-.25-6.75-2.15-10.15-3.8Q13.65 19.05 6 16q9.85 11.2 20.25 19.4 1.7.85 3.35 1.7.55.2 1.1.45 4.95 2.1 11.7 4.1 1.65.45 10.4 2.85 7.05.8 15.2.9.05-.5.2-1.2.1-.35.15-1 .4-.3.8-.7.55-.55 1.05-1.25v.05l2.75-3q1.05-1.15 1.7-1.6l.65-.4q.35-.25.55-.5.05-.05.35-.45l.05-.05q.25-.4.65-1.1.05-.1.15-.2 0-.1.05-.2 1-2.85 1.9-4.65-3.2.95-5.4 1.35-3.85.65-8.8.5-7.95-.3-17.95-2.45-.3-.2-.55-.25-.45-.15-.85-.05-2.9-.65-5.9-1.4.8.9 2.95 3.65 1.2 1.55 2.25 2.65v.15M83.8 43.95q-1.1-1.05-1.95-2.3-1.1-1.55-1.3-2.9-.05-.4 0-.8-.6-.3-1.3-.6-1.05-.35-1.9-.75L73.5 40q-1.65 1.5-3 2.15.05.15 0 .35 0 .45-.4 1.3-.1.55 0 1.6.65-.05 1.3-.05 7.7-.2 12.4-1.4M96.55 5.2q-7.6 2.25-13.7 4.05-.25-.05-.45-.1-.1-.05-.15-.05-2.55-.6-6.35-1.05-3.45-.5-5.35 0-.2.05-.4.15.05.05.15.05 3.85 1.15 7.2 2.35-.55.15-1.45.55l-1.95.95-.6-.1q-3 .85-5.45 1.55-13 3.8-23.2 5.4-.5.05-.95.15-1.15.15-2.25.3-.05.05-.1.15 22.9 1.8 44.8-4.65 4.4-1.25 7.75-2.85l1.1-.55q.05-.15.1-.25 1.4-3.05 1.25-5.65v-.4m10.95 10.05q0-.05.05-.1l-3.15 2.05q-6.9 4.6-10.6 6.4-3.4 1.65-9.95 3.95-.2.25-.35.4-1.35 1.65-2.8 5.2-.55 1.3-1 2.35l.95.75 1.7 1.75q.45.65.25 1.25l-.1.2q.15.4.4.95.4.75 1.5 2.15l.85 1q3.35-1.15 7.45-3.6 1.9-1.15 5.2-3.3.45-.45.85-.95 1-1.9 1.95-3.9 2.85-6.05 6.8-16.55Z"/></g></g></svg>