<svg xmlns="http://www.w3.org/2000/svg" viewBox="0 0 58 58" style="enable-background:new 0 0 58 58" xml:space="preserve"><path d="M12.4 46.3c.7.6 1.7.9 2.6.6.6-.2 1.2-.6 1.6-1.1L25 36c.2-.3.2-.6 0-.9v-.2l2.1-2.1h.1c3.1-.5 12.2-2.2 16.7-6.2 1.6-1.4 2.6-3.3 3-5.4.3-2.1 0-4.2-1.1-6.1-.6-1.2-1.6-2.2-2.8-2.8-1.8-1-4-1.4-6.1-1.1-2.1.3-4 1.4-5.4 3-4.1 4.6-5.8 13.6-6.2 16.7v.1l-2.2 2c-.3-.3-.7-.3-1 0l-9.8 8.4c-.5.4-.9 1-1.1 1.6-.3.9-.1 2 .7 2.7l.5.6zm20.4-31c1.4-1.6 3.4-2.6 5.6-2.6.5 0 .9 0 1.4.1-2.2.8-4.1 2.1-5.7 3.8-2.3 2.4-4.3 5.7-5.8 8.6.9-3.5 2.4-7.5 4.5-9.9zm2.6 2.6c2.3-2.5 4.8-3.6 6.6-3.6h.5L28.9 27.9c1.5-3.1 3.9-7.3 6.5-10zm8.3-2.4c.3 1.8-.8 4.5-3.6 7.1-2.8 2.6-6.9 4.9-10 6.5l13.6-13.6zm-1 9.7c-2.4 2.2-6.4 3.6-9.9 4.6 2.9-1.5 6.2-3.6 8.6-5.8 1.7-1.5 3-3.5 3.8-5.7.2 1.3.1 2.6-.3 3.8-.4 1.1-1.2 2.2-2.2 3.1z" style="fill:#fff"/></svg>